<svg xmlns="http://www.w3.org/2000/svg" viewBox="0 0 500 500"><g id="freepik--background-complete--inject-70"><g style="opacity:0.6000000000000001"><path d="M438.43,216c.29-1.45.76-2.87,1.14-4.31a42.94,42.94,0,0,1,4.73-9.7,14.57,14.57,0,0,1,2-2.25,5.19,5.19,0,0,1,7.24-.31,15.2,15.2,0,0,1,4.24,5.22c2.32,4.4,3.75,9.06,2.91,14a15.52,15.52,0,0,1-8.06,11.57c-5.14,2.78-10.68.87-13.15-4.44A15.51,15.51,0,0,1,438.43,216Z" style="fill:#ebebeb"></path><path d="M412.51,217.15A15.61,15.61,0,0,1,414,201.39a23,23,0,0,1,13.27-9.19,11,11,0,0,1,3-.32,5,5,0,0,1,5.15,4.05,17.72,17.72,0,0,1-.06,8c-.37,2-.87,4-1.32,5.94a20,20,0,0,1-5.3,9.57,12,12,0,0,1-6.28,3.33A9,9,0,0,1,412.51,217.15Z" style="fill:#ebebeb"></path><path d="M395.25,234.7c-4.24-3.81-5.62-8.66-4.58-14.22a14.4,14.4,0,0,1,.56-1.8,19.49,19.49,0,0,1,6.21-9.46,8.26,8.26,0,0,1,.91-.64c3.14-2,5.9-1.39,8,1.64a20.27,20.27,0,0,1,3,7.44c.77,3.44,1.37,6.9.58,10.44a12.82,12.82,0,0,1-2.84,5.78A8.07,8.07,0,0,1,395.25,234.7Z" style="fill:#ebebeb"></path><path d="M450,263.69c-.11.53-.26,1.06-.43,1.75-1.81,5-5.64,7.65-10.94,8.26-5.58.64-10.58-1.11-15.06-4.33a16.11,16.11,0,0,0-9.85-3.16,21.37,21.37,0,0,1-14.61-5c-3.51-3-5.4-6.81-4.73-11.54a13,13,0,0,1,5.48-8.8,25.39,25.39,0,0,1,5.27-3A40.36,40.36,0,0,0,416.33,231a15.5,15.5,0,0,1,22.52,1.89,15.19,15.19,0,0,1,3.21,7.39,21.21,21.21,0,0,0,4.13,9.86,18.1,18.1,0,0,1,4,12.3A11,11,0,0,1,450,263.69Z" style="fill:#ebebeb"></path><path d="M469.66,243.19c-2,6-5.66,9.59-11.28,10.94s-10.45-2.14-10.75-7.91a12.34,12.34,0,0,1,1.13-5.83c1.95-4.35,5.37-7.42,9.1-10.17a17.9,17.9,0,0,1,4.36-2.32c3.21-1.19,5.77,0,7.14,3.13a16.43,16.43,0,0,1,1,8.58C470.16,241,469.82,242.36,469.66,243.19Z" style="fill:#ebebeb"></path><g style="opacity:0.7000000000000001"><path d="M371.29,82.9c-.07-2.52.18-5.06.28-7.59.91-6.09,1.76-12.19,4.18-17.91a25.22,25.22,0,0,1,2.42-4.49c3-4.32,7.12-5.4,11.91-3.25a26,26,0,0,1,9,7.07c5.51,6.44,9.65,13.63,10.14,22.23s-2.33,16.4-9,22.26c-7.48,6.58-17.41,5.49-23.53-2.39A26.53,26.53,0,0,1,371.29,82.9Z" style="fill:#ebebeb"></path><path d="M328.67,94.65c-5.92-8.24-7.24-17.34-3.42-26.76A39.14,39.14,0,0,1,343.83,47.6a18.64,18.64,0,0,1,4.81-1.66c4.54-1,7.91.66,10.09,4.78s2.74,8.72,2.93,13.31c.14,3.46,0,6.92.06,10.38-.32,6.39-1.57,12.49-5.2,17.91a20.48,20.48,0,0,1-9.17,7.9A15.35,15.35,0,0,1,328.67,94.65Z" style="fill:#ebebeb"></path><path d="M306.64,130.35c-8.49-4.73-12.63-12.26-13-21.9a24.78,24.78,0,0,1,.25-3.21c.6-6.62,2.56-12.76,6.75-18a14.2,14.2,0,0,1,1.26-1.42c4.48-4.42,9.28-4.54,14-.31a34.53,34.53,0,0,1,7.78,11.23c2.57,5.43,4.9,11,4.91,17.12A21.8,21.8,0,0,1,326,124.5C322,131.83,313.93,134.41,306.64,130.35Z" style="fill:#ebebeb"></path><path d="M408.61,157.79c0,.92,0,1.85-.05,3.07-1.11,9-6.48,14.85-15.05,17.86-9,3.17-18,2.16-26.67-1.49a27.37,27.37,0,0,0-17.55-1.52c-9,2.13-17.85,1.63-26.17-2.76-7-3.67-11.54-9.26-12.22-17.37a22.27,22.27,0,0,1,5.76-16.71,44.61,44.61,0,0,1,7.64-7,68.92,68.92,0,0,0,16-15.74,26.39,26.39,0,0,1,38.12-5.37,25.75,25.75,0,0,1,8.14,11.06,36.15,36.15,0,0,0,10.59,14.82c5.9,5,10,11.12,11.28,18.92A15.94,15.94,0,0,1,408.61,157.79Z" style="fill:#ebebeb"></path><path d="M433.49,116.3c-1.05,10.74-5.78,18.06-14.6,22.44-9,4.48-18.18.4-20.86-9.07a21.3,21.3,0,0,1-.34-10.13c1.6-8,6.12-14.36,11.28-20.33a30.76,30.76,0,0,1,6.37-5.51c4.88-3.19,9.59-2.19,13,2.49,3,4.13,4.34,8.91,4.87,13.91C433.49,112.46,433.44,114.85,433.49,116.3Z" style="fill:#ebebeb"></path></g><path d="M96.7,57.52c-.7-1.24-1.24-2.57-1.86-3.87a41.27,41.27,0,0,1-2.6-10.06,14.59,14.59,0,0,1,0-2.88A5,5,0,0,1,97.38,36a14.66,14.66,0,0,1,6.38,1.17c4.44,1.77,8.4,4.29,10.9,8.47A14.87,14.87,0,0,1,116,59.1c-2,5.26-7.28,7.32-12.41,5A14.92,14.92,0,0,1,96.7,57.52Z" style="fill:#ebebeb"></path><path d="M78.44,74.58a15,15,0,0,1-8.73-12.49,22.1,22.1,0,0,1,4-15,10.61,10.61,0,0,1,2-2.1A4.8,4.8,0,0,1,82,44.71a17.06,17.06,0,0,1,5,5.89c1,1.7,1.84,3.46,2.76,5.19a19.34,19.34,0,0,1,2.09,10.32,11.58,11.58,0,0,1-2.52,6.36A8.67,8.67,0,0,1,78.44,74.58Z" style="fill:#ebebeb"></path><path d="M76.78,98.23c-5.49-.14-9.54-2.83-12.26-7.55A13.72,13.72,0,0,1,63.81,89,18.75,18.75,0,0,1,62.45,78.2a9.3,9.3,0,0,1,.26-1c1.08-3.39,3.46-4.71,6.91-3.82a19.62,19.62,0,0,1,6.83,3.58c2.72,2,5.33,4.2,7,7.29a12.17,12.17,0,0,1,1.54,6A7.77,7.77,0,0,1,76.78,98.23Z" style="fill:#ebebeb"></path><path d="M135,85.22c.25.46.47.94.78,1.55,1.8,4.8.65,9.14-2.85,12.89a20.37,20.37,0,0,1-13.74,6.25,15.47,15.47,0,0,0-9.19,3.84,20.56,20.56,0,0,1-13.82,5.48c-4.46,0-8.21-1.6-10.67-5.49A12.56,12.56,0,0,1,84,99.87a24.89,24.89,0,0,1,2-5.49,38.84,38.84,0,0,0,3.86-12.06,14.91,14.91,0,0,1,17.67-12.69,14.62,14.62,0,0,1,7,3.4,20.4,20.4,0,0,0,9.19,4.65,17.41,17.41,0,0,1,10.61,6.51A12.22,12.22,0,0,1,135,85.22Z" style="fill:#ebebeb"></path><path d="M136.59,57.93c2.29,5.65,1.84,10.56-1.42,15.06s-9,5-12.83.93a12.11,12.11,0,0,1-2.82-5c-1.29-4.41-.7-8.79.31-13.13a17.12,17.12,0,0,1,1.75-4.43c1.6-2.88,4.22-3.62,7.18-2.17a15.74,15.74,0,0,1,6.08,5.68C135.58,56,136.18,57.22,136.59,57.93Z" style="fill:#ebebeb"></path></g><polygon points="461.1 464.7 299.48 464.7 299.48 273.16 281.88 199.03 436.17 199.03 461.1 273.16 461.1 464.7" style="fill:#dbdbdb"></polygon><polygon points="461.1 464.7 299.48 464.7 299.48 273.16 281.88 199.03 436.17 199.03 461.1 273.16 461.1 464.7" style="fill:#fff;opacity:0.2"></polygon><path d="M281.88,199l17.6,74.13V464.69H414.23S422.36,333,423,322.15s4.39-67,15.29-70.78c6.13-2.16,13,8.45,22.8,21.79L436.16,199Z" style="fill:#fff;opacity:0.2"></path><path d="M437.72,353.23q.69,11.16,1,22.31c.24,7.44.36,14.88.45,22.32s.09,14.88,0,22.32-.24,14.88-.56,22.32q-.69-11.14-1-22.31c-.24-7.43-.36-14.87-.45-22.31s-.09-14.88,0-22.32S437.41,360.68,437.72,353.23Z" style="opacity:0.1"></path><path d="M436.16,199q.76,17.75,1.14,35.5c.28,11.83.44,23.66.58,35.5s.18,23.67.14,35.5-.15,23.67-.42,35.51q-.77-17.75-1.14-35.49c-.28-11.84-.44-23.67-.58-35.5s-.18-23.67-.14-35.51S435.9,210.87,436.16,199Z" style="opacity:0.1"></path><path d="M461.1,464.7c-4-2.87-7.89-5.87-11.73-8.93-1.93-1.52-3.83-3.08-5.73-4.63L438,446.43l1.25,0-6.12,4.72c-2.06,1.54-4.11,3.11-6.2,4.63s-4.17,3-6.27,4.52-4.23,3-6.41,4.36c1.89-1.76,3.85-3.45,5.79-5.15s3.93-3.34,5.92-5,4-3.26,6-4.89l6.07-4.78.64-.51.61.53,5.59,4.81c1.84,1.62,3.69,3.23,5.51,4.88C454,457.88,457.62,461.22,461.1,464.7Z" style="opacity:0.1"></path><polygon points="264.46 464.7 418.74 464.7 418.74 273.16 436.35 199.03 282.06 199.03 264.46 273.16 264.46 464.7" style="fill:#dbdbdb"></polygon><rect x="281.88" y="178.37" width="154.47" height="20.65" transform="translate(718.22 377.4) rotate(180)" style="fill:#dbdbdb"></rect><rect x="281.88" y="178.37" width="154.47" height="20.65" transform="translate(718.22 377.4) rotate(180)" style="opacity:0.1"></rect><polygon points="313.85 254.7 301.61 245.44 285.07 254.7 298.02 199.03 326.8 199.03 313.85 254.7" style="fill:#c7c7c7"></polygon><path d="M305,239.59l2-8.64a1.09,1.09,0,0,1,1-.81.62.62,0,0,1,.62.81l-1,4.24,5.9-4.8a.79.79,0,0,1,1.15,0,.87.87,0,0,1-.27,1.15l-4,3.24,2.28,4.3a.87.87,0,0,1-.38,1.13.88.88,0,0,1-.56.19.61.61,0,0,1-.54-.29L309,235.93l-1.9,1.56-.49,2.1a1.07,1.07,0,0,1-1,.81A.62.62,0,0,1,305,239.59Z" style="fill:#fff"></path><path d="M303.52,231a4.59,4.59,0,0,1,.86,3.88,6.88,6.88,0,0,1-2.37,3.9,6.7,6.7,0,0,1-4.22,1.61,4.52,4.52,0,0,1-3.56-1.61,1.32,1.32,0,0,1,.35-1.78,1.26,1.26,0,0,1,1.77,0,2.4,2.4,0,0,0,1.93.87,3.82,3.82,0,0,0,3.6-3,2.46,2.46,0,0,0-.48-2.11,2.41,2.41,0,0,0-1.93-.88.91.91,0,0,1-.83-.4s0,0,0,0a1.31,1.31,0,0,1,.3-1.78l2.71-2.3H298a1,1,0,0,1-1-1.26,1.57,1.57,0,0,1,1.48-1.25h6.53a1,1,0,0,1,1,1.25,1.53,1.53,0,0,1-.28.59,1.38,1.38,0,0,1-.28.31l-3.35,2.88A4,4,0,0,1,303.52,231Z" style="fill:#fff"></path><g style="opacity:0.1"><path d="M384.72,313.16c.55-1,1-2,1.44-3a32,32,0,0,0,2-7.8,11.07,11.07,0,0,0,0-2.23,3.86,3.86,0,0,0-4-3.68,11.31,11.31,0,0,0-4.94.91c-3.44,1.37-6.51,3.32-8.45,6.56a11.59,11.59,0,0,0-1,10.46,6.83,6.83,0,0,0,9.62,3.86A11.61,11.61,0,0,0,384.72,313.16Z"></path><path d="M398.87,326.38a11.64,11.64,0,0,0,6.76-9.69,17.07,17.07,0,0,0-3.08-11.64,7.83,7.83,0,0,0-1.53-1.62,3.7,3.7,0,0,0-4.88-.2,13.15,13.15,0,0,0-3.84,4.57c-.76,1.31-1.43,2.67-2.13,4a14.92,14.92,0,0,0-1.63,8,9.05,9.05,0,0,0,1.95,4.93A6.74,6.74,0,0,0,398.87,326.38Z"></path><path d="M400.16,344.7a10.79,10.79,0,0,0,9.5-5.85,11.36,11.36,0,0,0,.55-1.29,14.53,14.53,0,0,0,1.05-8.38,8,8,0,0,0-.2-.81c-.84-2.62-2.68-3.64-5.35-2.95a15.2,15.2,0,0,0-5.3,2.77,17.74,17.74,0,0,0-5.39,5.65,9.61,9.61,0,0,0-1.19,4.66A6,6,0,0,0,400.16,344.7Z"></path><path d="M355,334.62c-.2.36-.36.73-.6,1.2-1.4,3.72-.51,7.08,2.2,10a15.8,15.8,0,0,0,10.65,4.84,12,12,0,0,1,7.12,3,15.94,15.94,0,0,0,10.71,4.25,9.19,9.19,0,0,0,8.27-4.26,9.72,9.72,0,0,0,1.16-7.65,19.49,19.49,0,0,0-1.55-4.25,30.16,30.16,0,0,1-3-9.35,11.56,11.56,0,0,0-13.69-9.83,11.27,11.27,0,0,0-5.41,2.64,15.84,15.84,0,0,1-7.12,3.59,13.52,13.52,0,0,0-8.22,5.05A8.52,8.52,0,0,0,355,334.62Z"></path><path d="M353.81,313.47c-1.77,4.38-1.43,8.18,1.11,11.68a6.19,6.19,0,0,0,9.93.72A9.31,9.31,0,0,0,367,322c1-3.42.54-6.82-.24-10.18a13.54,13.54,0,0,0-1.35-3.43,3.88,3.88,0,0,0-5.57-1.69,12.25,12.25,0,0,0-4.71,4.41C354.59,312,354.13,312.92,353.81,313.47Z"></path></g><g style="opacity:0.1"><path d="M301.47,389.21c0-.67-.06-1.34-.1-2a19.52,19.52,0,0,0-1.18-4.73,6.48,6.48,0,0,0-.66-1.18,2.34,2.34,0,0,0-3.17-.81,6.94,6.94,0,0,0-2.36,1.91,10,10,0,0,0-2.6,5.93,7,7,0,0,0,2.48,5.86,4.13,4.13,0,0,0,6.23-.73A7.05,7.05,0,0,0,301.47,389.21Z"></path><path d="M312.81,392.14a7,7,0,0,0,.8-7.1,10.41,10.41,0,0,0-5-5.3,5.27,5.27,0,0,0-1.29-.42,2.24,2.24,0,0,0-2.65,1.31,8,8,0,0,0-.72,3.54c0,.91,0,1.83,0,2.75a9,9,0,0,0,1.45,4.72,5.41,5.41,0,0,0,2.46,2.05A4.06,4.06,0,0,0,312.81,392.14Z"></path><path d="M318.8,401.51a6.51,6.51,0,0,0,3.35-5.86,6,6,0,0,0-.08-.84,8.81,8.81,0,0,0-1.86-4.76,4,4,0,0,0-.34-.37,2.42,2.42,0,0,0-3.7,0,9.1,9.1,0,0,0-2,3,10.66,10.66,0,0,0-1.23,4.56,5.76,5.76,0,0,0,.71,2.82A3.65,3.65,0,0,0,318.8,401.51Z"></path><path d="M291.9,409.2c0,.24,0,.49,0,.81a5.51,5.51,0,0,0,4.06,4.67,9.54,9.54,0,0,0,7.06-.51,7.3,7.3,0,0,1,4.65-.47,9.63,9.63,0,0,0,6.92-.84,5.54,5.54,0,0,0,3.16-4.65,5.89,5.89,0,0,0-1.59-4.4,11.43,11.43,0,0,0-2.06-1.81,18.2,18.2,0,0,1-4.29-4.11,7,7,0,0,0-10.12-1.26,6.74,6.74,0,0,0-2.11,3,9.6,9.6,0,0,1-2.74,4,8.1,8.1,0,0,0-2.91,5.06A3.68,3.68,0,0,0,291.9,409.2Z"></path><path d="M285.14,398.31a6.81,6.81,0,0,0,4,5.88,3.75,3.75,0,0,0,5.49-2.49,5.65,5.65,0,0,0,0-2.68,11.87,11.87,0,0,0-3.07-5.34,7.83,7.83,0,0,0-1.71-1.43,2.33,2.33,0,0,0-3.44.71,7.35,7.35,0,0,0-1.23,3.7C285.12,397.29,285.14,397.92,285.14,398.31Z"></path></g><g style="opacity:0.1"><path d="M348,227.1c-.16-.88-.43-1.73-.65-2.6a25.19,25.19,0,0,0-2.74-5.85,9,9,0,0,0-1.16-1.37,3.13,3.13,0,0,0-4.34-.25,9.2,9.2,0,0,0-2.58,3.1,13.11,13.11,0,0,0-1.87,8.38,9.31,9.31,0,0,0,4.72,7,5.48,5.48,0,0,0,7.92-2.54A9.29,9.29,0,0,0,348,227.1Z"></path><path d="M363.55,228a9.35,9.35,0,0,0-.78-9.45A13.73,13.73,0,0,0,354.9,213a6.61,6.61,0,0,0-1.77-.22,3,3,0,0,0-3.13,2.38,10.76,10.76,0,0,0,0,4.79c.2,1.2.49,2.38.74,3.58a12,12,0,0,0,3.09,5.78,7.21,7.21,0,0,0,3.73,2A5.39,5.39,0,0,0,363.55,228Z"></path><path d="M373.73,238.69a8.61,8.61,0,0,0,2.87-8.48,8.34,8.34,0,0,0-.32-1.08,11.67,11.67,0,0,0-3.63-5.72,4.91,4.91,0,0,0-.54-.39,3.2,3.2,0,0,0-4.82.91,12,12,0,0,0-1.86,4.43,14.2,14.2,0,0,0-.44,6.25,7.63,7.63,0,0,0,1.65,3.49A4.84,4.84,0,0,0,373.73,238.69Z"></path><path d="M340.67,255.57c.05.32.14.64.24,1.05a7.31,7.31,0,0,0,6.47,5.05,12.68,12.68,0,0,0,9.07-2.46,9.53,9.53,0,0,1,5.92-1.8,12.86,12.86,0,0,0,8.8-2.86,7.39,7.39,0,0,0,2.94-6.87,7.83,7.83,0,0,0-3.2-5.32,15.94,15.94,0,0,0-3.14-1.84,24,24,0,0,1-6.63-4.25,9.29,9.29,0,0,0-13.51.94,9,9,0,0,0-2,4.4,12.7,12.7,0,0,1-2.56,5.87,10.82,10.82,0,0,0-2.5,7.33A4.92,4.92,0,0,0,340.67,255.57Z"></path><path d="M329.08,243.12c1.15,3.62,3.31,5.79,6.66,6.65a5,5,0,0,0,6.51-4.64,7.55,7.55,0,0,0-.62-3.51,15.82,15.82,0,0,0-5.36-6.17,11,11,0,0,0-2.6-1.43,3.11,3.11,0,0,0-4.3,1.81,9.82,9.82,0,0,0-.66,5.14C328.8,241.8,329,242.62,329.08,243.12Z"></path></g><path d="M411.79,273.48c-11.76.62-23.52.94-35.27,1.17-5.88.13-11.76.16-17.64.25l-17.64.08-17.64-.08c-5.88-.08-11.76-.11-17.64-.25-11.76-.22-23.52-.55-35.28-1.17,11.76-.63,23.52-1,35.28-1.17,5.88-.14,11.76-.17,17.64-.25l17.64-.08,17.64.08c5.88.08,11.76.12,17.64.25C388.27,272.53,400,272.86,411.79,273.48Z" style="fill:#fff;opacity:0.2"></path><path d="M279.68,326.27V312.5a1.28,1.28,0,0,1,1.29-1.28h7.63a1.3,1.3,0,0,1,0,2.59h-6.33v4.27h5.44a1.31,1.31,0,0,1,1.28,1.28,1.3,1.3,0,0,1-1.28,1.31h-5.44v5.6a1.29,1.29,0,0,1-1.3,1.28A1.28,1.28,0,0,1,279.68,326.27Z" style="fill:#fff"></path><path d="M281,328a1.69,1.69,0,0,1-1.69-1.69V312.5a1.69,1.69,0,0,1,1.69-1.68h7.63a1.7,1.7,0,0,1,0,3.39h-5.93v3.47h5a1.7,1.7,0,0,1,0,3.39h-5v5.2A1.7,1.7,0,0,1,281,328Zm.07-16.34a.91.91,0,0,0-1,.88v13.77a.9.9,0,0,0,1.79,0v-6h5.84a.9.9,0,0,0,0-1.79h-5.84v-5.07h6.73a.92.92,0,0,0,.88-.91.9.9,0,0,0-.88-.88Z" style="fill:#fff"></path><path d="M306.22,313.25a8.57,8.57,0,0,1,0,11.81,7.63,7.63,0,0,1-5.58,2.49,7.84,7.84,0,0,1-5.71-2.49,8.67,8.67,0,0,1,0-11.81,7.77,7.77,0,0,1,5.71-2.5A7.57,7.57,0,0,1,306.22,313.25Zm-.3,5.9a6,6,0,0,0-1.59-4.08,5,5,0,0,0-7.47,0,5.94,5.94,0,0,0-1.58,4.08,5.82,5.82,0,0,0,1.58,4.06,5,5,0,0,0,7.47,0A5.92,5.92,0,0,0,305.92,319.15Z" style="fill:#fff"></path><path d="M300.64,328a8.3,8.3,0,0,1-6-2.63,8.88,8.88,0,0,1-2.42-6.18,9,9,0,0,1,2.42-6.18,8.22,8.22,0,0,1,6-2.62,8,8,0,0,1,5.88,2.63,9,9,0,0,1,2.46,6.17,8.9,8.9,0,0,1-2.47,6.18A8.07,8.07,0,0,1,300.64,328Zm0-16.81a7.43,7.43,0,0,0-5.42,2.37,8.17,8.17,0,0,0-2.2,5.63,8.08,8.08,0,0,0,2.2,5.63,7.45,7.45,0,0,0,5.42,2.37,7.25,7.25,0,0,0,5.28-2.36,8.13,8.13,0,0,0,2.26-5.64,8.23,8.23,0,0,0-2.25-5.63h0A7.19,7.19,0,0,0,300.64,311.15Zm0,14.15a5.55,5.55,0,0,1-4.07-1.81,6.21,6.21,0,0,1-1.7-4.34,6.35,6.35,0,0,1,1.7-4.36,5.48,5.48,0,0,1,4.07-1.78,5.41,5.41,0,0,1,4,1.79,6.42,6.42,0,0,1,1.7,4.35,6.32,6.32,0,0,1-1.7,4.34A5.44,5.44,0,0,1,300.64,325.3Zm0-11.49a4.66,4.66,0,0,0-3.48,1.53,5.52,5.52,0,0,0-1.48,3.81,5.38,5.38,0,0,0,1.47,3.78,4.59,4.59,0,0,0,6.89,0,5.54,5.54,0,0,0,1.48-3.79,5.65,5.65,0,0,0-1.48-3.81A4.66,4.66,0,0,0,300.64,313.81Z" style="fill:#fff"></path><path d="M325.83,313.25a8.57,8.57,0,0,1,0,11.81,7.63,7.63,0,0,1-5.58,2.49,7.88,7.88,0,0,1-5.72-2.49,8.7,8.7,0,0,1,0-11.81,7.81,7.81,0,0,1,5.72-2.5A7.57,7.57,0,0,1,325.83,313.25Zm-.3,5.9a6,6,0,0,0-1.59-4.08,5,5,0,0,0-7.47,0,6,6,0,0,0-1.59,4.08,5.83,5.83,0,0,0,1.59,4.06,5,5,0,0,0,7.47,0A5.92,5.92,0,0,0,325.53,319.15Z" style="fill:#fff"></path><path d="M320.25,328a8.3,8.3,0,0,1-6-2.63,8.88,8.88,0,0,1-2.42-6.18,9,9,0,0,1,2.42-6.18,8.22,8.22,0,0,1,6-2.62,8,8,0,0,1,5.87,2.63,9,9,0,0,1,0,12.35A8.07,8.07,0,0,1,320.25,328Zm0-16.81a7.43,7.43,0,0,0-5.42,2.37,8.29,8.29,0,0,0,0,11.26,7.49,7.49,0,0,0,5.43,2.37,7.25,7.25,0,0,0,5.28-2.36,8.12,8.12,0,0,0,2.25-5.64,8.22,8.22,0,0,0-2.24-5.63h0A7.19,7.19,0,0,0,320.25,311.15Zm0,14.15a5.54,5.54,0,0,1-4.07-1.81,6.21,6.21,0,0,1-1.7-4.34,6.35,6.35,0,0,1,1.7-4.36,5.43,5.43,0,0,1,8.05,0,6.42,6.42,0,0,1,1.7,4.35,6.32,6.32,0,0,1-1.7,4.34A5.46,5.46,0,0,1,320.25,325.3Zm0-11.49a4.68,4.68,0,0,0-3.49,1.53,5.57,5.57,0,0,0-1.48,3.81,5.39,5.39,0,0,0,1.48,3.78,4.58,4.58,0,0,0,6.88,0,5.49,5.49,0,0,0,1.48-3.79,5.6,5.6,0,0,0-1.48-3.81A4.64,4.64,0,0,0,320.25,313.81Z" style="fill:#fff"></path><path d="M332.09,326.27V312.5a1.26,1.26,0,0,1,1.28-1.28h2.75a8.17,8.17,0,0,1,0,16.33h-2.75A1.28,1.28,0,0,1,332.09,326.27Zm2.59-1.31h1.44a5.58,5.58,0,0,0,0-11.15h-1.44Z" style="fill:#fff"></path><path d="M336.12,328h-2.75a1.69,1.69,0,0,1-1.68-1.69V312.5a1.66,1.66,0,0,1,1.68-1.68h2.75a8.57,8.57,0,0,1,0,17.14Zm-2.75-16.34a.86.86,0,0,0-.88.88v13.77a.87.87,0,0,0,.88.88h2.75a7.77,7.77,0,0,0,0-15.53Zm1.31,13.75h-.4v-12h1.84a6,6,0,0,1,0,12Zm.4-.81h1a5.18,5.18,0,0,0,0-10.35h-1Z" style="fill:#fff"></path><path d="M279.91,292.92a13,13,0,0,1,13-12.72A13.21,13.21,0,0,1,301,283a2.08,2.08,0,0,1,.35,2.82,2.05,2.05,0,0,1-2.82.39,8.83,8.83,0,0,0-5.69-1.94,9.36,9.36,0,0,0-6.35,2.54,8.73,8.73,0,0,0-2.58,6.15,8.57,8.57,0,0,0,2.58,6.14,9.36,9.36,0,0,0,6.35,2.54,8.89,8.89,0,0,0,5.69-1.94,2.13,2.13,0,0,1,2.82.39,2.08,2.08,0,0,1-.35,2.83,13.26,13.26,0,0,1-8.16,2.75A12.93,12.93,0,0,1,279.91,292.92Z" style="fill:#fff"></path><path d="M292.87,306.26a13.53,13.53,0,0,1-13.59-13.34h0a13.58,13.58,0,0,1,13.59-13.34,13.79,13.79,0,0,1,8.55,2.89,2.66,2.66,0,0,1-3.25,4.21,8.22,8.22,0,0,0-5.3-1.81,8.65,8.65,0,0,0-5.92,2.37,8,8,0,0,0,0,11.38,8.64,8.64,0,0,0,5.91,2.36,8.21,8.21,0,0,0,5.29-1.8,2.79,2.79,0,0,1,3.71.48,2.73,2.73,0,0,1-.45,3.72A13.79,13.79,0,0,1,292.87,306.26Zm-12.33-13.34A12.27,12.27,0,0,0,292.87,305a12.54,12.54,0,0,0,7.77-2.62,1.44,1.44,0,0,0,.23-2,1.5,1.5,0,0,0-1.94-.25,9.49,9.49,0,0,1-6.06,2.07,9.92,9.92,0,0,1-6.79-2.72,9.26,9.26,0,0,1,0-13.19,9.93,9.93,0,0,1,6.81-2.73,9.5,9.5,0,0,1,6.09,2.08,1.43,1.43,0,0,0,1.93-.29,1.45,1.45,0,0,0-.27-1.95,12.49,12.49,0,0,0-7.75-2.6A12.31,12.31,0,0,0,280.54,292.92Z" style="fill:#fff"></path><path d="M320.31,299.8h-8.58L310,304.39a2,2,0,0,1-1.84,1.24,2,2,0,0,1-.67-.11,2,2,0,0,1-1.16-2.54l7.8-20.8A2,2,0,0,1,316,281a1.94,1.94,0,0,1,1.87,1.23l7.81,20.8a2,2,0,0,1-1.17,2.54,1.92,1.92,0,0,1-.67.11,1.89,1.89,0,0,1-1.8-1.24Zm-1.45-3.88L316,288.33l-2.86,7.59Z" style="fill:#fff"></path><path d="M323.84,306.26a2.54,2.54,0,0,1-2.39-1.65l-1.58-4.18h-7.7l-1.58,4.19a2.7,2.7,0,0,1-3.3,1.5,2.62,2.62,0,0,1-1.56-3.34L313.54,282a2.57,2.57,0,0,1,2.49-1.64,2.51,2.51,0,0,1,2.43,1.62l7.81,20.82a2.63,2.63,0,0,1-1.53,3.35A2.42,2.42,0,0,1,323.84,306.26Zm-12.55-7.09h9.46l1.88,5a1.26,1.26,0,0,0,1.21.83,1.62,1.62,0,0,0,.44-.06,1.38,1.38,0,0,0,.8-1.75l-7.8-20.79a1.27,1.27,0,0,0-1.25-.82,1.32,1.32,0,0,0-1.32.84l-7.79,20.78a1.36,1.36,0,0,0,.79,1.73,1.52,1.52,0,0,0,.45.07,1.34,1.34,0,0,0,1.25-.85Zm8.48-2.62h-7.54l3.77-10Zm-5.72-1.26H318L316,290.12Z" style="fill:#fff"></path><path d="M342.1,284.83h-5.62v18.86a1.91,1.91,0,0,1-1.94,1.94,1.94,1.94,0,0,1-1.94-1.94V284.83H327a2,2,0,0,1-1.94-2,1.91,1.91,0,0,1,1.94-1.94H342.1a1.94,1.94,0,0,1,1.94,1.94A2,2,0,0,1,342.1,284.83Z" style="fill:#fff"></path><path d="M334.54,306.26a2.57,2.57,0,0,1-2.57-2.57V285.46h-5a2.59,2.59,0,0,1-2.57-2.61,2.54,2.54,0,0,1,2.57-2.57H342.1a2.57,2.57,0,0,1,2.57,2.57,2.62,2.62,0,0,1-2.57,2.61h-5v18.23A2.54,2.54,0,0,1,334.54,306.26ZM327,281.54a1.28,1.28,0,0,0-1.31,1.31A1.33,1.33,0,0,0,327,284.2h6.21v19.49a1.31,1.31,0,0,0,1.31,1.31,1.28,1.28,0,0,0,1.31-1.31V284.2h6.25a1.36,1.36,0,0,0,1.31-1.35,1.31,1.31,0,0,0-1.31-1.31Z" style="fill:#fff"></path><rect x="264.47" y="335.42" width="52.02" height="14.68" style="fill:#fff"></rect><path d="M282.7,344.64h-2.46l-.5,1.31a.56.56,0,0,1-.53.36.55.55,0,0,1-.52-.76l2.24-6a.58.58,0,0,1,1.07,0l2.24,6a.58.58,0,0,1-.34.73.54.54,0,0,1-.19,0,.53.53,0,0,1-.51-.36Zm-.42-1.12-.82-2.18-.82,2.18Z" style="fill:#dbdbdb"></path><path d="M285.63,345.75v-6a.54.54,0,0,1,.56-.55h1.19a3.55,3.55,0,0,1,0,7.09h-1.19A.55.55,0,0,1,285.63,345.75Zm1.13-.57h.62a2.42,2.42,0,1,0,0-4.84h-.62Z" style="fill:#dbdbdb"></path><path d="M295.86,346.31a2.93,2.93,0,0,1-2.93-2.93v-3.61a.54.54,0,0,1,.56-.55.57.57,0,0,1,.57.55v3.61a1.8,1.8,0,0,0,3.6,0v-3.61a.56.56,0,0,1,.57-.55.55.55,0,0,1,.56.55v3.61A2.93,2.93,0,0,1,295.86,346.31Z" style="fill:#dbdbdb"></path><path d="M300.71,345.75v-6a.55.55,0,0,1,.55-.55.56.56,0,0,1,.57.55v5.41h2.75a.57.57,0,0,1,.55.57.56.56,0,0,1-.55.56h-3.32A.55.55,0,0,1,300.71,345.75Z" style="fill:#dbdbdb"></path><path d="M309.74,340.34h-1.61v5.41a.55.55,0,0,1-.56.56.56.56,0,0,1-.56-.56v-5.41h-1.6a.57.57,0,0,1-.56-.57.55.55,0,0,1,.56-.55h4.33a.55.55,0,0,1,.55.55A.57.57,0,0,1,309.74,340.34Z" style="fill:#dbdbdb"></path><path d="M332.85,199h-51l-17.42,74.13V357l8.5-83.54S290,222,295.66,216.27,332.85,199,332.85,199Z" style="opacity:0.1"></path><path d="M374.52,327s-9.28-11.27-18.25-13.83c-.75-.22,1.12,23.31,1.46,24.48S374.52,327,374.52,327Z" style="fill:#a6a6a6"></path><path d="M371.53,328.64s-7.07-8.58-13.89-10.53c-.58-.17.84,17.74,1.11,18.63S371.53,328.64,371.53,328.64Z" style="fill:#a6a6a6"></path><path d="M406,394.48c-.44,4.9-8.51,47.35-8.58,48s3.84,2.6,4.5,4.06,1.27,3.94.68,4.53-5.47,1.21-6.94,1.3-8.43-2.43-9.46-3.08S385,444,385,443.46s-4.78-32.52-4.29-35.52S406,394.48,406,394.48Z" style="fill:#a6a6a6"></path><path d="M399.44,446a5.43,5.43,0,0,1,1.28.89,4.3,4.3,0,0,1,.82,1.4,4.86,4.86,0,0,1,.31,1.77,2.23,2.23,0,0,1-.37,1.45c-.07.08-.22,0-.18-.1a9.25,9.25,0,0,0-.52-2.94,5.66,5.66,0,0,0-.52-1.21,3.05,3.05,0,0,0-.89-1.15A.07.07,0,0,1,399.44,446Z" style="fill:#a6a6a6"></path><path d="M395.43,446.66a5.69,5.69,0,0,1,1.45.93,4.05,4.05,0,0,1,1,1.44,3.15,3.15,0,0,1-.3,3.33.06.06,0,0,1-.1-.06,3,3,0,0,0,.11-1.62,7.1,7.1,0,0,0-.37-1.46,6.3,6.3,0,0,0-.71-1.3,3.87,3.87,0,0,0-1.13-1.15C395.28,446.73,395.35,446.62,395.43,446.66Z" style="fill:#a6a6a6"></path><path d="M409,348.86c-.42-5.87-6.24-30.17-17.73-37.08-2-1.18-4.5,16.47-4.5,16.47s-10.73-3.9-15.9-3.83-25.49,21.86-26.79,26.8,12.69,25.57,12.69,25.57-13.15,11.66-23.28,20.78c-7.33,6.59-14.79,45.07-14,49.24s28.82,7.38,33.33,6.83,26.34-29.69,36.49-37.78c5.44-4.33,14.43-6.23,16.33-18.81S409.56,356,409,348.86Z" style="fill:#a6a6a6"></path><path d="M385,397.47c-.67,3.25-5.46,47.8-5.48,48.46s4,2.36,4.75,3.77,1.52,3.85,1,4.48-5.38,1.56-6.84,1.73-8.57-1.87-9.64-2.46-1.47-5.17-1.58-5.75-6.86-32.15-6.56-35.17S385,397.47,385,397.47Z" style="fill:#a6a6a6"></path><path d="M382.71,414c.37-2.95.86-5.87,1.26-8.81,0-.07.12-.07.11,0-.12,2-.22,4-.38,6,.13-.42.27-.84.39-1.26.29-1.08.55-2.18.74-3.29,0,0,.08,0,.08,0a19,19,0,0,1-.53,3.35,15.28,15.28,0,0,1-.78,2.37c-.05.59-.11,1.19-.17,1.78a56.78,56.78,0,0,1-1.43,8.7.07.07,0,0,1-.13,0A78.45,78.45,0,0,1,382.71,414Z" style="fill:#a6a6a6"></path><path d="M359.42,418.94c.5,1.42,1,2.84,1.63,4.23.21.5.46,1,.7,1.49-.49-2.4-.95-4.81-1.36-7.23a0,0,0,1,1,.09,0c1.12,4,2.1,8,3.06,12.08.47,2,.95,4,1.35,6a42.52,42.52,0,0,1,1,6c0,.07-.1.09-.12,0a42.48,42.48,0,0,1-1.65-5.86c-.51-2-.93-4-1.35-6-.27-1.27-.54-2.54-.8-3.8-.14-.34-.32-.67-.49-1-.32-.64-.62-1.3-.91-2a23.65,23.65,0,0,1-1.28-4C359.3,418.89,359.39,418.87,359.42,418.94Z" style="fill:#a6a6a6"></path><path d="M382.11,449.41a5.2,5.2,0,0,1,1.28.88,4.44,4.44,0,0,1,.83,1.4,5.15,5.15,0,0,1,.3,1.77,2.19,2.19,0,0,1-.37,1.46.11.11,0,0,1-.18-.11,9.07,9.07,0,0,0-.52-2.94,5.59,5.59,0,0,0-.52-1.21,3,3,0,0,0-.89-1.14C382,449.47,382,449.36,382.11,449.41Z" style="fill:#a6a6a6"></path><path d="M378.1,450.06a6,6,0,0,1,1.46.92,4.48,4.48,0,0,1,1,1.45,3.19,3.19,0,0,1-.3,3.33s-.13,0-.11-.06a3,3,0,0,0,.11-1.63,6.26,6.26,0,0,0-.37-1.46,6.45,6.45,0,0,0-.7-1.29,3.79,3.79,0,0,0-1.14-1.15A.07.07,0,1,1,378.1,450.06Z" style="fill:#a6a6a6"></path><path d="M332.18,419.44c3.09-4.44,24-18.13,31.29-13s9,27.62-7.05,43.43c0,0,4.57.67,6,1.61s3.1,4.24,2.45,5.06-6.49,2.17-8,2.24a71.71,71.71,0,0,1-12.1-2.46c-1.32-.63-1-3.11-1-3.11s-17.91-.92-21.39-4.2S327.44,426.23,332.18,419.44Z" style="fill:#a6a6a6"></path><path d="M360.92,452.18a5.43,5.43,0,0,1,1.28.89,4.33,4.33,0,0,1,.83,1.4,5.07,5.07,0,0,1,.3,1.77,2.17,2.17,0,0,1-.37,1.45c-.07.09-.22,0-.18-.1a9,9,0,0,0-.52-2.94,6.13,6.13,0,0,0-.52-1.21,3,3,0,0,0-.89-1.15C360.78,452.25,360.85,452.14,360.92,452.18Z" style="fill:#a6a6a6"></path><path d="M356.91,452.83a5.69,5.69,0,0,1,1.45.93,4.25,4.25,0,0,1,1,1.45,3.19,3.19,0,0,1-.3,3.33.07.07,0,0,1-.11-.07,3,3,0,0,0,.11-1.62,6.51,6.51,0,0,0-.37-1.46,6.26,6.26,0,0,0-.7-1.3,3.91,3.91,0,0,0-1.14-1.15C356.76,452.9,356.83,452.79,356.91,452.83Z" style="fill:#a6a6a6"></path><path d="M334.82,416.71a44.6,44.6,0,0,1,5.69-4.78l-.47.17c-.93.38-1.86.78-2.78,1.19-.06,0-.13-.05-.07-.1a7.31,7.31,0,0,1,2.66-1.53c.5-.15,1-.28,1.52-.38h.07a44.56,44.56,0,0,1,7.51-4c4.78-2,11.32-4.29,15.47.18a16.48,16.48,0,0,1,3.5,7.34,31.5,31.5,0,0,1,.86,9.23,43.8,43.8,0,0,1-5.13,17.72,20.4,20.4,0,0,1-5.75,7.13,18,18,0,0,1-3.77,2.19,20.18,20.18,0,0,1-4.24,1.16c-.08,0-.11-.11,0-.13a18,18,0,0,0,6.77-3.22,19.42,19.42,0,0,0,5.21-5.76,45,45,0,0,0,3.69-8.12,41,41,0,0,0,2.05-8.46,32.14,32.14,0,0,0-.08-9,21.21,21.21,0,0,0-2.63-7.8,7.46,7.46,0,0,0-6.08-3.81c-2.73-.11-5.45.86-8,1.77a52.87,52.87,0,0,0-15.89,9.21A.07.07,0,0,1,334.82,416.71Z" style="fill:#a6a6a6"></path><path d="M323.55,440.58c-.55-.16-9.11-1-11.05-12.5s12.65-26.39,10.71-44.6-9.64-25.91-16.3-22.82c-7,3.27,0,16.51,3.5,23.33,5.54,10.65-2.46,25-4,36.44-1.43,10.78,4,24.7,16.08,26.38Z" style="fill:#a6a6a6"></path><path d="M317,437.31l.62,8a15.82,15.82,0,0,0,4.94,1.51l1.05-6.23A12.48,12.48,0,0,1,317,437.31Z" style="fill:#a6a6a6"></path><path d="M400.23,335s-2.89-14.08-9.39-18.77c-.48-.36-2.86,12.69-2.53,12.79C394.07,330.73,400.23,335,400.23,335Z" style="fill:#a6a6a6"></path></g><g id="freepik--food-bag--inject-70"><polygon points="43.23 464.86 253.54 464.86 253.54 215.63 276.44 119.17 75.68 119.17 43.23 215.63 43.23 464.86" style="fill:#455a64"></polygon><polygon points="43.23 464.86 253.54 464.86 253.54 215.63 276.44 119.17 75.68 119.17 43.23 215.63 43.23 464.86" style="opacity:0.2"></polygon><path d="M276.44,119.17l-22.9,96.46V464.86H104.22S93.64,293.49,92.8,279.38s-5.72-87.13-19.89-92.1c-8-2.81-16.93,11-29.67,28.35l32.44-96.46Z" style="opacity:0.1"></path><path d="M73.66,319.82q.44,14.54.48,29.05c.06,9.68,0,19.36-.07,29s-.26,19.36-.51,29-.59,19.36-1.08,29Q72,421.46,72,406.93c-.06-9.68,0-19.36.07-29s.26-19.36.52-29S73.17,329.5,73.66,319.82Z" style="opacity:0.1"></path><path d="M75.68,119.17c.15,7.71.17,15.41.26,23.11l0,23.1c0,15.4-.16,30.8-.23,46.2-.23,15.4-.38,30.8-.7,46.19l-.51,23.1c-.24,7.7-.42,15.39-.72,23.09-.15-7.7-.17-15.4-.26-23.1l0-23.1c0-15.4.15-30.8.23-46.2.24-15.4.38-30.8.7-46.2L75,142.27C75.21,134.57,75.38,126.87,75.68,119.17Z" style="opacity:0.1"></path><path d="M43.23,464.86c2.3-2.23,4.67-4.37,7-6.55S55,454,57.36,451.9s4.8-4.22,7.21-6.32l7.27-6.23.62-.53.64.5L81,445.54c2.61,2.11,5.24,4.19,7.83,6.32s5.18,4.26,7.75,6.41,5.13,4.34,7.63,6.59c-2.79-1.88-5.49-3.87-8.24-5.8s-5.43-3.94-8.11-5.95-5.36-4-8-6.06l-8-6.16,1.26,0L65.77,447c-2.46,2-4.92,4.06-7.42,6.06s-5,4-7.5,6S45.81,463,43.23,464.86Z" style="opacity:0.1"></path><polygon points="299.11 464.86 98.35 464.86 98.35 215.63 75.45 119.17 276.21 119.17 299.11 215.63 299.11 464.86" style="fill:#455a64"></polygon><rect x="75.45" y="92.3" width="200.99" height="26.87" style="fill:#455a64"></rect><rect x="75.45" y="92.3" width="200.99" height="26.87" style="fill:#fff;opacity:0.1"></rect><polygon points="152.86 191.62 131.57 179.56 115.41 191.62 100.01 119.17 137.46 119.17 152.86 191.62" style="fill:#FFC727"></polygon><path d="M125.44,160.79a9,9,0,0,1,3.19,5.07,6.09,6.09,0,0,1-1,5A5.68,5.68,0,0,1,123,173h-.06a8.59,8.59,0,0,1-5.46-2.1,1.66,1.66,0,0,1-.49-2.31,1.63,1.63,0,0,1,2.3,0,4.65,4.65,0,0,0,3,1.15,3,3,0,0,0,2.49-1.15,3.3,3.3,0,0,0,.57-2.74,4.81,4.81,0,0,0-1.74-2.77,4.57,4.57,0,0,0-3-1.12,3.09,3.09,0,0,0-2.53,1.12,1.61,1.61,0,0,1-2.3,0c-.15-.11-.26-.26-.4-.37s0-.09,0-.09a.23.23,0,0,0-.09-.14c0-.09-.06-.15-.07-.2s0,0,0-.06a1.38,1.38,0,0,1-.1-.49l-.73-7.47a1.39,1.39,0,0,1,.48-1.15c.05,0,.08,0,.1-.06s0,0,.08-.06a1.41,1.41,0,0,1,.71-.17h8.5a2.12,2.12,0,0,1,2,1.64,1.29,1.29,0,0,1-1.3,1.62h-7.1l.27,2.85a6.87,6.87,0,0,1,1.87-.26A8.62,8.62,0,0,1,125.44,160.79Z" style="fill:#fff"></path><path d="M132.57,172l-2.39-11.24a.83.83,0,0,1,.83-1.06,1.4,1.4,0,0,1,1.28,1.06l1.17,5.52,4.9-6.25a1,1,0,0,1,1.5,0,1.14,1.14,0,0,1,.32,1.5l-3.33,4.21,5.45,5.59a1,1,0,0,1,.16,1.48.8.8,0,0,1-.62.25,1.31,1.31,0,0,1-.87-.38l-5.31-5.44-1.56,2,.58,2.73a.83.83,0,0,1-.83,1.06A1.36,1.36,0,0,1,132.57,172Z" style="fill:#fff"></path><g style="opacity:0.1"><path d="M254.51,267.68c.71-1.26,1.25-2.6,1.87-3.91A41.37,41.37,0,0,0,259,253.63a14,14,0,0,0,0-2.9,5,5,0,0,0-5.15-4.8,14.92,14.92,0,0,0-6.43,1.19c-4.48,1.79-8.47,4.32-11,8.54a15,15,0,0,0-1.34,13.61c2,5.3,7.34,7.37,12.51,5A15.07,15.07,0,0,0,254.51,267.68Z"></path><path d="M272.92,284.88a15.15,15.15,0,0,0,8.8-12.6,22.28,22.28,0,0,0-4-15.15,10.8,10.8,0,0,0-2-2.12,4.84,4.84,0,0,0-6.36-.25,17.14,17.14,0,0,0-5,5.94c-1,1.71-1.86,3.48-2.78,5.23a19.47,19.47,0,0,0-2.11,10.41,11.61,11.61,0,0,0,2.54,6.41A8.75,8.75,0,0,0,272.92,284.88Z"></path><path d="M274.59,308.72c5.54-.14,9.62-2.85,12.36-7.61a14.06,14.06,0,0,0,.72-1.69A18.86,18.86,0,0,0,289,288.53a9,9,0,0,0-.26-1c-1.09-3.42-3.48-4.75-7-3.85a19.67,19.67,0,0,0-6.9,3.61c-2.73,2.06-5.36,4.23-7,7.35a12.38,12.38,0,0,0-1.56,6.06A7.83,7.83,0,0,0,274.59,308.72Z"></path><path d="M215.88,295.61c-.26.46-.48.94-.79,1.56-1.82,4.83-.66,9.21,2.87,13,3.73,4,8.52,5.86,13.86,6.3a15.62,15.62,0,0,1,9.26,3.88A20.77,20.77,0,0,0,255,325.87c4.5,0,8.28-1.62,10.77-5.54a12.69,12.69,0,0,0,1.5-10,25.43,25.43,0,0,0-2-5.53,38.87,38.87,0,0,1-3.89-12.16,15,15,0,0,0-17.82-12.79,14.64,14.64,0,0,0-7,3.43,20.59,20.59,0,0,1-9.26,4.68,17.59,17.59,0,0,0-10.7,6.56A9.88,9.88,0,0,0,215.88,295.61Z"></path><path d="M214.29,268.09c-2.31,5.7-1.86,10.64,1.44,15.19s9.07,5,12.92.94a12.14,12.14,0,0,0,2.85-5c1.3-4.44.71-8.87-.31-13.24a17.56,17.56,0,0,0-1.76-4.47c-1.62-2.9-4.26-3.64-7.24-2.19a15.79,15.79,0,0,0-6.13,5.73C215.31,266.15,214.7,267.37,214.29,268.09Z"></path></g><g style="opacity:0.1"><path d="M146.19,366.63c0-.87-.09-1.74-.14-2.61a25,25,0,0,0-1.53-6.16,9.22,9.22,0,0,0-.86-1.53,3.06,3.06,0,0,0-4.13-1.06,9,9,0,0,0-3.07,2.49,12.93,12.93,0,0,0-3.38,7.72,9.11,9.11,0,0,0,3.23,7.62,5.37,5.37,0,0,0,8.1-1A9.19,9.19,0,0,0,146.19,366.63Z"></path><path d="M160.94,370.45a9.16,9.16,0,0,0,1-9.24,13.45,13.45,0,0,0-6.51-6.89,6.18,6.18,0,0,0-1.67-.55,2.91,2.91,0,0,0-3.45,1.7,10.47,10.47,0,0,0-.94,4.61c0,1.19,0,2.38,0,3.57a11.89,11.89,0,0,0,1.89,6.15,7.06,7.06,0,0,0,3.2,2.67A5.28,5.28,0,0,0,160.94,370.45Z"></path><path d="M168.72,382.64a8.47,8.47,0,0,0,4.37-7.62,10.22,10.22,0,0,0-.1-1.1,11.49,11.49,0,0,0-2.43-6.19,4,4,0,0,0-.44-.48,3.14,3.14,0,0,0-4.81,0,11.8,11.8,0,0,0-2.62,3.91,13.78,13.78,0,0,0-1.6,5.93,7.47,7.47,0,0,0,.93,3.67A4.73,4.73,0,0,0,168.72,382.64Z"></path><path d="M133.73,392.64c0,.32,0,.64,0,1.06a7.17,7.17,0,0,0,5.28,6.08,12.46,12.46,0,0,0,9.19-.66,9.45,9.45,0,0,1,6-.62,12.51,12.51,0,0,0,9-1.09,7.21,7.21,0,0,0,4.12-6.05,7.67,7.67,0,0,0-2.07-5.73,15.3,15.3,0,0,0-2.67-2.35,23.83,23.83,0,0,1-5.59-5.34,9.1,9.1,0,0,0-13.17-1.65,8.81,8.81,0,0,0-2.74,3.85,12.55,12.55,0,0,1-3.57,5.17,10.59,10.59,0,0,0-3.79,6.58A4.74,4.74,0,0,0,133.73,392.64Z"></path><path d="M124.93,378.47c.42,3.7,2.09,6.2,5.15,7.66a4.87,4.87,0,0,0,7.14-3.23,7.27,7.27,0,0,0,.06-3.5,15.43,15.43,0,0,0-4-6.95,10.76,10.76,0,0,0-2.23-1.86,3,3,0,0,0-4.48.93,9.64,9.64,0,0,0-1.6,4.82C124.91,377.15,124.94,378,124.93,378.47Z"></path></g><g style="opacity:0.1"><path d="M180.78,155.69c-.21-1.13-.56-2.25-.84-3.37a33.36,33.36,0,0,0-3.58-7.62,11,11,0,0,0-1.51-1.77,4,4,0,0,0-5.64-.33,12,12,0,0,0-3.36,4c-1.86,3.4-3,7-2.43,10.91a12.09,12.09,0,0,0,6.14,9.11,7.13,7.13,0,0,0,10.31-3.31A12.12,12.12,0,0,0,180.78,155.69Z"></path><path d="M201,156.9a12.18,12.18,0,0,0-1-12.3,17.88,17.88,0,0,0-10.24-7.31,8.56,8.56,0,0,0-2.31-.29,3.87,3.87,0,0,0-4.06,3.1,13.8,13.8,0,0,0,0,6.23c.27,1.56.64,3.1,1,4.65a15.73,15.73,0,0,0,4,7.52,9.41,9.41,0,0,0,4.86,2.67A7,7,0,0,0,201,156.9Z"></path><path d="M214.22,170.78a11.25,11.25,0,0,0,3.74-11,12,12,0,0,0-.42-1.41,15.18,15.18,0,0,0-4.73-7.44,8.44,8.44,0,0,0-.7-.52c-2.43-1.55-4.59-1.15-6.28,1.19a15.81,15.81,0,0,0-2.41,5.76,18.34,18.34,0,0,0-.57,8.13A9.92,9.92,0,0,0,205,170,6.29,6.29,0,0,0,214.22,170.78Z"></path><path d="M171.19,192.75c.08.41.19.82.32,1.37,1.35,3.92,4.31,6,8.43,6.56a16.5,16.5,0,0,0,11.79-3.2,12.53,12.53,0,0,1,7.71-2.35,16.69,16.69,0,0,0,11.45-3.71c2.77-2.31,4.29-5.25,3.82-8.94a10.16,10.16,0,0,0-4.17-6.93,19.83,19.83,0,0,0-4.08-2.39,31.35,31.35,0,0,1-8.63-5.52,12.08,12.08,0,0,0-17.57,1.21,11.73,11.73,0,0,0-2.59,5.72,16.58,16.58,0,0,1-3.33,7.64,14.1,14.1,0,0,0-3.26,9.54A8.49,8.49,0,0,0,171.19,192.75Z"></path><path d="M156.12,176.54c1.49,4.71,4.3,7.54,8.66,8.66s8.18-1.55,8.48-6a9.78,9.78,0,0,0-.81-4.56c-1.48-3.42-4.11-5.85-7-8a13.91,13.91,0,0,0-3.38-1.86c-2.48-1-4.49-.07-5.59,2.35a12.74,12.74,0,0,0-.86,6.68C155.75,174.83,156,175.89,156.12,176.54Z"></path></g><path d="M107.39,216.05q23-.87,45.91-1.17c7.65-.14,15.3-.17,22.95-.25l22.95-.08,23,.08c7.65.08,15.3.11,22.95.25q22.95.28,45.91,1.17-23,.87-45.91,1.17c-7.65.14-15.3.16-22.95.25l-23,.08-22.95-.09c-7.65-.08-15.3-.11-22.95-.25Q130.35,216.93,107.39,216.05Z" style="fill:#fff;opacity:0.2"></path><path d="M236.63,414.54s8.73,25.31,13,35.58a13.18,13.18,0,0,0,3.24,4.38c.73.73,29.19.11,29.71,0s-3-6.93-5-7.87-17,1.83-17,1.83-.56-29.72-.38-30.62a26.47,26.47,0,0,0,.14-3.3l.35,4.55a29.14,29.14,0,0,0,1-5c0-1.56-.94-17-.94-17Z" style="fill:#455a64"></path><path d="M236.63,414.54s8.73,25.31,13,35.58a13.18,13.18,0,0,0,3.24,4.38c.73.73,29.19.11,29.71,0s-3-6.93-5-7.87-17,1.83-17,1.83-.56-29.72-.38-30.62a26.47,26.47,0,0,0,.14-3.3l.35,4.55a29.14,29.14,0,0,0,1-5c0-1.56-.94-17-.94-17Z" style="fill:#455a64;opacity:0.4"></path><path d="M276,450c1.48.95,3.08,2.82,2.47,4.69-.1-1.89-1.44-3.21-2.47-4.69Z" style="fill:#455a64"></path><path d="M278.88,449.79c1.48.95,3.09,2.83,2.48,4.69-.1-1.88-1.45-3.2-2.48-4.69Z" style="fill:#455a64"></path><path d="M261.18,403c-2.76,5.39-6.83,11.14-8.23,12.34A107.19,107.19,0,0,1,240,424.19c-2-5.56-3.38-9.65-3.38-9.65l24.19-17.45S261,399.77,261.18,403Z" style="fill:#455a64;opacity:0.1"></path><path d="M148,433.27,146.3,440c-14-10.81-27.35-28.27-32.35-44.87-1.08-3.6-3.55-11.39-3.6-14.6,0-3.37,1.73-8.23,1.88-8.62a33.55,33.55,0,0,0,0,8.56c0-.6.07-1.2.14-1.79,2.13-19.44,29.43-36.17,29.43-36.17a84.8,84.8,0,0,0-11.72,47.06c.55,9.47,3.94,18.88,7.62,26.53A76.61,76.61,0,0,1,134.34,406c.29.67,7.88,18.54,10.72,23.08l.29.44a2.82,2.82,0,0,1,.19.29C147,432,148,433.27,148,433.27Z" style="fill:#455a64"></path><path d="M148,433.27,146.3,440c-14-10.81-27.35-28.27-32.35-44.87-1.08-3.6-3.55-11.39-3.6-14.6,0-3.37,1.73-8.23,1.88-8.62a33.55,33.55,0,0,0,0,8.56c0-.6.07-1.2.14-1.79,2.13-19.44,29.43-36.17,29.43-36.17a84.8,84.8,0,0,0-11.72,47.06c.55,9.47,3.94,18.88,7.62,26.53A76.61,76.61,0,0,1,134.34,406c.29.67,7.88,18.54,10.72,23.08l.29.44a2.82,2.82,0,0,1,.19.29C147,432,148,433.27,148,433.27Z" style="fill:#455a64;opacity:0.4"></path><path d="M148,433.27,146.3,440c-1.78-1.37-3.55-2.85-5.29-4.42l2.62-9.11c.55,1.07,1,2,1.43,2.6l.29.44a2.82,2.82,0,0,1,.19.29C147,432,148,433.27,148,433.27Z" style="fill:#455a64;opacity:0.1"></path><path d="M209.81,347a52.89,52.89,0,0,1-5.32-12.64c-1.46-6.19-1.26-16.45,3-21.41s31.82-15.9,37.3-12.53,10.58,12.1,10.58,12.1,27-3.94,27.87-2.37-2.07,15.8-8.75,20.87-23.7,8-23.7,8a13.51,13.51,0,0,0,1.42,2.89c-14.09,3.3-27.95,7.37-41.79,11.58C210.14,351.16,209.92,349,209.81,347Z" style="fill:#455a64"></path><path d="M210.13,348.43a10,10,0,0,1-.4,2.53c-.83,2.71-22,31.81-25.85,34.67S158.65,396.31,154,404.34s-11.15,26-10.21,38.58c.18,2.39-.32,11.47,8.76,11.47h44.83c5.83,0,46.85-33.69,53.76-41.5s12.86-17.2,13.69-24.71c.74-6.68-5.47-34.4-12.95-51.67C237.82,340.14,223.88,343.9,210.13,348.43Z" style="fill:#455a64"></path><path d="M210.13,348.43a10,10,0,0,1-.4,2.53c-.83,2.71-22,31.81-25.85,34.67S158.65,396.31,154,404.34s-11.15,26-10.21,38.58c.18,2.39-.32,11.47,8.76,11.47h44.83c5.83,0,46.85-33.69,53.76-41.5s12.86-17.2,13.69-24.71c.74-6.68-5.47-34.4-12.95-51.67C237.82,340.14,223.88,343.9,210.13,348.43Z" style="fill:#455a64"></path><path d="M209.81,347a52.89,52.89,0,0,1-5.32-12.64c-1.46-6.19-1.26-16.45,3-21.41s31.82-15.9,37.3-12.53,10.58,12.1,10.58,12.1,27-3.94,27.87-2.37-2.07,15.8-8.75,20.87-23.7,8-23.7,8a13.51,13.51,0,0,0,1.42,2.89c-14.09,3.3-27.95,7.37-41.79,11.58C210.14,351.16,209.92,349,209.81,347Z" style="fill:#455a64"></path><path d="M245.54,375.26a27.29,27.29,0,0,0,.65-8.78.26.26,0,0,1,.45-.19l1.86,2c0-.18,0-.35,0-.53-.05-.59-.13-1.18-.23-1.77a21.53,21.53,0,0,0-.93-3.46,20.72,20.72,0,0,0-1.49-3.25c-.6-1.05-1.31-2-2-3,0,0,.05-.1.09-.06a14.18,14.18,0,0,1,2.45,2.87,19.55,19.55,0,0,1,1.74,3.17,18.45,18.45,0,0,1,1.11,3.47c.13.62.23,1.25.3,1.88a5.22,5.22,0,0,1,0,1.85c-.1.41-.69.35-.86.06s-1.67-2.09-1.91-2.36a18.1,18.1,0,0,1-1,8.14C245.73,375.43,245.52,375.38,245.54,375.26Z" style="fill:#455a64;opacity:0.1"></path><path d="M209.59,344.91c-.39.16-1.22.47-2.38.89Z" style="fill:#455a64;opacity:0.1"></path><path d="M196.28,449.16s-1.19,4.24-.27,5.16,39.82.46,39.89,0-6-8.65-9.8-9.07-16,3.13-16,3.13,22.36-27.82,15.8-44.45c-2.88-7.32-20.18-10.17-42.36-1.22C163.35,410.85,168.2,447,179.25,451S196.28,449.16,196.28,449.16Z" style="fill:#455a64"></path><path d="M196.28,449.16s-1.19,4.24-.27,5.16,39.82.46,39.89,0-6-8.65-9.8-9.07-16,3.13-16,3.13,22.36-27.82,15.8-44.45c-2.88-7.32-20.18-10.17-42.36-1.22C163.35,410.85,168.2,447,179.25,451S196.28,449.16,196.28,449.16Z" style="fill:#455a64;opacity:0.30000000000000004"></path><path d="M228,450c1.48.95,3.09,2.82,2.47,4.69-.1-1.89-1.44-3.21-2.47-4.69Z" style="fill:#455a64"></path><path d="M231,449.79c1.48.95,3.09,2.83,2.47,4.69-.1-1.88-1.44-3.2-2.47-4.69Z" style="fill:#455a64"></path><path d="M210.12,384.9s14.73,10,23.14,11.66,25.09-11.34,25.09-11.34,6.49,10.13,7.48,11.34,6.28,1.9,7.26.9.9-5.66,0-8.23-10.64-13.76-14.53-13.41-15.22,6.16-16.05,6c-1.32-.18-8.58-9-13.91-15.85" style="fill:#455a64"></path><path d="M269,393.34c1.48,1,3.09,2.82,2.47,4.69-.1-1.89-1.44-3.21-2.47-4.69Z" style="fill:#455a64"></path><path d="M271.85,391.73c1.21,1.36,2.48,3.79,1.35,5.5.43-2-.7-3.7-1.35-5.5Z" style="fill:#455a64"></path><path d="M213.52,387.49a176.06,176.06,0,0,0,16.91,7.83l1.45.47,1.1.28c7.53,1.13,19-6.92,25.37-10.85a78.13,78.13,0,0,1-15.86,9.95c-3.12,1.28-6.66,2.52-10.09,1.69a42.77,42.77,0,0,1-8-3.26c-3.74-1.85-7.35-3.91-10.88-6.11Z" style="fill:#455a64"></path><path d="M256.89,383c2.24,3.27,4.56,6.75,6.59,10.15A47.76,47.76,0,0,1,256.89,383Z" style="fill:#455a64"></path><path d="M215.68,390.31c1.95.38,3.77.94,5.7,1.41a9.8,9.8,0,0,1-5.7-1.41Z" style="fill:#455a64"></path><path d="M230.53,368.46l6.88,7.77a41.37,41.37,0,0,0,5.09,5.16,22,22,0,0,0,2.35-.94c3.17-1.36,6.34-2.79,9.63-3.93a16.94,16.94,0,0,1,3.84-1,2.84,2.84,0,0,1,1.37.28,16.48,16.48,0,0,1,4.34,2.9,18.68,18.68,0,0,0-4.5-2.47,2.44,2.44,0,0,0-1.16-.17,18.61,18.61,0,0,0-3.63,1.13c-2.78,1.1-6.74,2.9-9.51,4.11a25.94,25.94,0,0,1-2.5,1,.89.89,0,0,1-.6-.06,8.55,8.55,0,0,1-1.85-1.59c-1.2-1.27-2.33-2.59-3.43-3.93-2.21-2.68-4.3-5.44-6.32-8.25Z" style="fill:#455a64"></path><path d="M233.47,370.05a5.93,5.93,0,0,1,1.82,4.25c-.58-1.48-1.28-2.76-1.82-4.25Z" style="fill:#455a64"></path><path d="M210.57,310.79c-5.82,3.74-12.93,23.8-18.92,29.75s-19.3-.29-18.48-10.74,16.59-23.72,23.51-23.64S210.57,310.79,210.57,310.79Z" style="fill:#455a64"></path><path d="M284.4,309.15c.81,1.09-1.56,7.74-3.77,8.72s-8-4.24-8-6.13S283.37,307.76,284.4,309.15Z" style="fill:#455a64"></path><path d="M280.68,316.21c-.89,2.22-3,9.35-5.59,9.43-2.28,0-4.07-2.07-5.49-3.65,1.27,1.83,3.06,4.08,5.52,4.1,3.14-.14,4.92-7.31,5.56-9.88Z" style="fill:#455a64"></path><path d="M280.36,322a9.32,9.32,0,0,1-1.35,2.18c.06,0,.1,0,.09,0,.17-2.4,1-4.72,1.32-7.12A29,29,0,0,0,279,322a6.29,6.29,0,0,0-.19,2.32c.61.95,1.47-1.91,1.6-2.33Z" style="fill:#455a64"></path><g style="opacity:0.30000000000000004"><path d="M236.63,414.54s8.73,25.31,13,35.58a13.18,13.18,0,0,0,3.24,4.38c.73.73,29.19.11,29.71,0s-3-6.93-5-7.87-17,1.83-17,1.83-.56-29.72-.38-30.62a26.47,26.47,0,0,0,.14-3.3l.35,4.55a29.14,29.14,0,0,0,1-5c0-1.56-.94-17-.94-17Z"></path><path d="M236.63,414.54s8.73,25.31,13,35.58a13.18,13.18,0,0,0,3.24,4.38c.73.73,29.19.11,29.71,0s-3-6.93-5-7.87-17,1.83-17,1.83-.56-29.72-.38-30.62a26.47,26.47,0,0,0,.14-3.3l.35,4.55a29.14,29.14,0,0,0,1-5c0-1.56-.94-17-.94-17Z" style="opacity:0.4"></path><path d="M276,450c1.48.95,3.08,2.82,2.47,4.69-.1-1.89-1.44-3.21-2.47-4.69Z"></path><path d="M278.88,449.79c1.48.95,3.09,2.83,2.48,4.69-.1-1.88-1.45-3.2-2.48-4.69Z"></path><path d="M261.18,403c-2.76,5.39-6.83,11.14-8.23,12.34A107.19,107.19,0,0,1,240,424.19c-2-5.56-3.38-9.65-3.38-9.65l24.19-17.45S261,399.77,261.18,403Z" style="opacity:0.1"></path><path d="M148,433.27,146.3,440c-14-10.81-27.35-28.27-32.35-44.87-1.08-3.6-3.55-11.39-3.6-14.6,0-3.37,1.73-8.23,1.88-8.62a33.55,33.55,0,0,0,0,8.56c0-.6.07-1.2.14-1.79,2.13-19.44,29.43-36.17,29.43-36.17a84.8,84.8,0,0,0-11.72,47.06c.55,9.47,3.94,18.88,7.62,26.53A76.61,76.61,0,0,1,134.34,406c.29.67,7.88,18.54,10.72,23.08l.29.44a2.82,2.82,0,0,1,.19.29C147,432,148,433.27,148,433.27Z"></path><path d="M148,433.27,146.3,440c-14-10.81-27.35-28.27-32.35-44.87-1.08-3.6-3.55-11.39-3.6-14.6,0-3.37,1.73-8.23,1.88-8.62a33.55,33.55,0,0,0,0,8.56c0-.6.07-1.2.14-1.79,2.13-19.44,29.43-36.17,29.43-36.17a84.8,84.8,0,0,0-11.72,47.06c.55,9.47,3.94,18.88,7.62,26.53A76.61,76.61,0,0,1,134.34,406c.29.67,7.88,18.54,10.72,23.08l.29.44a2.82,2.82,0,0,1,.19.29C147,432,148,433.27,148,433.27Z" style="opacity:0.4"></path><path d="M148,433.27,146.3,440c-1.78-1.37-3.55-2.85-5.29-4.42l2.62-9.11c.55,1.07,1,2,1.43,2.6l.29.44a2.82,2.82,0,0,1,.19.29C147,432,148,433.27,148,433.27Z" style="opacity:0.1"></path><path d="M209.81,347a52.89,52.89,0,0,1-5.32-12.64c-1.46-6.19-1.26-16.45,3-21.41s31.82-15.9,37.3-12.53,10.58,12.1,10.58,12.1,27-3.94,27.87-2.37-2.07,15.8-8.75,20.87-23.7,8-23.7,8a13.51,13.51,0,0,0,1.42,2.89c-14.09,3.3-27.95,7.37-41.79,11.58C210.14,351.16,209.92,349,209.81,347Z"></path><path d="M210.13,348.43a10,10,0,0,1-.4,2.53c-.83,2.71-22,31.81-25.85,34.67S158.65,396.31,154,404.34s-11.15,26-10.21,38.58c.18,2.39-.32,11.47,8.76,11.47h44.83c5.83,0,46.85-33.69,53.76-41.5s12.86-17.2,13.69-24.71c.74-6.68-5.47-34.4-12.95-51.67C237.82,340.14,223.88,343.9,210.13,348.43Z"></path><path d="M210.13,348.43a10,10,0,0,1-.4,2.53c-.83,2.71-22,31.81-25.85,34.67S158.65,396.31,154,404.34s-11.15,26-10.21,38.58c.18,2.39-.32,11.47,8.76,11.47h44.83c5.83,0,46.85-33.69,53.76-41.5s12.86-17.2,13.69-24.71c.74-6.68-5.47-34.4-12.95-51.67C237.82,340.14,223.88,343.9,210.13,348.43Z"></path><path d="M209.81,347a52.89,52.89,0,0,1-5.32-12.64c-1.46-6.19-1.26-16.45,3-21.41s31.82-15.9,37.3-12.53,10.58,12.1,10.58,12.1,27-3.94,27.87-2.37-2.07,15.8-8.75,20.87-23.7,8-23.7,8a13.51,13.51,0,0,0,1.42,2.89c-14.09,3.3-27.95,7.37-41.79,11.58C210.14,351.16,209.92,349,209.81,347Z"></path><path d="M245.54,375.26a27.29,27.29,0,0,0,.65-8.78.26.26,0,0,1,.45-.19l1.86,2c0-.18,0-.35,0-.53-.05-.59-.13-1.18-.23-1.77a21.53,21.53,0,0,0-.93-3.46,20.72,20.72,0,0,0-1.49-3.25c-.6-1.05-1.31-2-2-3,0,0,.05-.1.09-.06a14.18,14.18,0,0,1,2.45,2.87,19.55,19.55,0,0,1,1.74,3.17,18.45,18.45,0,0,1,1.11,3.47c.13.62.23,1.25.3,1.88a5.22,5.22,0,0,1,0,1.85c-.1.41-.69.35-.86.06s-1.67-2.09-1.91-2.36a18.1,18.1,0,0,1-1,8.14C245.73,375.43,245.52,375.38,245.54,375.26Z" style="opacity:0.1"></path><path d="M209.59,344.91c-.39.16-1.22.47-2.38.89Z" style="opacity:0.1"></path><path d="M196.28,449.16s-1.19,4.24-.27,5.16,39.82.46,39.89,0-6-8.65-9.8-9.07-16,3.13-16,3.13,22.36-27.82,15.8-44.45c-2.88-7.32-20.18-10.17-42.36-1.22C163.35,410.85,168.2,447,179.25,451S196.28,449.16,196.28,449.16Z"></path><path d="M196.28,449.16s-1.19,4.24-.27,5.16,39.82.46,39.89,0-6-8.65-9.8-9.07-16,3.13-16,3.13,22.36-27.82,15.8-44.45c-2.88-7.32-20.18-10.17-42.36-1.22C163.35,410.85,168.2,447,179.25,451S196.28,449.16,196.28,449.16Z" style="opacity:0.30000000000000004"></path><path d="M228,450c1.48.95,3.09,2.82,2.47,4.69-.1-1.89-1.44-3.21-2.47-4.69Z"></path><path d="M231,449.79c1.48.95,3.09,2.83,2.47,4.69-.1-1.88-1.44-3.2-2.47-4.69Z"></path><path d="M210.12,384.9s14.73,10,23.14,11.66,25.09-11.34,25.09-11.34,6.49,10.13,7.48,11.34,6.28,1.9,7.26.9.9-5.66,0-8.23-10.64-13.76-14.53-13.41-15.22,6.16-16.05,6c-1.32-.18-8.58-9-13.91-15.85"></path><path d="M269,393.34c1.48,1,3.09,2.82,2.47,4.69-.1-1.89-1.44-3.21-2.47-4.69Z"></path><path d="M271.85,391.73c1.21,1.36,2.48,3.79,1.35,5.5.43-2-.7-3.7-1.35-5.5Z"></path><path d="M213.52,387.49a176.06,176.06,0,0,0,16.91,7.83l1.45.47,1.1.28c7.53,1.13,19-6.92,25.37-10.85a78.13,78.13,0,0,1-15.86,9.95c-3.12,1.28-6.66,2.52-10.09,1.69a42.77,42.77,0,0,1-8-3.26c-3.74-1.85-7.35-3.91-10.88-6.11Z"></path><path d="M256.89,383c2.24,3.27,4.56,6.75,6.59,10.15A47.76,47.76,0,0,1,256.89,383Z"></path><path d="M215.68,390.31c1.95.38,3.77.94,5.7,1.41a9.8,9.8,0,0,1-5.7-1.41Z"></path><path d="M230.53,368.46l6.88,7.77a41.37,41.37,0,0,0,5.09,5.16,22,22,0,0,0,2.35-.94c3.17-1.36,6.34-2.79,9.63-3.93a16.94,16.94,0,0,1,3.84-1,2.84,2.84,0,0,1,1.37.28,16.48,16.48,0,0,1,4.34,2.9,18.68,18.68,0,0,0-4.5-2.47,2.44,2.44,0,0,0-1.16-.17,18.61,18.61,0,0,0-3.63,1.13c-2.78,1.1-6.74,2.9-9.51,4.11a25.94,25.94,0,0,1-2.5,1,.89.89,0,0,1-.6-.06,8.55,8.55,0,0,1-1.85-1.59c-1.2-1.27-2.33-2.59-3.43-3.93-2.21-2.68-4.3-5.44-6.32-8.25Z"></path><path d="M233.47,370.05a5.93,5.93,0,0,1,1.82,4.25c-.58-1.48-1.28-2.76-1.82-4.25Z"></path><path d="M210.57,310.79c-5.82,3.74-12.93,23.8-18.92,29.75s-19.3-.29-18.48-10.74,16.59-23.72,23.51-23.64S210.57,310.79,210.57,310.79Z"></path><path d="M284.4,309.15c.81,1.09-1.56,7.74-3.77,8.72s-8-4.24-8-6.13S283.37,307.76,284.4,309.15Z"></path><path d="M280.68,316.21c-.89,2.22-3,9.35-5.59,9.43-2.28,0-4.07-2.07-5.49-3.65,1.27,1.83,3.06,4.08,5.52,4.1,3.14-.14,4.92-7.31,5.56-9.88Z"></path><path d="M280.36,322a9.32,9.32,0,0,1-1.35,2.18c.06,0,.1,0,.09,0,.17-2.4,1-4.72,1.32-7.12A29,29,0,0,0,279,322a6.29,6.29,0,0,0-.19,2.32c.61.95,1.47-1.91,1.6-2.33Z"></path></g><path d="M118.15,257.27V234.13A2.12,2.12,0,0,1,120.3,232h4.63a13.73,13.73,0,0,1,0,27.45H120.3A2.15,2.15,0,0,1,118.15,257.27Zm4.35-2.19h2.43a9.38,9.38,0,0,0,0-18.75H122.5Z" style="fill:#fff"></path><path d="M124.93,260H120.3a2.69,2.69,0,0,1-2.68-2.68V234.13a2.65,2.65,0,0,1,2.68-2.68h4.63a14.25,14.25,0,0,1,0,28.5ZM120.3,232.5a1.59,1.59,0,0,0-1.63,1.63v23.14a1.64,1.64,0,0,0,1.63,1.64h4.63a13.21,13.21,0,0,0,0-26.41Zm2.2,23.1H122V235.81h3a9.9,9.9,0,0,1,0,19.79Zm.52-1h1.91a8.85,8.85,0,0,0,0-17.7H123Z" style="fill:#fff"></path><path d="M167.4,235.39a14.41,14.41,0,0,1,0,19.84,12.83,12.83,0,0,1-9.37,4.2,13.23,13.23,0,0,1-9.61-4.2,14.62,14.62,0,0,1,0-19.84,13.08,13.08,0,0,1,9.61-4.2A12.68,12.68,0,0,1,167.4,235.39Zm-.51,9.92a10.17,10.17,0,0,0-2.66-6.86,8.45,8.45,0,0,0-12.55,0,9.94,9.94,0,0,0-2.67,6.86,9.77,9.77,0,0,0,2.67,6.82,8.37,8.37,0,0,0,12.55,0A10,10,0,0,0,166.89,245.31Z" style="fill:#fff"></path><path d="M158,260a13.77,13.77,0,0,1-10-4.36A15.15,15.15,0,0,1,148,235a13.64,13.64,0,0,1,10-4.36,13.29,13.29,0,0,1,9.76,4.37,15,15,0,0,1,4.1,10.27,14.8,14.8,0,0,1-4.11,10.28A13.38,13.38,0,0,1,158,260Zm0-28.24a12.57,12.57,0,0,0-9.22,4,13.89,13.89,0,0,0-3.75,9.57,13.74,13.74,0,0,0,3.74,9.56,12.71,12.71,0,0,0,9.23,4,12.37,12.37,0,0,0,9-4,13.78,13.78,0,0,0,3.82-9.57,13.93,13.93,0,0,0-3.82-9.56h0A12.23,12.23,0,0,0,158,231.71Zm0,23.77a9,9,0,0,1-6.74-3,10.31,10.31,0,0,1-2.8-7.18,10.49,10.49,0,0,1,2.81-7.22,9,9,0,0,1,13.31,0,10.71,10.71,0,0,1,2.8,7.22,10.49,10.49,0,0,1-2.81,7.19A9,9,0,0,1,158,255.48Zm0-19.29a8,8,0,0,0-6,2.61,9.49,9.49,0,0,0-2.53,6.51,9.28,9.28,0,0,0,2.52,6.46,7.85,7.85,0,0,0,11.79,0,9.42,9.42,0,0,0,2.53-6.47,9.63,9.63,0,0,0-2.53-6.51A7.94,7.94,0,0,0,158,236.19Z" style="fill:#fff"></path><path d="M177.87,245.35a14.3,14.3,0,0,1,14.47-14.16,14.54,14.54,0,0,1,8.95,3.06,2.24,2.24,0,1,1-2.75,3.53,10.22,10.22,0,0,0-6.2-2.12,9.72,9.72,0,0,0-7.06,2.87,9.3,9.3,0,0,0,0,13.57,9.76,9.76,0,0,0,7.06,2.86,10.84,10.84,0,0,0,5.38-1.49V248.1h-5.61a2.26,2.26,0,0,1-2.24-2.24,2.2,2.2,0,0,1,2.24-2.2h7.8a2.21,2.21,0,0,1,2.28,2.2v8.67a3.23,3.23,0,0,1-.12.66c0,.08,0,.12-.08.2v0a1.87,1.87,0,0,1-.74.94,14.49,14.49,0,0,1-8.91,3.06A14.26,14.26,0,0,1,177.87,245.35Z" style="fill:#fff"></path><path d="M192.34,260a14.64,14.64,0,1,1,0-29.28,15,15,0,0,1,9.27,3.17,2.67,2.67,0,0,1,1.06,1.79,2.78,2.78,0,0,1-.54,2.11,2.81,2.81,0,0,1-3.92.45,9.68,9.68,0,0,0-5.87-2,9.23,9.23,0,0,0-6.68,2.7,8.86,8.86,0,0,0-2.79,6.46,8.75,8.75,0,0,0,2.78,6.37,9.21,9.21,0,0,0,6.69,2.72,10.17,10.17,0,0,0,4.85-1.28v-4.54h-5.08a2.8,2.8,0,0,1-2.76-2.76,2.71,2.71,0,0,1,2.76-2.72h7.72a2.76,2.76,0,0,1,2.88,2.72v8.67a2.59,2.59,0,0,1-.08.57c0,.05,0,.11,0,.18l0,.14,0,.1v.07a2.48,2.48,0,0,1-.94,1.21A14.88,14.88,0,0,1,192.34,260Zm0-28.24A13.6,13.6,0,1,0,200.93,256a1.53,1.53,0,0,0,.54-.62v0l.09-.25a2.09,2.09,0,0,0,.05-.21.89.89,0,0,0,.06-.31v-8.67a1.69,1.69,0,0,0-1.76-1.67h-7.8a1.67,1.67,0,0,0-1.71,1.67,1.73,1.73,0,0,0,1.71,1.71h6.13v6.2l-.26.15a11.4,11.4,0,0,1-5.64,1.56,10.28,10.28,0,0,1-7.43-3,9.78,9.78,0,0,1-3.09-7.11,9.88,9.88,0,0,1,3.1-7.2,10.27,10.27,0,0,1,7.42-3,10.73,10.73,0,0,1,6.52,2.23,1.7,1.7,0,0,0,1.29.36,1.73,1.73,0,0,0,1.16-.63,1.75,1.75,0,0,0,.33-1.32,1.65,1.65,0,0,0-.66-1.11A14,14,0,0,0,192.34,231.71Z" style="fill:#fff"></path><path d="M118.15,284.74V266.82a1.66,1.66,0,0,1,1.67-1.67h9.93a1.69,1.69,0,0,1,0,3.37h-8.23v5.56h7.07a1.69,1.69,0,0,1,0,3.37h-7.07v7.29a1.69,1.69,0,0,1-1.7,1.67A1.66,1.66,0,0,1,118.15,284.74Z" style="fill:#fff"></path><path d="M119.82,286.93a2.2,2.2,0,0,1-2.2-2.19V266.82a2.2,2.2,0,0,1,2.2-2.19h9.93a2.21,2.21,0,0,1,0,4.42H122v4.51h6.55a2.21,2.21,0,0,1,0,4.42H122v6.76A2.21,2.21,0,0,1,119.82,286.93Zm.09-21.25a1.17,1.17,0,0,0-1.24,1.14v17.92a1.16,1.16,0,0,0,2.32,0v-7.81h7.6a1.16,1.16,0,0,0,1.15-1.18,1.18,1.18,0,0,0-1.15-1.15H121V268h8.76a1.19,1.19,0,0,0,1.14-1.18,1.17,1.17,0,0,0-1.14-1.14Z" style="fill:#fff"></path><path d="M152.68,267.8a11.14,11.14,0,0,1,0,15.36,9.93,9.93,0,0,1-7.26,3.25,10.23,10.23,0,0,1-7.44-3.25,11.3,11.3,0,0,1,0-15.36,10.12,10.12,0,0,1,7.44-3.25A9.82,9.82,0,0,1,152.68,267.8Zm-.4,7.68a7.9,7.9,0,0,0-2.06-5.32,6.57,6.57,0,0,0-9.72,0,7.76,7.76,0,0,0-2.06,5.32,7.6,7.6,0,0,0,2.06,5.28,6.49,6.49,0,0,0,9.72,0A7.74,7.74,0,0,0,152.28,275.48Z" style="fill:#fff"></path><path d="M145.42,286.93a10.79,10.79,0,0,1-7.82-3.41,11.84,11.84,0,0,1,0-16.08,10.68,10.68,0,0,1,7.82-3.42,10.4,10.4,0,0,1,7.64,3.42,11.71,11.71,0,0,1,3.21,8,11.58,11.58,0,0,1-3.21,8A10.49,10.49,0,0,1,145.42,286.93Zm0-21.86a9.64,9.64,0,0,0-7.06,3.08,10.64,10.64,0,0,0-2.86,7.33,10.49,10.49,0,0,0,2.86,7.32,9.73,9.73,0,0,0,7.06,3.09,9.44,9.44,0,0,0,6.87-3.08,10.52,10.52,0,0,0,2.93-7.33,10.7,10.7,0,0,0-2.92-7.33h0A9.37,9.37,0,0,0,145.42,265.07Zm0,18.4a7.2,7.2,0,0,1-5.3-2.35,8.1,8.1,0,0,1-2.21-5.64,8.29,8.29,0,0,1,2.21-5.68,7.09,7.09,0,0,1,10.48,0,8.39,8.39,0,0,1,2.21,5.67,8.25,8.25,0,0,1-2.21,5.64A7.07,7.07,0,0,1,145.42,283.47Zm0-14.94a6.1,6.1,0,0,0-4.54,2,7.23,7.23,0,0,0-1.92,5,7.1,7.1,0,0,0,1.91,4.92,6.13,6.13,0,0,0,4.55,2,6.07,6.07,0,0,0,4.42-2,7.21,7.21,0,0,0,1.92-4.93,7.34,7.34,0,0,0-1.92-5A6,6,0,0,0,145.42,268.53Z" style="fill:#fff"></path><path d="M178.19,267.8a11.14,11.14,0,0,1,0,15.36,9.92,9.92,0,0,1-7.26,3.25,10.25,10.25,0,0,1-7.44-3.25,11.33,11.33,0,0,1,0-15.36,10.13,10.13,0,0,1,7.44-3.25A9.81,9.81,0,0,1,178.19,267.8Zm-.39,7.68a7.86,7.86,0,0,0-2.07-5.32,6.56,6.56,0,0,0-9.71,0,7.72,7.72,0,0,0-2.07,5.32,7.57,7.57,0,0,0,2.07,5.28,6.48,6.48,0,0,0,9.71,0A7.7,7.7,0,0,0,177.8,275.48Z" style="fill:#fff"></path><path d="M170.93,286.93a10.79,10.79,0,0,1-7.82-3.41,11.86,11.86,0,0,1,0-16.08,10.7,10.7,0,0,1,7.82-3.42,10.44,10.44,0,0,1,7.65,3.42,11.75,11.75,0,0,1,3.2,8,11.6,11.6,0,0,1-3.21,8A10.45,10.45,0,0,1,170.93,286.93Zm0-21.86a9.62,9.62,0,0,0-7.05,3.08,10.65,10.65,0,0,0-2.87,7.33,10.54,10.54,0,0,0,2.86,7.32,9.75,9.75,0,0,0,7.06,3.09,9.44,9.44,0,0,0,6.88-3.08,10.56,10.56,0,0,0,2.93-7.33,10.67,10.67,0,0,0-2.93-7.33h0A9.37,9.37,0,0,0,170.93,265.07Zm0,18.4a7.2,7.2,0,0,1-5.3-2.35,8.09,8.09,0,0,1-2.2-5.64,8.24,8.24,0,0,1,2.21-5.68,7.08,7.08,0,0,1,10.47,0,8.35,8.35,0,0,1,2.21,5.67,8.25,8.25,0,0,1-2.21,5.64A7,7,0,0,1,170.93,283.47Zm0-14.94a6.06,6.06,0,0,0-4.53,2,7.2,7.2,0,0,0-1.93,5,7.06,7.06,0,0,0,1.92,4.92,6,6,0,0,0,9,0,7.18,7.18,0,0,0,1.93-4.93,7.35,7.35,0,0,0-1.93-5A6,6,0,0,0,170.93,268.53Z" style="fill:#fff"></path><path d="M186.34,284.74V266.82a1.64,1.64,0,0,1,1.67-1.67h3.58a10.63,10.63,0,0,1,0,21.26H188A1.66,1.66,0,0,1,186.34,284.74Zm3.37-1.7h1.88a7.26,7.26,0,0,0,0-14.52h-1.88Z" style="fill:#fff"></path><path d="M191.59,286.93H188a2.2,2.2,0,0,1-2.2-2.19V266.82a2.17,2.17,0,0,1,2.2-2.19h3.58a11.15,11.15,0,0,1,0,22.3ZM188,265.68a1.12,1.12,0,0,0-1.15,1.14v17.92a1.15,1.15,0,0,0,1.15,1.15h3.58a10.11,10.11,0,0,0,0-20.21Zm1.7,17.88h-.53V268h2.41a7.78,7.78,0,0,1,0,15.56Zm.52-1h1.36a6.74,6.74,0,0,0,0-13.47h-1.36Z" style="fill:#fff"></path><rect x="98.36" y="296.65" width="67.69" height="19.1" style="fill:#fff"></rect><path d="M122.07,308.64h-3.2l-.65,1.71a.74.74,0,0,1-.68.47.66.66,0,0,1-.25-.05.73.73,0,0,1-.44-.94l2.91-7.77a.74.74,0,0,1,.7-.46.73.73,0,0,1,.7.46l2.92,7.77a.74.74,0,0,1-.44.94.62.62,0,0,1-.25.05.71.71,0,0,1-.67-.47Zm-.54-1.45-1.07-2.84-1.06,2.84Z" style="fill:#455a64"></path><path d="M125.89,310.09v-7.78a.7.7,0,0,1,.72-.72h1.56a4.62,4.62,0,0,1,0,9.23h-1.56A.73.73,0,0,1,125.89,310.09Zm1.46-.74h.82a3.15,3.15,0,0,0,0-6.3h-.82Z" style="fill:#455a64"></path><path d="M139.2,310.82a3.8,3.8,0,0,1-3.81-3.82v-4.69a.7.7,0,0,1,.72-.72.73.73,0,0,1,.74.72V307a2.35,2.35,0,1,0,4.69,0v-4.69a.72.72,0,0,1,.74-.72.71.71,0,0,1,.73.72V307A3.82,3.82,0,0,1,139.2,310.82Z" style="fill:#455a64"></path><path d="M145.5,310.09v-7.78a.72.72,0,0,1,.73-.72.73.73,0,0,1,.74.72v7h3.57a.74.74,0,0,1,0,1.47h-4.31A.73.73,0,0,1,145.5,310.09Z" style="fill:#455a64"></path><path d="M157.25,303.05h-2.09v7a.73.73,0,1,1-1.45,0v-7h-2.09a.73.73,0,0,1-.72-.74.71.71,0,0,1,.72-.72h5.63a.72.72,0,0,1,.73.72A.74.74,0,0,1,157.25,303.05Z" style="fill:#455a64"></path><path d="M210.12,119.17h66.32l22.67,96.46V324.75L288,216.05s-22.21-66.93-29.54-74.44S210.12,119.17,210.12,119.17Z" style="fill:#fff;opacity:0.2"></path></g><g id="freepik--food-cans--inject-70"><rect x="340.8" y="397.67" width="110.53" height="62.26" style="fill:#37474f"></rect><rect x="340.8" y="397.67" width="110.53" height="62.26" style="fill:#FFC727"></rect><rect x="340.8" y="397.67" width="110.53" height="62.26" style="fill:#fff;opacity:0.5"></rect><rect x="336.65" y="459.92" width="118.83" height="4.94" style="fill:#c7c7c7"></rect><rect x="336.65" y="392.73" width="118.83" height="4.94" style="fill:#c7c7c7"></rect><rect x="338.57" y="456.09" width="114.99" height="1.97" style="fill:#FFC727"></rect><rect x="338.57" y="399.53" width="114.99" height="1.97" style="fill:#FFC727"></rect><g style="opacity:0.5"><rect x="338.57" y="456.09" width="114.99" height="1.97" style="fill:#fff"></rect><rect x="338.57" y="399.53" width="114.99" height="1.97" style="fill:#fff"></rect></g><rect x="340.8" y="406.26" width="110.53" height="45.07" style="fill:#455a64"></rect><path d="M355.05,431.65c-.9.1-1.79-14.73,1.39-18.9.46-.6,9.12,8.94,9.26,9.27S356.9,431.44,355.05,431.65Z" style="fill:#fff"></path><path d="M355.32,431.57c-.76.08-1.53-12.58,1.19-16.13.39-.51,7.78,7.62,7.9,7.91S356.9,431.39,355.32,431.57Z" style="fill:#fff"></path><path d="M384.65,431.37c.89.13,2.3-14.66-.74-18.93-.44-.61-9.42,8.62-9.57,8.95S382.8,431.1,384.65,431.37Z" style="fill:#fff"></path><path d="M384.38,431.28c.76.11,2-12.51-.63-16.16-.37-.52-8,7.36-8.17,7.64S382.81,431.05,384.38,431.28Z" style="fill:#fff"></path><path d="M362.51,444.42c-.27-.09-7.16-2.93-9.71-9.22-.38-1,6.48-11.63,10-13.71,1.76-1.05,14.2-.24,14.8.08s8.85,11.28,8.95,14.08c.05,1.2-5.26,6.5-9.72,9.2C376.34,445.13,365.69,445.6,362.51,444.42Z" style="fill:#fff"></path><path d="M417.22,416l-5,11.93a.57.57,0,0,1-.1.19l0,0a.53.53,0,0,1-.1.12s0,0,0,.06a.65.65,0,0,0-.15.1h0c-.06,0-.1.11-.18.13h0a0,0,0,0,0,0,0l-.17,0h0a.62.62,0,0,1-.2,0,.65.65,0,0,1-.19,0h-.06a.51.51,0,0,0-.14,0l0,0a.53.53,0,0,1-.19-.13h0l-.14-.1,0-.06-.08-.12s0,0,0,0a.84.84,0,0,1-.09-.19l-2.67-6.34L404.77,428a1.82,1.82,0,0,1-.08.19,0,0,0,0,0,0,0l-.12.12s0,0,0,.06a.53.53,0,0,0-.12.1h0c-.07,0-.13.11-.17.13h0a0,0,0,0,0,0,0,.31.31,0,0,0-.16,0h-.06a.65.65,0,0,1-.19,0,.68.68,0,0,1-.2,0h-.06a.68.68,0,0,0-.15,0l0,0a.59.59,0,0,1-.18-.13h0c-.07,0-.09-.08-.15-.1a.15.15,0,0,1,0-.06l-.1-.12v0a1.65,1.65,0,0,1-.1-.19l-5-11.93a1.12,1.12,0,0,1,2.07-.86l4,9.48,2.64-6.29a1.14,1.14,0,0,1,1.07-.69,1.15,1.15,0,0,1,1.06.69l2.64,6.29,4-9.48a1.13,1.13,0,0,1,1.49-.59A1.1,1.1,0,0,1,417.22,416Z" style="fill:#fff"></path><path d="M420.5,427.52V415.45a1.12,1.12,0,0,1,1.13-1.13h6.69a1.14,1.14,0,0,1,1.13,1.13,1.15,1.15,0,0,1-1.13,1.14h-5.54v3.75h4.77a1.14,1.14,0,0,1,0,2.27h-4.77v3.77h5.54a1.14,1.14,0,0,1,0,2.27h-6.63s0,0,0,0l0,0A1.13,1.13,0,0,1,420.5,427.52Z" style="fill:#fff"></path><path d="M441.41,416.59h-3.26v10.93a1.11,1.11,0,0,1-1.12,1.13,1.12,1.12,0,0,1-1.13-1.13V416.59h-3.23a1.14,1.14,0,0,1-1.13-1.14,1.11,1.11,0,0,1,1.13-1.13h8.74a1.12,1.12,0,0,1,1.12,1.13A1.15,1.15,0,0,1,441.41,416.59Z" style="fill:#fff"></path><path d="M397.59,442.38V432.8a.89.89,0,0,1,.89-.89h5.31a.91.91,0,0,1,.89.89.92.92,0,0,1-.89.91h-4.4v3h3.78a.9.9,0,1,1,0,1.8h-3.78v3.9a.91.91,0,0,1-.91.89A.89.89,0,0,1,397.59,442.38Z" style="fill:#fff"></path><path d="M416.05,433.32a6,6,0,0,1,0,8.21,5.28,5.28,0,0,1-3.88,1.74,5.44,5.44,0,0,1-4-1.74,6,6,0,0,1,0-8.21,5.41,5.41,0,0,1,4-1.74A5.24,5.24,0,0,1,416.05,433.32Zm-.21,4.1a4.25,4.25,0,0,0-1.1-2.84,3.5,3.5,0,0,0-2.57-1.15,3.55,3.55,0,0,0-2.63,1.15,4.15,4.15,0,0,0-1.1,2.84,4.07,4.07,0,0,0,1.1,2.83,3.56,3.56,0,0,0,2.63,1.17,3.52,3.52,0,0,0,2.57-1.17A4.16,4.16,0,0,0,415.84,437.42Z" style="fill:#fff"></path><path d="M429.7,433.32a6,6,0,0,1,0,8.21,5.31,5.31,0,0,1-3.88,1.74,5.47,5.47,0,0,1-4-1.74,6,6,0,0,1,0-8.21,5.43,5.43,0,0,1,4-1.74A5.27,5.27,0,0,1,429.7,433.32Zm-.21,4.1a4.21,4.21,0,0,0-1.11-2.84,3.49,3.49,0,0,0-2.56-1.15,3.53,3.53,0,0,0-2.63,1.15,4.16,4.16,0,0,0-1.11,2.84,4.08,4.08,0,0,0,1.11,2.83,3.46,3.46,0,0,0,5.19,0A4.12,4.12,0,0,0,429.49,437.42Z" style="fill:#fff"></path><path d="M434.06,442.38V432.8a.87.87,0,0,1,.89-.89h1.92a5.68,5.68,0,0,1,0,11.36H435A.89.89,0,0,1,434.06,442.38Zm1.8-.91h1a3.88,3.88,0,0,0,0-7.76h-1Z" style="fill:#fff"></path><g style="opacity:0.30000000000000004"><rect x="431.8" y="397.67" width="7.78" height="62.26" style="fill:#fff"></rect><rect x="443.11" y="397.67" width="2.44" height="62.26" style="fill:#fff"></rect></g><rect x="354.04" y="325.54" width="110.53" height="62.26" style="fill:#37474f"></rect><rect x="354.04" y="325.54" width="110.53" height="62.26" style="fill:#FFC727"></rect><rect x="354.04" y="325.54" width="110.53" height="62.26" style="fill:#fff;opacity:0.5"></rect><rect x="349.89" y="387.79" width="118.83" height="4.94" style="fill:#a6a6a6"></rect><rect x="349.89" y="320.6" width="118.83" height="4.94" style="fill:#a6a6a6"></rect><rect x="351.81" y="383.96" width="114.99" height="1.97" style="fill:#FFC727"></rect><rect x="351.81" y="327.4" width="114.99" height="1.97" style="fill:#FFC727"></rect><g style="opacity:0.5"><rect x="351.81" y="383.96" width="114.99" height="1.97" style="fill:#fff"></rect><rect x="351.81" y="327.4" width="114.99" height="1.97" style="fill:#fff"></rect></g><rect x="354.04" y="334.13" width="110.53" height="45.07" style="fill:#FFC727"></rect><path d="M430.45,343.89l-5,11.93a.52.52,0,0,1-.1.18l0,0a.53.53,0,0,1-.1.12s0,0,0,.06a.65.65,0,0,0-.15.1h0c-.06,0-.1.1-.18.12h0a0,0,0,0,0,0,0,1,1,0,0,0-.17.05h0a.62.62,0,0,1-.2,0,.65.65,0,0,1-.19,0h-.06a.6.6,0,0,0-.14-.05l0,0a.52.52,0,0,1-.19-.12h0l-.14-.1,0-.06s-.06-.08-.08-.12,0,0,0,0a.76.76,0,0,1-.09-.18l-2.68-6.34L418,355.82a1.59,1.59,0,0,1-.08.18s0,0,0,0l-.12.12s0,0,0,.06a.57.57,0,0,0-.13.1h0c-.06,0-.12.1-.16.12h0a0,0,0,0,0,0,0,.38.38,0,0,0-.17.05h-.06a.55.55,0,0,1-.18,0,.78.78,0,0,1-.21,0h-.06a.6.6,0,0,0-.14-.05l0,0a.76.76,0,0,1-.19-.12h0c-.06,0-.08-.08-.14-.1l0-.06-.1-.12v0s-.06-.12-.11-.18l-5-11.93A1.12,1.12,0,0,1,413,343l4,9.47,2.64-6.28a1.12,1.12,0,0,1,1.06-.69,1.18,1.18,0,0,1,1.07.69l2.64,6.28,4-9.47a1.13,1.13,0,0,1,1.49-.59A1.1,1.1,0,0,1,430.45,343.89Z" style="fill:#fff"></path><path d="M433.74,355.39V343.32a1.11,1.11,0,0,1,1.13-1.13h6.69a1.14,1.14,0,0,1,1.13,1.13,1.15,1.15,0,0,1-1.13,1.14H436v3.75h4.77a1.14,1.14,0,0,1,0,2.27H436v3.76h5.55a1.14,1.14,0,0,1,0,2.28h-6.63s0,0,0,0l0,0A1.13,1.13,0,0,1,433.74,355.39Z" style="fill:#fff"></path><path d="M454.64,344.46h-3.25v10.93a1.13,1.13,0,1,1-2.25,0V344.46h-3.23a1.14,1.14,0,0,1-1.13-1.14,1.11,1.11,0,0,1,1.13-1.13h8.73a1.12,1.12,0,0,1,1.13,1.13A1.15,1.15,0,0,1,454.64,344.46Z" style="fill:#fff"></path><path d="M410.83,370.25v-9.58a.89.89,0,0,1,.89-.9H417a.91.91,0,0,1,0,1.81h-4.4v3h3.78a.9.9,0,0,1,0,1.8h-3.78v3.9a.91.91,0,0,1-.91.89A.89.89,0,0,1,410.83,370.25Z" style="fill:#fff"></path><path d="M429.29,361.19a6,6,0,0,1,0,8.21,5.3,5.3,0,0,1-3.88,1.74,5.48,5.48,0,0,1-4-1.74,6.07,6.07,0,0,1,0-8.21,5.45,5.45,0,0,1,4-1.74A5.26,5.26,0,0,1,429.29,361.19Zm-.21,4.1a4.25,4.25,0,0,0-1.1-2.84,3.51,3.51,0,0,0-5.2,0,4.15,4.15,0,0,0-1.1,2.84,4.07,4.07,0,0,0,1.1,2.83,3.47,3.47,0,0,0,5.2,0A4.16,4.16,0,0,0,429.08,365.29Z" style="fill:#fff"></path><path d="M442.94,361.19a6,6,0,0,1,0,8.21,5.31,5.31,0,0,1-3.88,1.74,5.47,5.47,0,0,1-4-1.74,6,6,0,0,1,0-8.21,5.43,5.43,0,0,1,4-1.74A5.27,5.27,0,0,1,442.94,361.19Zm-.21,4.1a4.21,4.21,0,0,0-1.11-2.84,3.49,3.49,0,0,0-2.56-1.15,3.53,3.53,0,0,0-2.63,1.15,4.16,4.16,0,0,0-1.11,2.84,4.08,4.08,0,0,0,1.11,2.83,3.46,3.46,0,0,0,5.19,0A4.12,4.12,0,0,0,442.73,365.29Z" style="fill:#fff"></path><path d="M447.29,370.25v-9.58a.88.88,0,0,1,.9-.9h1.91a5.69,5.69,0,0,1,0,11.37h-1.91A.89.89,0,0,1,447.29,370.25Zm1.81-.91h1a3.88,3.88,0,0,0,0-7.76h-1Z" style="fill:#fff"></path><g style="opacity:0.30000000000000004"><rect x="445.04" y="325.54" width="7.78" height="62.26" style="fill:#fff"></rect><rect x="456.34" y="325.54" width="2.44" height="62.26" style="fill:#fff"></rect></g><path d="M379.36,345.58c-1,.37-4.37-.24-5.67,1.17-2.92,3.19-4.14,9.68-6.58,11.23-3.52,2.25-9.3-2.15-7.81-7.12s10.49-9.73,13.83-9A15.13,15.13,0,0,1,379.36,345.58Z" style="fill:#fff"></path><path d="M396.08,366.61c-.64,1.93-8.19,4.91-9.94,4.91h-6.48c-1.75,0-9.3-3-9.94-4.91s-1.18-3.62-1-4.87,3.09-5.29,3.17-5.74,3-8.38,3.58-9.26c1.21-1.84,7.41-2.19,7.41-2.19s6.2.35,7.4,2.19c.58.88,3.51,8.8,3.59,9.26s3,4.49,3.17,5.74S396.72,364.68,396.08,366.61Z" style="fill:#fff"></path><path d="M386.44,345.58c1,.37,4.37-.24,5.66,1.17,2.93,3.19,4.15,9.68,6.59,11.23,3.51,2.25,9.3-2.15,7.81-7.12s-10.49-9.73-13.83-9A15.13,15.13,0,0,0,386.44,345.58Z" style="fill:#fff"></path></g><g id="freepik--food-plate--inject-70"><path d="M269.62,392.33a7.07,7.07,0,0,1-3.6-7.69c.88-4,3.44-6.86,7.23-5.85l6.4-17.72c-3.36-1.58-3.52-5.05-2-8.59a7,7,0,0,1,13.08.3,7,7,0,0,1,10.37,7.53c-.85,4-3.39,6.89-7.17,5.92l-6.39,17.71c3.52,1.67,3.65,5.47,1.74,9.11a7,7,0,0,1-12.81-.85A7,7,0,0,1,269.62,392.33Z" style="fill:#FFC727"></path><g style="opacity:0.5"><path d="M269.62,392.33a7.07,7.07,0,0,1-3.6-7.69c.88-4,3.44-6.86,7.23-5.85l6.4-17.72c-3.36-1.58-3.52-5.05-2-8.59a7,7,0,0,1,13.08.3,7,7,0,0,1,10.37,7.53c-.85,4-3.39,6.89-7.17,5.92l-6.39,17.71c3.52,1.67,3.65,5.47,1.74,9.11a7,7,0,0,1-12.81-.85A7,7,0,0,1,269.62,392.33Z"></path></g><g style="opacity:0.2"><path d="M278.06,360c-1.77-1.81-1.65-4.63-.45-7.49a7,7,0,0,1,13.08.3,7,7,0,0,1,10.39,7.38,6.65,6.65,0,0,0-9.89-4.78,6.66,6.66,0,0,0-12.39-.29A8.44,8.44,0,0,0,278.06,360Z"></path><path d="M271.41,393a6.77,6.77,0,0,1-1.79-.65,7.07,7.07,0,0,1-3.6-7.69c.88-4,3.45-6.86,7.23-5.85l6.39-17.69a5,5,0,0,0,1.49,1L274.66,380c-3.59-1-6,1.73-6.85,5.55a6.69,6.69,0,0,0,3.41,7.3Z"></path><path d="M279.13,378.48c.62-2.58,1.38-5.1,2.23-7.59s1.78-5,2.78-7.41l.15-.36.33.14q2.24.92,4.4,2-2.36-.57-4.65-1.29l.48-.22c-.78,2.52-1.66,5-2.59,7.47S280.3,376.1,279.13,378.48Z"></path></g><g style="opacity:0.5"><path d="M299.8,361.67a6,6,0,0,1-.63,2.09,4.33,4.33,0,0,1-1.47,1.69,4.11,4.11,0,0,1-2.2.66,6.23,6.23,0,0,1-1.15-.08c-.38-.08-.74-.19-1.1-.28l.56-.27c-.94,2.83-2,5.63-3,8.41-.53,1.4-1.11,2.77-1.67,4.15s-1.17,2.75-1.8,4.11c.39-1.45.79-2.89,1.24-4.31s.89-2.85,1.37-4.25c1-2.83,2-5.63,3.05-8.41l.15-.39.42.12c.32.1.64.21,1,.3a6.44,6.44,0,0,0,1,.15,3.37,3.37,0,0,0,1.9-.4A5.49,5.49,0,0,0,299.8,361.67Z" style="fill:#FFC727"></path><path d="M289.32,391.85a6.07,6.07,0,0,1-1.71,2.75,6.89,6.89,0,0,1-2.89,1.68,6.05,6.05,0,0,1-3.35-.06,7,7,0,0,1-2.79-1.65,14,14,0,0,0,3,.89,7,7,0,0,0,2.91-.14A8.36,8.36,0,0,0,287.1,394,10.55,10.55,0,0,0,289.32,391.85Z" style="fill:#FFC727"></path><path d="M276.25,391.73a2.22,2.22,0,0,1-.9.8,3.72,3.72,0,0,1-1.11.37,3.18,3.18,0,0,1-2.28-.4,9.31,9.31,0,0,1,2.11-.58A13.3,13.3,0,0,1,276.25,391.73Z" style="fill:#FFC727"></path><path d="M288.5,366.69c-.61,2.58-1.38,5.1-2.23,7.6s-1.78,5-2.78,7.4l-.15.36-.33-.14q-2.24-.92-4.4-2c1.57.37,3.12.8,4.65,1.28l-.48.22c.78-2.52,1.66-5,2.59-7.47S287.33,369.07,288.5,366.69Z" style="fill:#FFC727"></path></g><path d="M241.42,367.54a7.08,7.08,0,0,1-4.72,7.07c-3.9,1.33-7.65.61-8.75-3.15l-18.47,3.71c.39,3.69-2.49,5.62-6.29,6.19A7,7,0,0,1,196.67,370a7,7,0,0,1,1.07-12.77c3.89-1.36,7.65-.67,8.78,3.06l18.45-3.7c-.39-3.88,2.79-6,6.89-6.22a7,7,0,0,1,5.92,11.4A7.06,7.06,0,0,1,241.42,367.54Z" style="fill:#FFC727"></path><g style="opacity:0.5"><path d="M241.42,367.54a7.08,7.08,0,0,1-4.72,7.07c-3.9,1.33-7.65.61-8.75-3.15l-18.47,3.71c.39,3.69-2.49,5.62-6.29,6.19A7,7,0,0,1,196.67,370a7,7,0,0,1,1.07-12.77c3.89-1.36,7.65-.67,8.78,3.06l18.45-3.7c-.39-3.88,2.79-6,6.89-6.22a7,7,0,0,1,5.92,11.4A7.06,7.06,0,0,1,241.42,367.54Z"></path></g><g style="opacity:0.2"><path d="M209.36,377.1c-.63,2.45-3.1,3.81-6.17,4.26a7.08,7.08,0,0,1-7.64-4.62,7,7,0,0,1,1.12-6.72,7,7,0,0,1,.93-12.71,6.64,6.64,0,0,0,1,10.93A6.67,6.67,0,0,0,204.81,379,8.45,8.45,0,0,0,209.36,377.1Z"></path><path d="M241.05,365.68a7.07,7.07,0,0,1-4.35,8.93c-3.9,1.33-7.65.61-8.75-3.15l-18.44,3.7a5,5,0,0,0,.11-1.8l18.67-3.76c1.05,3.57,4.61,4.26,8.3,3a6.71,6.71,0,0,0,4.48-6.7Z"></path><path d="M224.65,366.59c-2.53.81-5.09,1.46-7.66,2s-5.17,1.06-7.77,1.46l-.39.06-.05-.35c-.25-1.59-.45-3.19-.58-4.8.49,1.54.93,3.09,1.31,4.65l-.44-.29c2.56-.64,5.14-1.18,7.73-1.66S222,366.82,224.65,366.59Z"></path></g><g style="opacity:0.5"><path d="M199.56,357.62a5.82,5.82,0,0,1,2.11-.54,4.22,4.22,0,0,1,2.2.38,4,4,0,0,1,1.71,1.54,6.58,6.58,0,0,1,.53,1c.13.36.22.73.33,1.09l-.53-.34q4.36-1,8.77-1.77c1.46-.28,2.94-.49,4.41-.73s3-.42,4.44-.59c-1.43.42-2.87.82-4.32,1.17s-2.9.72-4.35,1c-2.91.65-5.84,1.24-8.77,1.76l-.42.07-.1-.42c-.09-.33-.16-.66-.25-1a5,5,0,0,0-.39-.92,3.29,3.29,0,0,0-1.32-1.42A5.46,5.46,0,0,0,199.56,357.62Z" style="fill:#FFC727"></path><path d="M230.8,351a6,6,0,0,1,3.24,0,6.85,6.85,0,0,1,2.93,1.59,6.06,6.06,0,0,1,1.68,2.9,6.83,6.83,0,0,1,0,3.24,13.94,13.94,0,0,0-.78-3,6.85,6.85,0,0,0-1.63-2.42,8.15,8.15,0,0,0-2.49-1.59A10.61,10.61,0,0,0,230.8,351Z" style="fill:#FFC727"></path><path d="M237.47,362.19a2.17,2.17,0,0,1,1.15.36,3.77,3.77,0,0,1,.89.75,3.22,3.22,0,0,1,.84,2.16,9.33,9.33,0,0,1-1.6-1.51A14.31,14.31,0,0,1,237.47,362.19Z" style="fill:#FFC727"></path><path d="M209.7,364.68c2.52-.81,5.08-1.46,7.66-2s5.16-1.06,7.77-1.46l.38-.06.06.35c.25,1.59.44,3.19.58,4.8-.5-1.54-.93-3.09-1.32-4.65l.44.3c-2.56.63-5.13,1.18-7.73,1.65S212.34,364.45,209.7,364.68Z" style="fill:#FFC727"></path></g><path d="M261.08,372.13a7.07,7.07,0,0,1-5.83,6.17c-4.07.67-7.64-.68-8.1-4.57l-18.83.56c-.23,3.71-3.4,5.13-7.23,5a7,7,0,0,1-4.53-12.27,7,7,0,0,1,3.19-12.41c4.06-.69,7.65.62,8.14,4.49l18.81-.56c.26-3.89,3.75-5.4,7.84-5a7,7,0,0,1,3.92,12.23A7,7,0,0,1,261.08,372.13Z" style="fill:#FFC727"></path><g style="opacity:0.5"><path d="M261.08,372.13a7.07,7.07,0,0,1-5.83,6.17c-4.07.67-7.64-.68-8.1-4.57l-18.83.56c-.23,3.71-3.4,5.13-7.23,5a7,7,0,0,1-4.53-12.27,7,7,0,0,1,3.19-12.41c4.06-.69,7.65.62,8.14,4.49l18.81-.56c.26-3.89,3.75-5.4,7.84-5a7,7,0,0,1,3.92,12.23A7,7,0,0,1,261.08,372.13Z"></path></g><g style="opacity:0.2"><path d="M227.88,376.18c-1,2.31-3.69,3.23-6.79,3.16a7,7,0,0,1-4.53-12.27,7,7,0,0,1,3-12.37,6.64,6.64,0,0,0-.81,10.95,6.66,6.66,0,0,0,4.29,11.63A8.49,8.49,0,0,0,227.88,376.18Z"></path><path d="M261,370.23a7,7,0,0,1-5.78,8.07c-4.07.66-7.64-.68-8.1-4.57l-18.8.56a5,5,0,0,0,.41-1.76l19-.57c.45,3.69,3.84,5,7.69,4.33a6.69,6.69,0,0,0,5.53-5.85Z"></path><path d="M244.71,368.38c-2.63.37-5.26.58-7.89.71s-5.27.18-7.9.14h-.39v-.36c0-1.6.1-3.21.23-4.82.23,1.6.4,3.2.52,4.8l-.39-.36c2.63-.2,5.27-.31,7.9-.34S242.07,368.16,244.71,368.38Z"></path></g><g style="opacity:0.5"><path d="M221.48,355.33a5.84,5.84,0,0,1,2.17-.18,4.24,4.24,0,0,1,2.11.75,4,4,0,0,1,1.42,1.8,6.15,6.15,0,0,1,.36,1.1c.06.37.09.75.13,1.13l-.45-.43c3-.16,5.95-.25,8.94-.28,1.49,0,3,0,4.47,0s3,.07,4.48.16c-1.49.17-3,.33-4.46.43s-3,.22-4.47.29q-4.45.22-8.94.26h-.42l0-.43c0-.34,0-.68-.08-1a5.47,5.47,0,0,0-.23-1,3.35,3.35,0,0,0-1.07-1.62A5.48,5.48,0,0,0,221.48,355.33Z" style="fill:#FFC727"></path><path d="M253.4,354a6,6,0,0,1,3.18.58,6.92,6.92,0,0,1,2.63,2.06,6.16,6.16,0,0,1,1.17,3.14,7.11,7.11,0,0,1-.5,3.21,14.06,14.06,0,0,0-.27-3.09,7.06,7.06,0,0,0-1.2-2.66,8.49,8.49,0,0,0-2.19-2A10.42,10.42,0,0,0,253.4,354Z" style="fill:#FFC727"></path><path d="M258.09,366.19a2.14,2.14,0,0,1,1.07.54,3.7,3.7,0,0,1,.75.89,3.2,3.2,0,0,1,.47,2.27,9.13,9.13,0,0,1-1.32-1.75A14.76,14.76,0,0,1,258.09,366.19Z" style="fill:#FFC727"></path><path d="M230.29,364c2.63-.37,5.26-.58,7.89-.71s5.27-.18,7.91-.13h.39v.36c0,1.6-.09,3.21-.23,4.82-.23-1.6-.4-3.2-.52-4.8l.39.36q-3.95.3-7.9.34C235.57,364.26,232.94,364.21,230.29,364Z" style="fill:#FFC727"></path></g><path d="M229.86,388.51a7.07,7.07,0,0,1-6.94,4.9c-4.12-.16-7.36-2.18-7-6.09l-18.56-3.18c-1,3.59-4.35,4.36-8.09,3.52a7,7,0,0,1-2-12.93,7,7,0,0,1,5.59-11.53c4.12.13,7.37,2.12,7.09,6l18.55,3.17c1-3.75,4.74-4.55,8.66-3.32a7,7,0,0,1,1.42,12.77A7,7,0,0,1,229.86,388.51Z" style="fill:#FFC727"></path><g style="opacity:0.5"><path d="M229.86,388.51a7.07,7.07,0,0,1-6.94,4.9c-4.12-.16-7.36-2.18-7-6.09l-18.56-3.18c-1,3.59-4.35,4.36-8.09,3.52a7,7,0,0,1-2-12.93,7,7,0,0,1,5.59-11.53c4.12.13,7.37,2.12,7.09,6l18.55,3.17c1-3.75,4.74-4.55,8.66-3.32a7,7,0,0,1,1.42,12.77A7,7,0,0,1,229.86,388.51Z"></path></g><g style="opacity:0.2"><path d="M196.51,385.9c-1.46,2.06-4.26,2.44-7.29,1.76a7,7,0,0,1-2-12.93,7,7,0,0,1,5.44-11.52,6.64,6.64,0,0,0-3,10.57,6.65,6.65,0,0,0-3.3,5.56,6.72,6.72,0,0,0,5.2,6.69A8.46,8.46,0,0,0,196.51,385.9Z"></path><path d="M230.19,386.64a7.21,7.21,0,0,1-.33,1.87,7.08,7.08,0,0,1-6.94,4.9c-4.12-.16-7.35-2.18-7-6.09l-18.53-3.17a5,5,0,0,0,.75-1.65l18.77,3.21c-.3,3.71,2.77,5.63,6.67,5.78a6.72,6.72,0,0,0,6.59-4.65Z"></path><path d="M214.55,381.59c-2.64-.15-5.26-.46-7.87-.86s-5.2-.87-7.77-1.44l-.39-.08.08-.35c.34-1.57.73-3.13,1.18-4.68-.09,1.61-.24,3.21-.44,4.81l-.31-.44c2.62.33,5.22.75,7.81,1.24S212,380.86,214.55,381.59Z"></path></g><g style="opacity:0.5"><path d="M194.37,364.2a5.9,5.9,0,0,1,2.16.25,4.18,4.18,0,0,1,1.92,1.15,4,4,0,0,1,1,2.06,6.22,6.22,0,0,1,.13,1.14c0,.38-.06.76-.09,1.13l-.36-.51q4.43.66,8.81,1.5c1.47.27,2.93.6,4.38.91s2.91.67,4.36,1.05c-1.49-.13-3-.27-4.46-.47s-3-.36-4.43-.6q-4.43-.66-8.81-1.51l-.41-.08,0-.44c0-.33.09-.67.12-1a5.55,5.55,0,0,0,0-1A3.41,3.41,0,0,0,198,366,5.54,5.54,0,0,0,194.37,364.2Z" style="fill:#FFC727"></path><path d="M225.92,369.21a6,6,0,0,1,3,1.2,6.91,6.91,0,0,1,2.16,2.54,6.14,6.14,0,0,1,.53,3.31,6.88,6.88,0,0,1-1.13,3,14.41,14.41,0,0,0,.35-3.08,6.9,6.9,0,0,0-.65-2.84,8.22,8.22,0,0,0-1.76-2.37A10.15,10.15,0,0,0,225.92,369.21Z" style="fill:#FFC727"></path><path d="M228.1,382.1a2.19,2.19,0,0,1,1,.74,4,4,0,0,1,.56,1,3.17,3.17,0,0,1,0,2.31,8.64,8.64,0,0,1-.94-2A12.78,12.78,0,0,1,228.1,382.1Z" style="fill:#FFC727"></path><path d="M201.29,374.44c2.65.15,5.27.46,7.88.86s5.19.87,7.77,1.44l.38.08-.07.35c-.34,1.57-.73,3.13-1.18,4.68.09-1.61.24-3.21.44-4.81l.3.44c-2.61-.33-5.21-.75-7.8-1.24S203.84,375.17,201.29,374.44Z" style="fill:#FFC727"></path></g><path d="M321.7,377a7.07,7.07,0,0,1-5,6.87c-3.95,1.18-7.67.3-8.62-3.5l-18.6,3c.25,3.71-2.71,5.53-6.53,5.94a7,7,0,0,1-6.06-11.59A7,7,0,0,1,278.47,365c3.94-1.21,7.67-.37,8.65,3.4l18.59-3c-.24-3.88,3-5.84,7.13-5.93a7,7,0,0,1,5.46,11.62A7.05,7.05,0,0,1,321.7,377Z" style="fill:#FFC727"></path><g style="opacity:0.5"><path d="M321.7,377a7.07,7.07,0,0,1-5,6.87c-3.95,1.18-7.67.3-8.62-3.5l-18.6,3c.25,3.71-2.71,5.53-6.53,5.94a7,7,0,0,1-6.06-11.59A7,7,0,0,1,278.47,365c3.94-1.21,7.67-.37,8.65,3.4l18.59-3c-.24-3.88,3-5.84,7.13-5.93a7,7,0,0,1,5.46,11.62A7.05,7.05,0,0,1,321.7,377Z"></path></g><g style="opacity:0.2"><path d="M289.29,385.31c-.72,2.42-3.24,3.68-6.33,4a7,7,0,0,1-6.06-11.59,7,7,0,0,1,1.43-12.66,6.65,6.65,0,0,0,.6,11,6.66,6.66,0,0,0,5.74,11A8.49,8.49,0,0,0,289.29,385.31Z"></path><path d="M321.41,375.16a7.17,7.17,0,0,1,.29,1.88,7.06,7.06,0,0,1-5,6.87c-3.95,1.18-7.66.3-8.62-3.5l-18.57,3a5.2,5.2,0,0,0,.18-1.8l18.8-3c.91,3.61,4.44,4.44,8.18,3.32a6.71,6.71,0,0,0,4.74-6.52Z"></path><path d="M305,375.42c-2.55.7-5.13,1.25-7.73,1.72s-5.2.84-7.82,1.14l-.39.05,0-.36c-.18-1.59-.32-3.2-.39-4.81.43,1.55.81,3.12,1.13,4.69l-.43-.31c2.58-.53,5.18-1,7.79-1.35S302.34,375.54,305,375.42Z"></path></g><g style="opacity:0.5"><path d="M280.27,365.46a5.94,5.94,0,0,1,2.13-.46,4.22,4.22,0,0,1,2.19.47,4,4,0,0,1,1.65,1.61,6.58,6.58,0,0,1,.49,1c.11.36.18.73.28,1.1l-.51-.37q4.39-.81,8.83-1.42c1.47-.21,3-.37,4.44-.55s3-.3,4.46-.41c-1.45.36-2.91.71-4.37,1s-2.92.6-4.39.86c-2.93.53-5.88,1-8.83,1.4l-.42.06-.09-.43c-.07-.33-.13-.66-.21-1a4.7,4.7,0,0,0-.35-.93A3.3,3.3,0,0,0,284.3,366,5.45,5.45,0,0,0,280.27,365.46Z" style="fill:#FFC727"></path><path d="M311.76,360a5.93,5.93,0,0,1,3.23.17,6.88,6.88,0,0,1,2.87,1.71,6.12,6.12,0,0,1,1.56,3,7,7,0,0,1-.09,3.25,13.68,13.68,0,0,0-.66-3,6.89,6.89,0,0,0-1.53-2.48,8.34,8.34,0,0,0-2.43-1.69A10.74,10.74,0,0,0,311.76,360Z" style="fill:#FFC727"></path><path d="M318,371.53a2.23,2.23,0,0,1,1.14.4,3.8,3.8,0,0,1,.86.79,3.21,3.21,0,0,1,.75,2.19,9.45,9.45,0,0,1-1.54-1.57A13.88,13.88,0,0,1,318,371.53Z" style="fill:#FFC727"></path><path d="M290.13,372.92c2.55-.71,5.13-1.26,7.73-1.72s5.2-.85,7.82-1.15l.39,0,0,.35c.18,1.6.32,3.2.39,4.81-.43-1.55-.81-3.12-1.13-4.69l.43.31c-2.59.54-5.18,1-7.79,1.35S292.77,372.79,290.13,372.92Z" style="fill:#FFC727"></path></g><path d="M280.76,371.21a7.09,7.09,0,0,1-3.21,7.87c-3.56,2.08-7.38,2.12-9.21-1.34L251,385.06c1.12,3.54-1.32,6-4.93,7.32a7,7,0,0,1-8.65-9.8,7,7,0,0,1-1.51-12.72c3.54-2.12,7.36-2.19,9.22,1.24l17.34-7.32c-1.16-3.72,1.54-6.39,5.51-7.46a7,7,0,0,1,8.07,10A7.09,7.09,0,0,1,280.76,371.21Z" style="fill:#FFC727"></path><g style="opacity:0.5"><path d="M280.76,371.21a7.09,7.09,0,0,1-3.21,7.87c-3.56,2.08-7.38,2.12-9.21-1.34L251,385.06c1.12,3.54-1.32,6-4.93,7.32a7,7,0,0,1-8.65-9.8,7,7,0,0,1-1.51-12.72c3.54-2.12,7.36-2.19,9.22,1.24l17.34-7.32c-1.16-3.72,1.54-6.39,5.51-7.46a7,7,0,0,1,8.07,10A7.09,7.09,0,0,1,280.76,371.21Z"></path></g><g style="opacity:0.2"><path d="M251.26,387c-.13,2.53-2.28,4.35-5.2,5.41a7,7,0,0,1-8.65-9.81,7,7,0,0,1-1.63-12.64A6.65,6.65,0,0,0,239,380.45a6.67,6.67,0,0,0,8.21,9.29A8.46,8.46,0,0,0,251.26,387Z"></path><path d="M280,369.46a6.87,6.87,0,0,1,.73,1.76,7.06,7.06,0,0,1-3.2,7.86c-3.56,2.08-7.37,2.12-9.21-1.34L251,385.05a5.28,5.28,0,0,0-.26-1.79l17.54-7.4c1.75,3.28,5.37,3.24,8.74,1.26a6.7,6.7,0,0,0,3-7.46Z"></path><path d="M264.13,373.63c-2.31,1.3-4.69,2.44-7.09,3.51s-4.85,2.07-7.33,3l-.36.14-.13-.34q-.84-2.25-1.53-4.58c.8,1.41,1.53,2.84,2.22,4.29l-.49-.2c2.38-1.13,4.8-2.18,7.24-3.17S261.59,374.38,264.13,373.63Z"></path></g><g style="opacity:0.5"><path d="M237.76,369.85a6.26,6.26,0,0,1,2-1,4.25,4.25,0,0,1,2.24-.06,4,4,0,0,1,2,1.17,5.61,5.61,0,0,1,.72.89c.2.33.36.67.54,1l-.58-.23c2.71-1.23,5.46-2.38,8.23-3.49,1.38-.56,2.78-1.07,4.18-1.59s2.81-1,4.23-1.47c-1.32.7-2.65,1.38-4,2s-2.69,1.29-4.06,1.89q-4.08,1.82-8.24,3.47l-.39.15-.19-.39c-.15-.3-.28-.62-.44-.92a5.66,5.66,0,0,0-.56-.82,3.41,3.41,0,0,0-1.58-1.12A5.49,5.49,0,0,0,237.76,369.85Z" style="fill:#FFC727"></path><path d="M267,357.07a6.05,6.05,0,0,1,3.18-.61,7,7,0,0,1,3.19,1,6.17,6.17,0,0,1,2.23,2.5,7.09,7.09,0,0,1,.69,3.17,14.68,14.68,0,0,0-1.37-2.78,7,7,0,0,0-2.08-2,8.38,8.38,0,0,0-2.76-1.06A10.89,10.89,0,0,0,267,357.07Z" style="fill:#FFC727"></path><path d="M275.82,366.76a2.12,2.12,0,0,1,1.2.12,3.6,3.6,0,0,1,1,.55,3.2,3.2,0,0,1,1.25,1.95,8.81,8.81,0,0,1-1.86-1.16A14.08,14.08,0,0,1,275.82,366.76Z" style="fill:#FFC727"></path><path d="M249.11,374.75c2.31-1.3,4.69-2.45,7.1-3.52s4.84-2.06,7.32-3l.36-.13.13.33c.56,1.51,1.07,3,1.53,4.58-.8-1.4-1.53-2.84-2.22-4.29l.49.2c-2.38,1.14-4.8,2.19-7.24,3.17S251.65,374,249.11,374.75Z" style="fill:#FFC727"></path></g><path d="M287.74,359.88a7.06,7.06,0,0,1-5.77,6.23c-4.06.71-7.65-.6-8.14-4.49l-18.83.75c-.19,3.71-3.34,5.17-7.18,5.12a7,7,0,0,1-4.65-12.22,7,7,0,0,1,3.06-12.44c4.06-.74,7.66.54,8.19,4.4l18.81-.75c.22-3.88,3.69-5.44,7.78-5a7,7,0,0,1,4.05,12.19A7,7,0,0,1,287.74,359.88Z" style="fill:#FFC727"></path><g style="opacity:0.5"><path d="M287.74,359.88a7.06,7.06,0,0,1-5.77,6.23c-4.06.71-7.65-.6-8.14-4.49l-18.83.75c-.19,3.71-3.34,5.17-7.18,5.12a7,7,0,0,1-4.65-12.22,7,7,0,0,1,3.06-12.44c4.06-.74,7.66.54,8.19,4.4l18.81-.75c.22-3.88,3.69-5.44,7.78-5a7,7,0,0,1,4.05,12.19A7,7,0,0,1,287.74,359.88Z"></path></g><g style="opacity:0.2"><path d="M254.58,364.26c-1,2.32-3.66,3.27-6.76,3.23a7.08,7.08,0,0,1-6.82-5.76,7,7,0,0,1,2.17-6.46,7,7,0,0,1,2.92-12.41,6.65,6.65,0,0,0-.71,11,6.67,6.67,0,0,0,4.41,11.59A8.44,8.44,0,0,0,254.58,364.26Z"></path><path d="M287.67,358a7,7,0,0,1-5.7,8.13c-4.06.7-7.64-.61-8.14-4.49l-18.8.75a4.89,4.89,0,0,0,.39-1.77l19-.76c.48,3.69,3.88,4.93,7.73,4.26a6.7,6.7,0,0,0,5.48-5.91Z"></path><path d="M271.33,356.29c-2.62.4-5.25.64-7.88.79s-5.26.23-7.9.22h-.39v-.35q0-2.42.18-4.83c.25,1.6.43,3.2.57,4.8l-.39-.36c2.63-.23,5.26-.36,7.89-.42S268.69,356.1,271.33,356.29Z"></path></g><g style="opacity:0.5"><path d="M248,343.48a5.86,5.86,0,0,1,2.17-.2,4.24,4.24,0,0,1,2.12.72,4,4,0,0,1,1.44,1.79,6.15,6.15,0,0,1,.36,1.1c.07.37.1.75.15,1.12l-.46-.42q4.47-.29,8.94-.37c1.49,0,3,0,4.47,0s3,.05,4.48.12c-1.48.19-3,.36-4.46.47s-3,.26-4.46.34q-4.46.27-8.93.35h-.42l0-.43c0-.34-.05-.68-.09-1a6.25,6.25,0,0,0-.24-1,3.35,3.35,0,0,0-1.08-1.61A5.54,5.54,0,0,0,248,343.48Z" style="fill:#FFC727"></path><path d="M279.88,341.81a6.2,6.2,0,0,1,3.19.55,6.9,6.9,0,0,1,2.64,2,6,6,0,0,1,1.2,3.13,7,7,0,0,1-.46,3.21,14.72,14.72,0,0,0-.31-3.09,6.86,6.86,0,0,0-1.22-2.64,8.33,8.33,0,0,0-2.21-2A10.91,10.91,0,0,0,279.88,341.81Z" style="fill:#FFC727"></path><path d="M284.69,354a2.24,2.24,0,0,1,1.08.53,3.81,3.81,0,0,1,.76.89,3.17,3.17,0,0,1,.48,2.26,9.26,9.26,0,0,1-1.33-1.74A13,13,0,0,1,284.69,354Z" style="fill:#FFC727"></path><path d="M256.87,352.05c2.62-.4,5.25-.64,7.88-.79s5.27-.23,7.91-.21h.39v.36c0,1.6-.07,3.21-.19,4.82-.24-1.6-.43-3.19-.56-4.79l.39.36c-2.63.22-5.26.35-7.9.41S259.52,352.24,256.87,352.05Z" style="fill:#FFC727"></path></g><rect x="142.44" y="452.65" width="220.39" height="12.22" style="fill:#FFC727"></rect><polygon points="324.4 375.44 180.86 375.44 152.81 452.65 352.45 452.65 324.4 375.44" style="fill:#FFC727"></polygon><polygon points="352.45 452.65 351.16 449.08 178.54 436.89 188.81 375.44 180.86 375.44 152.81 452.65 352.45 452.65" style="opacity:0.1"></polygon><g style="opacity:0.30000000000000004"><polygon points="306.5 375.44 334.55 452.65 323.62 452.65 295.61 375.44 306.5 375.44" style="fill:#fff"></polygon><polygon points="315.5 375.44 343.55 452.65 339.42 452.65 311.4 375.44 315.5 375.44" style="fill:#fff"></polygon></g><path d="M240,405.58a8.47,8.47,0,1,1-8.46-8.47A8.46,8.46,0,0,1,240,405.58Z" style="fill:#fff"></path><circle cx="231.5" cy="418.47" r="8.46" transform="translate(-210.77 600.43) rotate(-83.41)" style="fill:#fff"></circle><circle cx="273.77" cy="405.58" r="8.46" transform="matrix(0.08, -1, 1, 0.08, -152.98, 645.01)" style="fill:#fff"></circle><path d="M282.23,418.51a8.46,8.46,0,1,1-8.46-8.46A8.46,8.46,0,0,1,282.23,418.51Z" style="fill:#fff"></path><rect x="232.51" y="404.74" width="40.24" height="14.53" style="fill:#fff"></rect></g><g id="freepik--Floor--inject-70"><polygon points="38.08 464.7 91.06 464.45 144.04 464.37 250 464.2 355.96 464.36 408.94 464.45 461.92 464.7 408.94 464.94 355.96 465.03 250 465.2 144.04 465.03 91.06 464.94 38.08 464.7" style="fill:#263238"></polygon></g><g id="freepik--Snacks--inject-70"><path d="M153.83,460.86a1.94,1.94,0,0,0,1.57-.16c.15-.09-4.48-17.6-4.65-17.61a2.05,2.05,0,0,0-1.45.64c-1.21,1.55-3,5.81-3.58,5.95-1.05.28-6.06-4.2-11.33-2.81s-12.72,9.11-11.68,13.06,11.33,7,16.61,5.57,7.4-7.76,8.45-8C148.33,457.32,152,460.12,153.83,460.86Z" style="fill:#FFC727"></path><path d="M153.83,460.86a1.94,1.94,0,0,0,1.57-.16c.15-.09-4.48-17.6-4.65-17.61a2.05,2.05,0,0,0-1.45.64c-1.21,1.55-3,5.81-3.58,5.95-1.05.28-6.06-4.2-11.33-2.81s-12.72,9.11-11.68,13.06,11.33,7,16.61,5.57,7.4-7.76,8.45-8C148.33,457.32,152,460.12,153.83,460.86Z" style="opacity:0.6000000000000001"></path><path d="M124.28,459.22a3.73,3.73,0,0,1,.3-2.62,11.31,11.31,0,0,1,1.42-2.3,20.43,20.43,0,0,1,3.92-3.68,14.27,14.27,0,0,1,4.9-2.4,12,12,0,0,1,5.47.42,47.71,47.71,0,0,1,5,1.86,5.7,5.7,0,0,0,1.12.38s0,0,0,0-.05,0-.05,0a.8.8,0,0,0,.16-.19c.12-.17.23-.35.34-.53l1.32-2.3c.22-.39.45-.77.71-1.15a6.47,6.47,0,0,1,.4-.56l.2-.26.12-.14a.52.52,0,0,1,.34-.19h.25s0,0,.12,0a.36.36,0,0,1,.17.15v0l0,.1.1.33.17.64.33,1.29c.41,1.73.84,3.44,1.21,5.18-.58-1.68-1.11-3.37-1.67-5l-.41-1.26-.2-.63-.11-.3,0-.06h0a.25.25,0,0,0,.16.14c.09,0,.12,0,.1,0h-.16s.1,0,.06,0l-.09.12-.19.27c-.12.17-.24.35-.35.53-.22.37-.42.76-.62,1.15-.41.78-.79,1.58-1.23,2.36q-.16.3-.36.6a1.74,1.74,0,0,1-.26.32.73.73,0,0,1-.31.22.82.82,0,0,1-.33,0,6.26,6.26,0,0,1-1.41-.41A49.74,49.74,0,0,0,140,449.6a11.18,11.18,0,0,0-5-.45,14.42,14.42,0,0,0-4.65,2.11,19.71,19.71,0,0,0-4,3.36,11.32,11.32,0,0,0-1.55,2.09A3.87,3.87,0,0,0,124.28,459.22Z" style="fill:#FFC727;opacity:0.5"></path><g style="opacity:0.2"><path d="M147.47,455.45a1.73,1.73,0,0,1,1,0,8.13,8.13,0,0,1,.88.25,9.12,9.12,0,0,1,1.57.76,10.46,10.46,0,0,1,1.39,1l.65.53a.77.77,0,0,0,.7.27.75.75,0,0,1-.38.36,1.24,1.24,0,0,1-.56.06,4,4,0,0,1-.94-.17,7.32,7.32,0,0,1-1.63-.74,8.86,8.86,0,0,1-1.4-1C148.28,456.31,147.94,455.82,147.47,455.45Z"></path><path d="M124.28,459.22a6.57,6.57,0,0,0,3,2.22,26.56,26.56,0,0,0,3.63,1.19,37.06,37.06,0,0,0,3.77.78,23,23,0,0,0,3.92.3,9,9,0,0,1-4,.87,15.62,15.62,0,0,1-4.08-.5,13.7,13.7,0,0,1-3.8-1.62c-.29-.2-.59-.39-.85-.61a7.69,7.69,0,0,1-.76-.75A3.32,3.32,0,0,1,124.28,459.22Z"></path></g><path d="M125.1,462.72c3.61,2.41,10.29,3.82,14.22,2.78,5.27-1.39,7.41-7.76,8.46-8,.55-.14,4.23,2.66,6.05,3.4a1.94,1.94,0,0,0,1.57-.16c.09-.05-1.64-6.8-3-11.93,0,0,2.25,10.78,1.75,11s-5.43-3.39-6.53-3.1-2.91,6.06-8.5,7.54S125.37,462.81,125.1,462.72Z" style="opacity:0.1"></path><path d="M174.33,468.48a2,2,0,0,1-1.49.52c-.18,0-3.35-17.85-3.2-17.93a2,2,0,0,1,1.58,0c1.76.89,5.2,4,5.76,3.88,1.07-.19,3.72-6.36,9.09-7.31s15.38,2.9,16.09,6.92-7.34,11.09-12.71,12-10-3.92-11.06-3.72C177.83,463,175.67,467,174.33,468.48Z" style="fill:#FFC727"></path><path d="M174.33,468.48a2,2,0,0,1-1.49.52c-.18,0-3.35-17.85-3.2-17.93a2,2,0,0,1,1.58,0c1.76.89,5.2,4,5.76,3.88,1.07-.19,3.72-6.36,9.09-7.31s15.38,2.9,16.09,6.92-7.34,11.09-12.71,12-10-3.92-11.06-3.72C177.83,463,175.67,467,174.33,468.48Z" style="opacity:0.5"></path><path d="M200.73,454.71a3.74,3.74,0,0,1-.48,2.62,11.59,11.59,0,0,1-1.59,2.21,19.56,19.56,0,0,1-4.23,3.4,17.58,17.58,0,0,1-2.45,1.24,11.73,11.73,0,0,1-2.72.77,12.3,12.3,0,0,1-5.52-.92,46.25,46.25,0,0,1-4.85-2.33,7.37,7.37,0,0,0-1-.47s0,0,.1,0l.1,0,0,0h0l-.15.16c-.12.14-.25.31-.38.48l-1.53,2.15c-.26.37-.53.73-.82,1.09l-.46.53-.24.23-.14.14a.74.74,0,0,1-.46.21,1.06,1.06,0,0,1-.23,0h0a.46.46,0,0,1-.17-.05.51.51,0,0,1-.24-.27l0-.05,0-.11-.06-.34-.1-.66-.19-1.32c-.21-1.77-.46-3.52-.62-5.29.49,1.71.88,3.44,1.33,5.15l.32,1.29.16.64.08.3s0,.06,0,0,0,0,0,0a.43.43,0,0,0-.23-.25c-.14-.05-.19,0-.16,0h.14s-.22.09-.17.07l.08-.11.22-.25c.12-.16.25-.32.37-.5.25-.34.48-.71.72-1.08.47-.74.91-1.5,1.42-2.26.13-.19.26-.38.42-.58a2.25,2.25,0,0,1,.31-.32.57.57,0,0,1,.14-.11l.1-.06.18-.07a1.21,1.21,0,0,1,.43,0,6.52,6.52,0,0,1,1.43.54,48,48,0,0,0,4.75,2.2,11.12,11.12,0,0,0,4.84.9,14.4,14.4,0,0,0,4.75-1.62,21.64,21.64,0,0,0,4.28-2.9,10.18,10.18,0,0,0,1.76-1.89A3.89,3.89,0,0,0,200.73,454.71Z" style="opacity:0.2"></path><g style="opacity:0.5"><path d="M177.29,456.37a1.87,1.87,0,0,1-.91-.16c-.27-.12-.55-.25-.8-.39a14.71,14.71,0,0,1-1.47-.94c-.46-.34-.91-.69-1.34-1.06l-.65-.53a.82.82,0,0,0-.73-.22.8.8,0,0,1,.42-.25,1.23,1.23,0,0,1,.51,0,5,5,0,0,1,.87.31,10.49,10.49,0,0,1,1.51.92,15.64,15.64,0,0,1,1.33,1.11A14,14,0,0,0,177.29,456.37Z" style="fill:#FFC727"></path><path d="M200.73,454.71a6,6,0,0,0-2.72-2.65,22.36,22.36,0,0,0-3.53-1.58,29.87,29.87,0,0,0-3.75-1.09,18,18,0,0,0-3.9-.45,9.91,9.91,0,0,1,4-.32,17.27,17.27,0,0,1,4,.92,14.36,14.36,0,0,1,3.63,1.87,8.41,8.41,0,0,1,1.5,1.42A3.65,3.65,0,0,1,200.73,454.71Z" style="fill:#FFC727"></path></g><path d="M201.17,458.07c-2.25,3.7-7.73,7.79-11.72,8.51-5.37.95-10-3.92-11.06-3.73-.57.1-2.72,4.19-4.06,5.63a2,2,0,0,1-1.49.52c-.11,0-1.37-6.86-2.28-12.1,0,0,2.5,10.72,3,10.68s3.5-5.36,4.62-5.56,5.19,4.28,10.89,3.26S201,458.26,201.17,458.07Z" style="opacity:0.1"></path><path d="M398.29,466a2,2,0,0,1-1.58.05c-.16-.07,2.09-18,2.26-18.07a2,2,0,0,1,1.52.44c1.41,1.37,3.77,5.34,4.35,5.42,1.07.13,5.43-5,10.84-4.3s13.83,7.33,13.32,11.38-10.29,8.41-15.71,7.74-8.38-6.71-9.45-6.84C403.27,461.76,400,465,398.29,466Z" style="fill:#FFC727"></path><path d="M398.29,466a2,2,0,0,1-1.58.05c-.16-.07,2.09-18,2.26-18.07a2,2,0,0,1,1.52.44c1.41,1.37,3.77,5.34,4.35,5.42,1.07.13,5.43-5,10.84-4.3s13.83,7.33,13.32,11.38-10.29,8.41-15.71,7.74-8.38-6.71-9.45-6.84C403.27,461.76,400,465,398.29,466Z" style="opacity:0.5"></path><path d="M427.58,460.67a3.64,3.64,0,0,1-1.24,2.36,10.91,10.91,0,0,1-2.17,1.65,19.4,19.4,0,0,1-5,2,17.63,17.63,0,0,1-2.71.46,11.64,11.64,0,0,1-2.82-.07,12.24,12.24,0,0,1-5-2.52,44.52,44.52,0,0,1-3.94-3.66,8.81,8.81,0,0,0-.83-.75s0,0,.09,0h.16a.7.7,0,0,0-.19.1c-.16.1-.34.22-.51.35l-2.1,1.6c-.35.27-.72.54-1.1.8l-.6.37-.3.15-.17.09a.74.74,0,0,1-.5.06l-.22-.08,0,0s0,0-.15-.1a.54.54,0,0,1-.16-.32V463l0-.35.1-.66.21-1.32c.32-1.74.6-3.49,1-5.23,0,1.78-.18,3.54-.26,5.32L399,462l0,.66V463s0,.06,0,.05h0a.51.51,0,0,0-.15-.3c-.12-.09-.18-.1-.14-.09h0l.1,0s-.24,0-.18,0l.11-.07.28-.18a5.74,5.74,0,0,0,.5-.36c.34-.26.68-.54,1-.82.66-.57,1.31-1.17,2-1.74l.57-.43a3.19,3.19,0,0,1,.39-.22l.16-.06.12,0H404a1.46,1.46,0,0,1,.41.12,7.08,7.08,0,0,1,1.21.95,50.24,50.24,0,0,0,3.88,3.5,11.09,11.09,0,0,0,4.36,2.3,14.63,14.63,0,0,0,5-.14,21.43,21.43,0,0,0,4.95-1.5,10.93,10.93,0,0,0,2.25-1.29A3.85,3.85,0,0,0,427.58,460.67Z" style="opacity:0.2"></path><g style="opacity:0.5"><path d="M404.7,455.32a1.8,1.8,0,0,1-.82-.43,7.45,7.45,0,0,1-.65-.6,13.84,13.84,0,0,1-1.12-1.33c-.34-.47-.67-.94-1-1.41l-.47-.7a.79.79,0,0,0-.62-.43.79.79,0,0,1,.47-.12,1.45,1.45,0,0,1,.48.18,4.55,4.55,0,0,1,.73.56,9.78,9.78,0,0,1,1.18,1.32,14,14,0,0,1,.94,1.46A15.68,15.68,0,0,0,404.7,455.32Z" style="fill:#FFC727"></path><path d="M427.58,460.67a6.1,6.1,0,0,0-1.81-3.33,21.5,21.5,0,0,0-2.91-2.56,28,28,0,0,0-3.25-2.14,17.9,17.9,0,0,0-3.6-1.59,9.8,9.8,0,0,1,3.94.89,17.1,17.1,0,0,1,3.51,2,14.65,14.65,0,0,1,2.91,2.87,8.15,8.15,0,0,1,1,1.8A3.52,3.52,0,0,1,427.58,460.67Z" style="fill:#FFC727"></path></g><path d="M427,464c-3.25,2.86-9.69,5.15-13.72,4.65-5.41-.68-8.38-6.71-9.46-6.84-.57-.07-3.83,3.2-5.54,4.18a2,2,0,0,1-1.58.05c-.1,0,.72-7,1.41-12.23,0,0-.79,11-.27,11.1s4.93-4.08,6.06-3.94,3.69,5.62,9.43,6.34S426.76,464.14,427,464Z" style="opacity:0.1"></path><path d="M366.65,464.4a2,2,0,0,0,1.58.12c.16-.06-1.26-18.12-1.43-18.15a2,2,0,0,0-1.54.37c-1.47,1.3-4,5.16-4.59,5.21-1.08.08-5.21-5.22-10.64-4.79s-14.15,6.69-13.83,10.76,9.9,8.87,15.34,8.45,8.68-6.31,9.76-6.4C361.87,459.93,365,463.34,366.65,464.4Z" style="fill:#FFC727"></path><path d="M366.65,464.4a2,2,0,0,0,1.58.12c.16-.06-1.26-18.12-1.43-18.15a2,2,0,0,0-1.54.37c-1.47,1.3-4,5.16-4.59,5.21-1.08.08-5.21-5.22-10.64-4.79s-14.15,6.69-13.83,10.76,9.9,8.87,15.34,8.45,8.68-6.31,9.76-6.4C361.87,459.93,365,463.34,366.65,464.4Z" style="opacity:0.6000000000000001"></path><path d="M337.87,457.5a3.76,3.76,0,0,1,.77-2.53,11.07,11.07,0,0,1,1.8-2,20.64,20.64,0,0,1,4.52-2.91,14,14,0,0,1,5.25-1.49,12.05,12.05,0,0,1,5.31,1.4,45.82,45.82,0,0,1,4.61,2.73,6.54,6.54,0,0,0,1,.57s0,0,0,0-.06,0,0,0a1.3,1.3,0,0,0,.2-.17,4.79,4.79,0,0,0,.42-.46l1.71-2c.29-.34.59-.68.9-1a5.67,5.67,0,0,1,.5-.48l.25-.22.14-.12a.56.56,0,0,1,.36-.13l.21,0h0s0,0,.11,0a.35.35,0,0,1,.14.19v0l0,.1,0,.34.06.67.1,1.33c.09,1.77.21,3.53.26,5.31-.28-1.76-.49-3.51-.74-5.27l-.17-1.31-.1-.66-.05-.31v-.06h0a.31.31,0,0,0,.14.16c.08,0,.12,0,.09,0h-.16s.11,0,.06,0l-.1.1-.24.23c-.15.15-.29.3-.44.47s-.55.66-.82,1c-.54.7-1,1.41-1.63,2.11-.15.17-.29.35-.46.52a3,3,0,0,1-.31.28.91.91,0,0,1-.34.15,1.06,1.06,0,0,1-.34,0,6.39,6.39,0,0,1-1.31-.65,48.73,48.73,0,0,0-4.55-2.64,11.4,11.4,0,0,0-4.85-1.34,14.66,14.66,0,0,0-5,1.24,20,20,0,0,0-4.53,2.6,10.29,10.29,0,0,0-1.89,1.78A3.82,3.82,0,0,0,337.87,457.5Z" style="fill:#FFC727;opacity:0.5"></path><g style="opacity:0.2"><path d="M361.36,457.93a1.84,1.84,0,0,1,1,.15,5.23,5.23,0,0,1,.82.41,8.61,8.61,0,0,1,1.41,1,12.46,12.46,0,0,1,1.2,1.21l.54.63a.78.78,0,0,0,.64.4.77.77,0,0,1-.44.28,1.27,1.27,0,0,1-.56,0,4.11,4.11,0,0,1-.89-.34,7,7,0,0,1-1.48-1,9.45,9.45,0,0,1-1.18-1.27C362,458.93,361.76,458.39,361.36,457.93Z"></path><path d="M337.87,457.5a6.42,6.42,0,0,0,2.59,2.72,24.85,24.85,0,0,0,3.37,1.82,36,36,0,0,0,3.57,1.45,23,23,0,0,0,3.8,1,8.83,8.83,0,0,1-4.09.15,15.66,15.66,0,0,1-3.92-1.23,13.7,13.7,0,0,1-3.45-2.26c-.25-.26-.5-.49-.73-.76a8.52,8.52,0,0,1-.61-.87A3.31,3.31,0,0,1,337.87,457.5Z"></path></g><path d="M338.06,461.09c3.11,3,9.44,5.6,13.48,5.28,5.44-.43,8.68-6.31,9.76-6.4.58,0,3.69,3.37,5.35,4.43a2,2,0,0,0,1.58.13c.1,0-.41-7-.85-12.28,0,0,.28,11-.24,11.1s-4.73-4.31-5.87-4.22-3.95,5.44-9.71,5.9S338.3,461.23,338.06,461.09Z" style="opacity:0.1"></path><path d="M140.41,470.45a2,2,0,0,1-1.58-.09c-.15-.09,3.69-17.79,3.87-17.8a2,2,0,0,1,1.47.57c1.29,1.5,3.29,5.67,3.85,5.79,1.06.23,5.86-4.47,11.19-3.31s13.11,8.53,12.25,12.52-11,7.46-16.34,6.3-7.75-7.42-8.81-7.65C145.75,466.66,142.2,469.62,140.41,470.45Z" style="fill:#FFC727"></path><path d="M140.41,470.45a2,2,0,0,1-1.58-.09c-.15-.09,3.69-17.79,3.87-17.8a2,2,0,0,1,1.47.57c1.29,1.5,3.29,5.67,3.85,5.79,1.06.23,5.86-4.47,11.19-3.31s13.11,8.53,12.25,12.52-11,7.46-16.34,6.3-7.75-7.42-8.81-7.65C145.75,466.66,142.2,469.62,140.41,470.45Z" style="opacity:0.5"></path><path d="M170.07,467.75a3.76,3.76,0,0,1-1.45,2.24,11.46,11.46,0,0,1-2.31,1.44,19.21,19.21,0,0,1-5.2,1.53,15.59,15.59,0,0,1-2.74.22,11.36,11.36,0,0,1-2.8-.32,12.29,12.29,0,0,1-4.77-2.95,47.78,47.78,0,0,1-3.6-4,6.49,6.49,0,0,0-.76-.82s0,0,.1,0h.15l-.2.08-.53.3-2.23,1.42c-.38.23-.77.46-1.17.68-.21.11-.41.22-.64.32l-.3.13-.18.08a.8.8,0,0,1-.51,0l-.21-.1,0,0a.54.54,0,0,1-.14-.11.45.45,0,0,1-.12-.33v-.06l0-.11.07-.34.16-.65.32-1.3c.48-1.71.92-3.43,1.45-5.12-.2,1.76-.5,3.51-.73,5.27l-.2,1.31-.1.65,0,.32v0h0a.41.41,0,0,0-.12-.31c-.11-.1-.16-.11-.13-.1l0,0,.1,0a.57.57,0,0,0-.19,0l.12-.07.3-.15c.17-.09.35-.2.53-.32.36-.22.72-.47,1.08-.72.71-.51,1.41-1.05,2.17-1.55.19-.13.39-.25.61-.38a2.35,2.35,0,0,1,.41-.18l.17-.05.11,0h.2a1.05,1.05,0,0,1,.39.16,6.11,6.11,0,0,1,1.12,1.05,50.34,50.34,0,0,0,3.56,3.83,10.94,10.94,0,0,0,4.13,2.68,14.6,14.6,0,0,0,5,.31,21.41,21.41,0,0,0,5.06-1.06,10,10,0,0,0,2.35-1.08A3.84,3.84,0,0,0,170.07,467.75Z" style="opacity:0.2"></path><g style="opacity:0.5"><path d="M147.75,460.37a1.67,1.67,0,0,1-.77-.5,6.17,6.17,0,0,1-.6-.66,13.51,13.51,0,0,1-1-1.42c-.29-.5-.58-1-.84-1.49l-.4-.74a.78.78,0,0,0-.59-.48A.86.86,0,0,1,144,455a1.31,1.31,0,0,1,.46.22,4.53,4.53,0,0,1,.68.63,9.38,9.38,0,0,1,1,1.41,14.17,14.17,0,0,1,.81,1.54A16,16,0,0,0,147.75,460.37Z" style="fill:#FFC727"></path><path d="M170.07,467.75a6,6,0,0,0-1.51-3.48,21.5,21.5,0,0,0-2.67-2.81,29.81,29.81,0,0,0-3-2.43,17.67,17.67,0,0,0-3.44-1.9,10,10,0,0,1,3.85,1.23,16.75,16.75,0,0,1,3.31,2.36,14.6,14.6,0,0,1,2.64,3.11,7.94,7.94,0,0,1,.84,1.88A3.63,3.63,0,0,1,170.07,467.75Z" style="fill:#FFC727"></path></g><path d="M169.19,471c-3.49,2.56-10.11,4.27-14.07,3.41-5.33-1.16-7.75-7.43-8.81-7.66-.56-.12-4.11,2.84-5.9,3.67a2,2,0,0,1-1.57-.09c-.1-.05,1.34-6.87,2.49-12.05,0,0-1.76,10.86-1.26,11s5.27-3.63,6.39-3.39,3.17,5.93,8.83,7.15S168.93,471.13,169.19,471Z" style="opacity:0.1"></path><path d="M315.57,468.3a2,2,0,0,1-1.57-.2c-.15-.09,4.87-17.5,5-17.5a2,2,0,0,1,1.43.67c1.19,1.58,2.9,5.87,3.46,6,1,.3,6.14-4.07,11.38-2.56s12.52,9.39,11.39,13.31-11.48,6.71-16.72,5.2-7.24-7.92-8.28-8.22C321.15,464.87,317.41,467.59,315.57,468.3Z" style="fill:#FFC727"></path><path d="M315.57,468.3a2,2,0,0,1-1.57-.2c-.15-.09,4.87-17.5,5-17.5a2,2,0,0,1,1.43.67c1.19,1.58,2.9,5.87,3.46,6,1,.3,6.14-4.07,11.38-2.56s12.52,9.39,11.39,13.31-11.48,6.71-16.72,5.2-7.24-7.92-8.28-8.22C321.15,464.87,317.41,467.59,315.57,468.3Z" style="opacity:0.5"></path><path d="M345.34,467.58a3.7,3.7,0,0,1-1.6,2.13,10.82,10.82,0,0,1-2.39,1.29,19.68,19.68,0,0,1-5.3,1.19,16.7,16.7,0,0,1-2.74,0,11.41,11.41,0,0,1-2.78-.51,12.2,12.2,0,0,1-4.56-3.26,44.6,44.6,0,0,1-3.32-4.23,7.27,7.27,0,0,0-.71-.87s0,0,.1,0h.15a.68.68,0,0,0-.2.07c-.18.07-.37.17-.55.26L319.11,465c-.39.21-.79.42-1.21.61-.21.1-.43.19-.65.27l-.32.11-.19.07a.73.73,0,0,1-.5,0,1,1,0,0,1-.2-.11l0,0s0,0-.14-.12a.51.51,0,0,1-.1-.34v-.05l0-.12.09-.33.2-.64.41-1.27c.59-1.67,1.14-3.36,1.79-5-.32,1.75-.73,3.48-1.08,5.21l-.29,1.3-.14.64-.06.31s0,.06,0,.05h0a.46.46,0,0,0-.1-.32.5.5,0,0,0-.13-.11l0,0,.09,0s-.24,0-.19,0l.12-.06.31-.13.56-.28,1.12-.66c.74-.46,1.47-.94,2.27-1.4.2-.11.4-.22.63-.33a2.18,2.18,0,0,1,.42-.16.65.65,0,0,1,.17,0h.12l.19,0a1,1,0,0,1,.39.18,6.4,6.4,0,0,1,1,1.12,51.74,51.74,0,0,0,3.3,4.07,11.07,11.07,0,0,0,3.94,2.94,14.3,14.3,0,0,0,5,.64,21.64,21.64,0,0,0,5.12-.71,10.88,10.88,0,0,0,2.42-.92A4,4,0,0,0,345.34,467.58Z" style="opacity:0.2"></path><g style="opacity:0.5"><path d="M323.56,458.73a1.74,1.74,0,0,1-.74-.55,7.36,7.36,0,0,1-.55-.7,13.4,13.4,0,0,1-.9-1.49c-.26-.51-.51-1-.74-1.54l-.35-.76a.8.8,0,0,0-.55-.52.84.84,0,0,1,.48-.05,1.33,1.33,0,0,1,.45.26,5,5,0,0,1,.64.66,9.85,9.85,0,0,1,.95,1.49,15.09,15.09,0,0,1,.71,1.59A14.77,14.77,0,0,0,323.56,458.73Z" style="fill:#FFC727"></path><path d="M345.34,467.58a6.13,6.13,0,0,0-1.28-3.58,22.58,22.58,0,0,0-2.47-3,29.72,29.72,0,0,0-2.88-2.62,17.81,17.81,0,0,0-3.31-2.13,10,10,0,0,1,3.76,1.49,17.61,17.61,0,0,1,3.15,2.57,14.5,14.5,0,0,1,2.42,3.28,8.22,8.22,0,0,1,.72,1.94A3.68,3.68,0,0,1,345.34,467.58Z" style="fill:#FFC727"></path></g><path d="M344.25,470.79c-3.66,2.33-10.37,3.59-14.27,2.46-5.24-1.51-7.24-7.92-8.28-8.22-.56-.16-4.29,2.56-6.13,3.26a1.94,1.94,0,0,1-1.57-.19c-.09-.06,1.8-6.76,3.29-11.86,0,0-2.48,10.72-2,10.93s5.5-3.27,6.6-3,2.77,6.13,8.33,7.73S344,470.87,344.25,470.79Z" style="opacity:0.1"></path></g></svg>
