<svg xmlns="http://www.w3.org/2000/svg" viewBox="0 0 500 500"><g id="freepik--background-simple--inject-278"><path d="M482.27,177.75C465.35,122.46,421.87,78.2,370.4,54.87c-49.1-22.25-111.17-33.25-157.69,1-30.63,22.56-48,58.7-76,84-13.94,12.57-29.2,16.66-45.78,24.18-40.42,18.33-74.25,53.68-77,100.32C9.21,342.34,71,396.27,140,414c91.14,23.37,159.27,23.37,221.87-1.87,32.51-13.11,65.59-29.7,89-56.85,35.45-41.06,45.24-99.38,37.18-152.11A178.1,178.1,0,0,0,482.27,177.75Z" style="fill:#92E3A9"></path><path d="M482.27,177.75C465.35,122.46,421.87,78.2,370.4,54.87c-49.1-22.25-111.17-33.25-157.69,1-30.63,22.56-48,58.7-76,84-13.94,12.57-29.2,16.66-45.78,24.18-40.42,18.33-74.25,53.68-77,100.32C9.21,342.34,71,396.27,140,414c91.14,23.37,159.27,23.37,221.87-1.87,32.51-13.11,65.59-29.7,89-56.85,35.45-41.06,45.24-99.38,37.18-152.11A178.1,178.1,0,0,0,482.27,177.75Z" style="fill:#fff;opacity:0.8"></path></g><g id="freepik--tree-branches--inject-278"><path d="M180.18,421.81c-.66-1.38-1.23-2.79-1.82-4.19,9.1-16.6,16.62-32.22,20.38-50.95-1.74-3-5.9-4.37-6.91,0-3.59,15.47-8.56,29.4-16.45,43.22-.31-1-.63-2.07-1-3.08,8.59-16,13.58-32.61,16.09-50.57-1.76-2.9-6.43-4.15-7.08.14-2.31,15.13-5.47,29.18-12,43.07-.31-.81-.67-1.63-1-2.44a141.7,141.7,0,0,0,11.05-49.31c-1.92-2.61-6.82-3.76-7.13.44-1.06,14.43-2.64,28.26-7.47,41.89-.36-.76-.87-1.46-1.3-2.18,5.2-16.08,6.2-32.77,6.31-49.53-2.14-2.53-7.22-3.14-7.37.93-.53,14.19.46,28.2-3.36,41.94-.39-.59-.83-1.16-1.24-1.75,3.78-15.17,2.45-31.82,2-47.3-2.22-2.41-7.41-2.7-7.45,1.25-.12,13.3,1.83,26.5.26,39.59-.46-.58-1-1.13-1.45-1.71,1.44-14.51-.95-30.18-1.52-44.77-2.34-2.31-7.55-2.33-7.56,1.58-.05,12.68,1.37,24.8,1.94,37.32-.67-.51-1.39-1-2.07-1.48-1-14.18-2-28.39-2.58-42.58-2.42-2.24-7.57-2-7.59,1.86-.06,12,1.49,23.5,2.2,35.37-.68-.47-1.4-.92-2.11-1.36-1.22-13.53-2.07-27.07-2.76-40.61-2.49-2.16-7.56-1.77-7.56,2.06,0,11.44,1.34,22.35,2.2,33.62-.68-.43-1.41-.83-2.11-1.25-1.27-12.95-2-25.94-2.75-38.91-2.47-2-7.58-1.66-7.57,2.14,0,10.9,1.33,21.37,2.24,32.12-.67-.41-1.4-.8-2.1-1.21-1.2-12.4-2.15-24.85-2.74-37.3-2.88-1.73-6.91-1.79-7.79,2.14.6,10.24,1.64,20.45,2.62,30.66l-2.07-1.16c-1.15-11.8-3.1-24-2.78-35.82-2.72-1.79-6.46-2.17-7.74,1.48-.43,10,2,20,2.77,29.95l-2-1.18c-1-11.82-3.83-23.25-2.07-35.17-2.37-2.12-5.73-3.1-7.38.35-1.74,10-.46,19.48,1.19,29.43l-2.39-1.73C81.36,315,81,304,84.5,292.46c-1.59-3-4.67-3.88-6.9-1-3.69,9-4.12,18.27-3.37,27.83L72,317.25c-.51-11.58,1.49-22.45,7-32.72-1.13-3.26-3.9-4.79-6.55-2-4.39,8.24-7.52,16.56-8.15,26-.6-.78-1.17-1.56-1.71-2.38,1.43-11.4,6.71-20.74,12.09-30.67-.87-3.5-3.52-5.2-6.43-2.44-4.19,7.45-9.29,14.9-11.16,23.35a38.85,38.85,0,0,1-2-4.64c3.12-7.61,7.82-14.47,12-21.56-.65-2.61-2.75-4.15-5-2-3.07,5.5-6.29,10.9-9.5,16.31-.2-.69-.4-1.39-.61-2.08,2-5.31,3.75-10.68,5.62-16-.87-1.77-2.63-2.52-3.92-.66-1.47,4.42-2.92,8.93-4.31,13.33-3.24-2.4-7.78-6.93-10.64-8.92s-3,.93-3.19,2.33c4.61,3.83,9.06,7.51,13.72,11.15.18.71.49,1.55.6,2.19-5.13-2.26-12.55-7.1-17-8.95s-3.62,2.38-3.51,4.25c7.87,4,15.51,7.86,23.16,12.07.66,1.73,1.56,3.59,2.28,5.12-7.41-3.23-18-10.62-24.48-13.27s-4.35,4-4.19,6.28c11.48,6.14,22.46,12.21,34.44,16.95.53.78,1.36,1.74,1.78,2.36-9.25-2.08-21.91-10.41-29.24-13.53s-3.23,5.57-3.28,7.18c13,6.8,26.07,13,40.48,15.32.7.67,1.65,1.55,2.19,2.09-10.75-.69-25.8-7.56-34.27-10.91s-2.06,6.53-1.91,7.87a123.1,123.1,0,0,0,45.36,10.63c.7.52,1.74,1.23,2.24,1.63-11.54.79-28.57-4.07-38-6.34s-1,6.77-.87,8a114.92,114.92,0,0,0,47.22,3.79c.59.39,1.55.91,1.92,1.22-11.37,2.63-28.94.51-38.62-.57s-.51,6.39-.28,7.78c16.09,1.74,31.29.38,46.89-2.68a19.65,19.65,0,0,1,1.91,1.14c-10.76,3.07-28.83,3.9-38.16,4.2s-.69,5.62-.15,7.14c16-.44,31.08-3.65,46.42-6.87.69.39,1.38.82,2.09,1.18-13.12,2.94-26,5-39.36,7-4.54.66-2.55,5.15.7,6.54,15.71-1.73,31.21-5.73,46.71-8.83.7.41,1.41.85,2.11,1.25-13.36,2.85-26.77,5.41-40.15,8.22-4.35.91-2.85,4.9.32,6.34,16-2.89,31.93-6.6,47.95-9.63l2.11,1.35c-13.91,2.63-28,5.34-41.73,8.6-4.29,1-2.93,4.8.08,6.35,16.53-3.29,33-7.08,49.63-9.58l2.07,1.46c-14.53,2.39-29.28,5-43.53,8.45-4.29,1-3.05,4.79-.06,6.36,16.73-3.27,33.51-7.13,50.46-8.92l1.41,1.68a389.06,389.06,0,0,0-43.75,7.7c-4.15.93-3.37,4.75-.38,6.48,16.3-3.19,32.57-6.07,49.09-7.76.4.56.81,1.14,1.21,1.68-14.23,1.67-28.4,3.64-42.4,6.67-3.91.85-3.8,4.64-.87,6.59,15.77-3.06,31.54-5.91,47.61-6.61.51.84,1,1.72,1.43,2.6a209.18,209.18,0,0,0-39.1,4.79c-3.6.76-4.18,4.38-1.48,6.55,14.5-2.6,29.19-4.94,44-4.45l.63,1.5a162.54,162.54,0,0,0-36.49,3.07c-3.39.64-4.24,4.27-2,6.6,13.53-2.09,27.59-4.15,41.26-2.39.3.9.59,1.84.89,2.72-11.46-1.52-22.63-.58-34.09,1.07-3.26.47-4,4.44-1.9,6.71,13.09-1.09,25.57-2.51,38.62-.21.65,1.54,1.37,3,2.15,4.48C178.39,422.79,179.29,422.31,180.18,421.81Z" style="fill:#92E3A9"></path><g style="opacity:0.30000000000000004"><path d="M180.18,421.81c-.66-1.38-1.23-2.79-1.82-4.19,9.1-16.6,16.62-32.22,20.38-50.95-1.74-3-5.9-4.37-6.91,0-3.59,15.47-8.56,29.4-16.45,43.22-.31-1-.63-2.07-1-3.08,8.59-16,13.58-32.61,16.09-50.57-1.76-2.9-6.43-4.15-7.08.14-2.31,15.13-5.47,29.18-12,43.07-.31-.81-.67-1.63-1-2.44a141.7,141.7,0,0,0,11.05-49.31c-1.92-2.61-6.82-3.76-7.13.44-1.06,14.43-2.64,28.26-7.47,41.89-.36-.76-.87-1.46-1.3-2.18,5.2-16.08,6.2-32.77,6.31-49.53-2.14-2.53-7.22-3.14-7.37.93-.53,14.19.46,28.2-3.36,41.94-.39-.59-.83-1.16-1.24-1.75,3.78-15.17,2.45-31.82,2-47.3-2.22-2.41-7.41-2.7-7.45,1.25-.12,13.3,1.83,26.5.26,39.59-.46-.58-1-1.13-1.45-1.71,1.44-14.51-.95-30.18-1.52-44.77-2.34-2.31-7.55-2.33-7.56,1.58-.05,12.68,1.37,24.8,1.94,37.32-.67-.51-1.39-1-2.07-1.48-1-14.18-2-28.39-2.58-42.58-2.42-2.24-7.57-2-7.59,1.86-.06,12,1.49,23.5,2.2,35.37-.68-.47-1.4-.92-2.11-1.36-1.22-13.53-2.07-27.07-2.76-40.61-2.49-2.16-7.56-1.77-7.56,2.06,0,11.44,1.34,22.35,2.2,33.62-.68-.43-1.41-.83-2.11-1.25-1.27-12.95-2-25.94-2.75-38.91-2.47-2-7.58-1.66-7.57,2.14,0,10.9,1.33,21.37,2.24,32.12-.67-.41-1.4-.8-2.1-1.21-1.2-12.4-2.15-24.85-2.74-37.3-2.88-1.73-6.91-1.79-7.79,2.14.6,10.24,1.64,20.45,2.62,30.66l-2.07-1.16c-1.15-11.8-3.1-24-2.78-35.82-2.72-1.79-6.46-2.17-7.74,1.48-.43,10,2,20,2.77,29.95l-2-1.18c-1-11.82-3.83-23.25-2.07-35.17-2.37-2.12-5.73-3.1-7.38.35-1.74,10-.46,19.48,1.19,29.43l-2.39-1.73C81.36,315,81,304,84.5,292.46c-1.59-3-4.67-3.88-6.9-1-3.69,9-4.12,18.27-3.37,27.83L72,317.25c-.51-11.58,1.49-22.45,7-32.72-1.13-3.26-3.9-4.79-6.55-2-4.39,8.24-7.52,16.56-8.15,26-.6-.78-1.17-1.56-1.71-2.38,1.43-11.4,6.71-20.74,12.09-30.67-.87-3.5-3.52-5.2-6.43-2.44-4.19,7.45-9.29,14.9-11.16,23.35a38.85,38.85,0,0,1-2-4.64c3.12-7.61,7.82-14.47,12-21.56-.65-2.61-2.75-4.15-5-2-3.07,5.5-6.29,10.9-9.5,16.31-.2-.69-.4-1.39-.61-2.08,2-5.31,3.75-10.68,5.62-16-.87-1.77-2.63-2.52-3.92-.66-1.47,4.42-2.92,8.93-4.31,13.33-3.24-2.4-7.78-6.93-10.64-8.92s-3,.93-3.19,2.33c4.61,3.83,9.06,7.51,13.72,11.15.18.71.49,1.55.6,2.19-5.13-2.26-12.55-7.1-17-8.95s-3.62,2.38-3.51,4.25c7.87,4,15.51,7.86,23.16,12.07.66,1.73,1.56,3.59,2.28,5.12-7.41-3.23-18-10.62-24.48-13.27s-4.35,4-4.19,6.28c11.48,6.14,22.46,12.21,34.44,16.95.53.78,1.36,1.74,1.78,2.36-9.25-2.08-21.91-10.41-29.24-13.53s-3.23,5.57-3.28,7.18c13,6.8,26.07,13,40.48,15.32.7.67,1.65,1.55,2.19,2.09-10.75-.69-25.8-7.56-34.27-10.91s-2.06,6.53-1.91,7.87a123.1,123.1,0,0,0,45.36,10.63c.7.52,1.74,1.23,2.24,1.63-11.54.79-28.57-4.07-38-6.34s-1,6.77-.87,8a114.92,114.92,0,0,0,47.22,3.79c.59.39,1.55.91,1.92,1.22-11.37,2.63-28.94.51-38.62-.57s-.51,6.39-.28,7.78c16.09,1.74,31.29.38,46.89-2.68a19.65,19.65,0,0,1,1.91,1.14c-10.76,3.07-28.83,3.9-38.16,4.2s-.69,5.62-.15,7.14c16-.44,31.08-3.65,46.42-6.87.69.39,1.38.82,2.09,1.18-13.12,2.94-26,5-39.36,7-4.54.66-2.55,5.15.7,6.54,15.71-1.73,31.21-5.73,46.71-8.83.7.41,1.41.85,2.11,1.25-13.36,2.85-26.77,5.41-40.15,8.22-4.35.91-2.85,4.9.32,6.34,16-2.89,31.93-6.6,47.95-9.63l2.11,1.35c-13.91,2.63-28,5.34-41.73,8.6-4.29,1-2.93,4.8.08,6.35,16.53-3.29,33-7.08,49.63-9.58l2.07,1.46c-14.53,2.39-29.28,5-43.53,8.45-4.29,1-3.05,4.79-.06,6.36,16.73-3.27,33.51-7.13,50.46-8.92l1.41,1.68a389.06,389.06,0,0,0-43.75,7.7c-4.15.93-3.37,4.75-.38,6.48,16.3-3.19,32.57-6.07,49.09-7.76.4.56.81,1.14,1.21,1.68-14.23,1.67-28.4,3.64-42.4,6.67-3.91.85-3.8,4.64-.87,6.59,15.77-3.06,31.54-5.91,47.61-6.61.51.84,1,1.72,1.43,2.6a209.18,209.18,0,0,0-39.1,4.79c-3.6.76-4.18,4.38-1.48,6.55,14.5-2.6,29.19-4.94,44-4.45l.63,1.5a162.54,162.54,0,0,0-36.49,3.07c-3.39.64-4.24,4.27-2,6.6,13.53-2.09,27.59-4.15,41.26-2.39.3.9.59,1.84.89,2.72-11.46-1.52-22.63-.58-34.09,1.07-3.26.47-4,4.44-1.9,6.71,13.09-1.09,25.57-2.51,38.62-.21.65,1.54,1.37,3,2.15,4.48C178.39,422.79,179.29,422.31,180.18,421.81Z" style="fill:#fff"></path></g><path d="M341.81,440.44c.5-1.44.92-2.91,1.35-4.37-10.87-15.49-20.06-30.19-25.86-48.4,1.4-3.15,5.38-5,6.87-.77,5.26,15,11.74,28.28,21.09,41.16.2-1.05.41-2.13.67-3.17a148.58,148.58,0,0,1-21.55-48.5c1.43-3.08,5.94-4.83,7.06-.64,3.95,14.78,8.64,28.4,16.61,41.49.23-.84.5-1.69.74-2.53a141.49,141.49,0,0,1-16.4-47.8c1.62-2.81,6.36-4.49,7.13-.35,2.65,14.23,5.73,27.8,12,40.82a24,24,0,0,1,1-2.31c-6.93-15.41-9.76-31.89-11.71-48.53,1.85-2.76,6.84-3.92,7.43.1,2.08,14.06,2.64,28.09,7.95,41.33.32-.64.7-1.25,1-1.88-5.42-14.66-5.94-31.36-7.22-46.79,1.94-2.64,7.07-3.5,7.54.43,1.59,13.2,1.09,26.54,4.1,39.37.39-.63.84-1.23,1.25-1.85-3-14.28-2.37-30.11-3.41-44.67,2.07-2.55,7.24-3.15,7.69.74,1.44,12.59,1.36,24.79,2.17,37.3.61-.58,1.27-1.13,1.9-1.7-.58-14.2-1.12-28.43-2.12-42.6,2.16-2.49,7.3-2.82,7.75,1,1.38,11.94,1.1,23.52,1.7,35.4.62-.55,1.29-1.07,1.95-1.59-.28-13.57-.92-27.13-1.72-40.66,2.23-2.42,7.32-2.59,7.74,1.21,1.26,11.37,1.13,22.36,1.51,33.67.62-.5,1.31-1,2-1.48-.17-13-.86-26-1.54-39,2.23-2.29,7.35-2.48,7.75,1.3,1.17,10.84,1,21.39,1.31,32.17.62-.48,1.3-.95,1.95-1.43-.17-12.46-.6-24.94-1.37-37.38,2.67-2,6.67-2.54,8,1.27.54,10.24.62,20.51.77,30.77l1.93-1.38c-.16-11.86.45-24.16-1.18-35.92,2.51-2.08,6.19-2.86,7.86.63,1.53,9.91.25,20.08.54,30.06l1.83-1.38c-.35-11.86,1.25-23.53-1.81-35.18,2.12-2.37,5.36-3.72,7.37-.46,2.83,9.78,2.6,19.3,2,29.37.74-.65,1.46-1.32,2.19-2,.57-12-.23-22.88-5-34,1.25-3.14,4.21-4.37,6.75-1.71,4.65,8.51,6.1,17.7,6.4,27.29l2-2.31c-.77-11.57-3.95-22.15-10.59-31.75.77-3.36,3.35-5.19,6.29-2.68,5.27,7.71,9.3,15.64,11,24.92.51-.84,1-1.68,1.44-2.56-2.67-11.17-9-19.87-15.39-29.15.48-3.57,2.93-5.56,6.13-3.14,5,7,10.87,13.79,13.66,22a39,39,0,0,0,1.48-4.83c-4-7.22-9.36-13.53-14.29-20.11.36-2.67,2.28-4.43,4.74-2.53,3.65,5.13,7.44,10.15,11.23,15.17.12-.71.24-1.43.37-2.14-2.53-5.06-4.9-10.2-7.35-15.3.68-1.86,2.34-2.79,3.83-1.09,1.94,4.23,3.89,8.56,5.75,12.77,3-2.74,7-7.74,9.59-10s3.06.6,3.43,2c-4.16,4.31-8.18,8.46-12.41,12.59-.1.73-.32,1.59-.35,2.24,4.84-2.81,11.69-8.43,15.93-10.77s3.86,2,3.95,3.85c-7.38,4.86-14.55,9.5-21.69,14.54-.47,1.79-1.16,3.73-1.7,5.34,7-4,16.74-12.54,22.87-15.89s4.77,3.54,4.85,5.79c-10.73,7.35-21,14.6-32.36,20.63-.45.83-1.16,1.87-1.51,2.54,9-3.09,20.63-12.75,27.57-16.66s3.82,5.18,4.05,6.77c-12.17,8.19-24.48,15.77-38.55,19.68-.62.74-1.47,1.72-1.95,2.32,10.61-1.87,24.82-10.35,32.87-14.61s2.76,6.27,2.76,7.61a123,123,0,0,1-43.92,15.55c-.63.6-1.59,1.41-2.05,1.86,11.57-.47,27.95-7.18,37.06-10.46s1.75,6.61,1.74,7.82a114.81,114.81,0,0,1-46.52,9c-.54.45-1.43,1.07-1.78,1.42,11.6,1.36,28.83-2.68,38.34-4.82s1.2,6.3,1.12,7.7c-15.8,3.51-31.05,3.82-46.9,2.5a20.93,20.93,0,0,0-1.76,1.34c11,1.87,29.07.71,38.38,0s1.31,5.51.94,7.08c-15.92,1.31-31.29-.22-46.9-1.72-.64.46-1.28,1-1.94,1.4,13.36,1.48,26.35,2.16,39.88,2.6,4.59.15,3.11,4.83,0,6.58-15.81,0-31.65-2.26-47.4-3.64-.65.48-1.31,1-2,1.46,13.6,1.37,27.21,2.45,40.82,3.76,4.42.43,3.37,4.56.38,6.35-16.26-1.12-32.46-3.06-48.72-4.31l-1.95,1.57c14.12,1.09,28.41,2.24,42.42,4,4.38.53,3.44,4.44.62,6.32-16.79-1.45-33.54-3.42-50.38-4.07L371.07,383c14.7.78,29.65,1.79,44.19,3.61,4.37.55,3.56,4.43.75,6.32-17-1.41-34.09-3.41-51.13-3.32l-1.22,1.82A388.29,388.29,0,0,1,408,394.28c4.23.47,3.87,4.35,1.08,6.4-16.55-1.38-33-2.46-49.64-2.32-.34.6-.68,1.22-1,1.8,14.33.1,28.63.5,42.87,2,4,.41,4.3,4.19,1.59,6.46-16-1.31-32-2.41-48-1.35-.42.9-.79,1.83-1.13,2.74a209.76,209.76,0,0,1,39.38.48c3.67.35,4.64,3.89,2.19,6.34-14.69-1-29.55-1.7-44.17.41-.16.51-.32,1.05-.47,1.56a162.42,162.42,0,0,1,36.61-1c3.43.26,4.68,3.77,2.68,6.34-13.68-.58-27.88-1.09-41.28,2.16-.19.93-.38,1.89-.58,2.81,11.22-2.78,22.43-3.07,34-2.69,3.3.11,4.42,4,2.62,6.47-13.12.35-25.68.31-38.4,4-.48,1.6-1,3.13-1.65,4.68Z" style="fill:#92E3A9"></path><g style="opacity:0.30000000000000004"><path d="M341.81,440.44c.5-1.44.92-2.91,1.35-4.37-10.87-15.49-20.06-30.19-25.86-48.4,1.4-3.15,5.38-5,6.87-.77,5.26,15,11.74,28.28,21.09,41.16.2-1.05.41-2.13.67-3.17a148.58,148.58,0,0,1-21.55-48.5c1.43-3.08,5.94-4.83,7.06-.64,3.95,14.78,8.64,28.4,16.61,41.49.23-.84.5-1.69.74-2.53a141.49,141.49,0,0,1-16.4-47.8c1.62-2.81,6.36-4.49,7.13-.35,2.65,14.23,5.73,27.8,12,40.82a24,24,0,0,1,1-2.31c-6.93-15.41-9.76-31.89-11.71-48.53,1.85-2.76,6.84-3.92,7.43.1,2.08,14.06,2.64,28.09,7.95,41.33.32-.64.7-1.25,1-1.88-5.42-14.66-5.94-31.36-7.22-46.79,1.94-2.64,7.07-3.5,7.54.43,1.59,13.2,1.09,26.54,4.1,39.37.39-.63.84-1.23,1.25-1.85-3-14.28-2.37-30.11-3.41-44.67,2.07-2.55,7.24-3.15,7.69.74,1.44,12.59,1.36,24.79,2.17,37.3.61-.58,1.27-1.13,1.9-1.7-.58-14.2-1.12-28.43-2.12-42.6,2.16-2.49,7.3-2.82,7.75,1,1.38,11.94,1.1,23.52,1.7,35.4.62-.55,1.29-1.07,1.95-1.59-.28-13.57-.92-27.13-1.72-40.66,2.23-2.42,7.32-2.59,7.74,1.21,1.26,11.37,1.13,22.36,1.51,33.67.62-.5,1.31-1,2-1.48-.17-13-.86-26-1.54-39,2.23-2.29,7.35-2.48,7.75,1.3,1.17,10.84,1,21.39,1.31,32.17.62-.48,1.3-.95,1.95-1.43-.17-12.46-.6-24.94-1.37-37.38,2.67-2,6.67-2.54,8,1.27.54,10.24.62,20.51.77,30.77l1.93-1.38c-.16-11.86.45-24.16-1.18-35.92,2.51-2.08,6.19-2.86,7.86.63,1.53,9.91.25,20.08.54,30.06l1.83-1.38c-.35-11.86,1.25-23.53-1.81-35.18,2.12-2.37,5.36-3.72,7.37-.46,2.83,9.78,2.6,19.3,2,29.37.74-.65,1.46-1.32,2.19-2,.57-12-.23-22.88-5-34,1.25-3.14,4.21-4.37,6.75-1.71,4.65,8.51,6.1,17.7,6.4,27.29l2-2.31c-.77-11.57-3.95-22.15-10.59-31.75.77-3.36,3.35-5.19,6.29-2.68,5.27,7.71,9.3,15.64,11,24.92.51-.84,1-1.68,1.44-2.56-2.67-11.17-9-19.87-15.39-29.15.48-3.57,2.93-5.56,6.13-3.14,5,7,10.87,13.79,13.66,22a39,39,0,0,0,1.48-4.83c-4-7.22-9.36-13.53-14.29-20.11.36-2.67,2.28-4.43,4.74-2.53,3.65,5.13,7.44,10.15,11.23,15.17.12-.71.24-1.43.37-2.14-2.53-5.06-4.9-10.2-7.35-15.3.68-1.86,2.34-2.79,3.83-1.09,1.94,4.23,3.89,8.56,5.75,12.77,3-2.74,7-7.74,9.59-10s3.06.6,3.43,2c-4.16,4.31-8.18,8.46-12.41,12.59-.1.73-.32,1.59-.35,2.24,4.84-2.81,11.69-8.43,15.93-10.77s3.86,2,3.95,3.85c-7.38,4.86-14.55,9.5-21.69,14.54-.47,1.79-1.16,3.73-1.7,5.34,7-4,16.74-12.54,22.87-15.89s4.77,3.54,4.85,5.79c-10.73,7.35-21,14.6-32.36,20.63-.45.83-1.16,1.87-1.51,2.54,9-3.09,20.63-12.75,27.57-16.66s3.82,5.18,4.05,6.77c-12.17,8.19-24.48,15.77-38.55,19.68-.62.74-1.47,1.72-1.95,2.32,10.61-1.87,24.82-10.35,32.87-14.61s2.76,6.27,2.76,7.61a123,123,0,0,1-43.92,15.55c-.63.6-1.59,1.41-2.05,1.86,11.57-.47,27.95-7.18,37.06-10.46s1.75,6.61,1.74,7.82a114.81,114.81,0,0,1-46.52,9c-.54.45-1.43,1.07-1.78,1.42,11.6,1.36,28.83-2.68,38.34-4.82s1.2,6.3,1.12,7.7c-15.8,3.51-31.05,3.82-46.9,2.5a20.93,20.93,0,0,0-1.76,1.34c11,1.87,29.07.71,38.38,0s1.31,5.51.94,7.08c-15.92,1.31-31.29-.22-46.9-1.72-.64.46-1.28,1-1.94,1.4,13.36,1.48,26.35,2.16,39.88,2.6,4.59.15,3.11,4.83,0,6.58-15.81,0-31.65-2.26-47.4-3.64-.65.48-1.31,1-2,1.46,13.6,1.37,27.21,2.45,40.82,3.76,4.42.43,3.37,4.56.38,6.35-16.26-1.12-32.46-3.06-48.72-4.31l-1.95,1.57c14.12,1.09,28.41,2.24,42.42,4,4.38.53,3.44,4.44.62,6.32-16.79-1.45-33.54-3.42-50.38-4.07L371.07,383c14.7.78,29.65,1.79,44.19,3.61,4.37.55,3.56,4.43.75,6.32-17-1.41-34.09-3.41-51.13-3.32l-1.22,1.82A388.29,388.29,0,0,1,408,394.28c4.23.47,3.87,4.35,1.08,6.4-16.55-1.38-33-2.46-49.64-2.32-.34.6-.68,1.22-1,1.8,14.33.1,28.63.5,42.87,2,4,.41,4.3,4.19,1.59,6.46-16-1.31-32-2.41-48-1.35-.42.9-.79,1.83-1.13,2.74a209.76,209.76,0,0,1,39.38.48c3.67.35,4.64,3.89,2.19,6.34-14.69-1-29.55-1.7-44.17.41-.16.51-.32,1.05-.47,1.56a162.42,162.42,0,0,1,36.61-1c3.43.26,4.68,3.77,2.68,6.34-13.68-.58-27.88-1.09-41.28,2.16-.19.93-.38,1.89-.58,2.81,11.22-2.78,22.43-3.07,34-2.69,3.3.11,4.42,4,2.62,6.47-13.12.35-25.68.31-38.4,4-.48,1.6-1,3.13-1.65,4.68Z" style="fill:#fff"></path></g><path d="M342.76,347.34c.13-1.83.15-3.67.19-5.5-17.54-14.55-32.88-28.71-45.38-48,.63-4.11,4.67-7.51,7.73-3.08,10.87,15.74,22.6,29.13,37.55,41.11-.1-1.28-.2-2.59-.23-3.89-16.7-14.13-29.64-30.5-40.41-49.49.69-4,5.37-7.5,8-3,9.27,15.91,19,30.24,32.45,42.92,0-1.05,0-2.12,0-3.18-14.27-14.79-26-31.42-34.2-50.31,1-3.78,6-7.23,8.18-2.66,7.58,15.68,15.46,30.47,26.92,43.59a28.89,28.89,0,0,1,.48-3c-12.95-15.69-21.45-33.93-29-52.65,1.28-3.78,6.7-6.71,8.67-2.23,6.87,15.67,12,31.79,22.34,45.48.16-.84.41-1.67.6-2.51-10.94-15.31-16.83-34.54-23.22-52.05,1.42-3.69,7.1-6.31,8.9-1.9,6,14.83,9.68,30.48,17.24,44.43.25-.86.59-1.7.87-2.55-8.05-15.62-12.31-34.22-18.13-50.8,1.6-3.62,7.42-6,9.17-1.58,5.66,14.17,9.44,28.37,14.35,42.64.52-.86,1.12-1.72,1.66-2.57-5.17-16.32-10.31-32.68-16-48.81,1.72-3.58,7.58-5.6,9.31-1.29,5.4,13.44,8.74,27,13.21,40.57.54-.82,1.16-1.65,1.75-2.45-4.62-15.68-9.66-31.23-14.89-46.68,1.83-3.53,7.69-5.33,9.38-1,5.06,12.81,8.4,25.61,12.42,38.62.57-.78,1.22-1.56,1.81-2.34-4.31-15.06-9.24-29.93-14.15-44.78,1.87-3.37,7.75-5.21,9.42-1,4.79,12.22,8,24.51,11.72,37,.57-.76,1.21-1.52,1.81-2.28-4.14-14.42-8.6-28.78-13.44-43,2.46-3.21,6.94-5.06,9.66-1,3.87,11.72,7.23,23.62,10.65,35.49l1.8-2.22c-3.94-13.72-7.14-28.19-12.75-41.34,2.25-3.21,6.27-5.28,9.32-1.76,4.93,11,6.66,23.24,10.16,34.75l1.69-2.2c-4.17-13.65-6-27.72-13.26-40.28,1.72-3.42,5.05-6,8.42-2.87,6.39,10.46,9.13,21.59,11.69,33.46.65-1,1.28-2,1.92-3-3.14-14.1-7.52-26.5-16.62-37.9.46-4,3.51-6.41,7.3-4.13,8.1,8.42,12.7,18.63,16.09,29.67.52-1.1,1-2.21,1.55-3.31-4.55-13.19-11.61-24.47-22.37-33.51-.17-4.15,2.25-7.09,6.47-5.11,8.56,7.28,15.75,15.21,20.61,25.47.33-1.14.63-2.27.87-3.43-6.65-12.13-16.7-20.24-27.12-29-.58-4.3,1.64-7.38,6.12-5.58,8,6.49,17,12.57,22.84,21.21a45.85,45.85,0,0,0,.18-6.09c-6.87-7.13-15.16-12.74-23-18.82-.42-3.21,1.25-5.87,4.7-4.44,5.87,4.8,11.86,9.42,17.85,14.06l-.24-2.6c-4.54-5.09-8.92-10.3-13.38-15.45.19-2.37,1.83-4,4.09-2.48,3.6,4.31,7.23,8.71,10.73,13,2.57-4.13,5.64-11.2,8-14.7s3.75-.27,4.6,1.2c-3.46,6.32-6.82,12.42-10.42,18.56.12.88.14,1.95.31,2.71,4.74-4.79,10.9-13.5,15.09-17.55s5.1,1.06,5.8,3.21c-7,8-13.88,15.65-20.58,23.76,0,2.23-.16,4.7-.28,6.75,6.86-6.9,15.47-19.88,21.52-25.71s6.66,2.6,7.48,5.19c-10.13,11.94-19.74,23.61-31.05,34.22-.25,1.1-.75,2.54-.95,3.43,9.43-6.43,19.92-21.36,26.75-28.1s6.07,4.81,6.84,6.59c-11.54,13.37-23.43,26.08-38.53,35.08-.49,1-1.16,2.46-1.53,3.31,11.73-5.54,25.54-19.9,33.55-27.39s5.19,6.4,5.61,8a148.1,148.1,0,0,1-46.08,32c-.55.89-1.39,2.14-1.79,2.81,13.29-4.22,30.19-17.2,39.72-23.91s4.13,7.13,4.51,8.54a138.29,138.29,0,0,1-51.19,25.16c-.48.7-1.32,1.71-1.61,2.21,13.89-2.09,32.63-12.24,43-17.74s3.4,6.93,3.75,8.59c-17.24,9.07-34.85,14.28-53.68,17.77a24.47,24.47,0,0,0-1.63,2.11c13.41-1.32,34-8.4,44.58-12.19s3.26,6,3.33,7.93c-18.07,6.57-36.41,9.67-55,12.86-.59.74-1.19,1.53-1.81,2.25,16-2.52,31.29-5.85,47.15-9.63,5.37-1.27,5.13,4.63,2.11,7.64-18.36,5-37.47,7.4-56.2,10.79-.61.77-1.21,1.58-1.82,2.33,16.23-2.72,32.37-5.79,48.59-8.57,5.28-.91,5.37,4.22,2.46,7.24-19.24,3.87-38.67,6.74-58,10.44-.59.81-1.18,1.66-1.77,2.45,16.75-3.21,33.71-6.41,50.53-8.84,5.25-.77,5.41,4.07,2.73,7.14-20,3.64-40,6.67-59.81,11.25l-1.67,2.55c17.32-3.75,35-7.32,52.47-9.82,5.26-.75,5.54,4,2.88,7.11-20.17,3.74-40.67,6.85-60.44,12.35-.27.83-.56,1.69-.83,2.5,17.08-4.73,34.94-8,52.39-10.75,5.06-.79,5.88,3.83,3.29,7.09-19.66,3.65-39.15,7.62-58.39,13.05l-.61,2.42c16.67-4.43,33.41-8.51,50.42-11.31,4.75-.79,6.31,3.51,3.89,7-19,3.56-37.93,7.35-56.23,13.67-.2,1.18-.34,2.38-.44,3.55a251.37,251.37,0,0,1,45.89-11.94c4.37-.75,6.62,3.05,4.55,6.68-17.38,3.5-34.86,7.38-51.17,14.47,0,.65,0,1.33-.06,2,13.45-6,27.81-9.93,42.23-12.72,4.07-.78,6.63,2.9,5.12,6.51-16.07,3.66-32.73,7.58-47.26,15.6.07,1.14.16,2.32.22,3.45,12.15-6.79,25.08-10.67,38.64-13.91,3.86-.91,6.39,3.23,5.09,6.68-15.13,4.58-29.73,8.51-43.33,16.87,0,2-.2,4-.42,5.95Z" style="fill:#92E3A9"></path><g style="opacity:0.30000000000000004"><path d="M342.76,347.34c.13-1.83.15-3.67.19-5.5-17.54-14.55-32.88-28.71-45.38-48,.63-4.11,4.67-7.51,7.73-3.08,10.87,15.74,22.6,29.13,37.55,41.11-.1-1.28-.2-2.59-.23-3.89-16.7-14.13-29.64-30.5-40.41-49.49.69-4,5.37-7.5,8-3,9.27,15.91,19,30.24,32.45,42.92,0-1.05,0-2.12,0-3.18-14.27-14.79-26-31.42-34.2-50.31,1-3.78,6-7.23,8.18-2.66,7.58,15.68,15.46,30.47,26.92,43.59a28.89,28.89,0,0,1,.48-3c-12.95-15.69-21.45-33.93-29-52.65,1.28-3.78,6.7-6.71,8.67-2.23,6.87,15.67,12,31.79,22.34,45.48.16-.84.41-1.67.6-2.51-10.94-15.31-16.83-34.54-23.22-52.05,1.42-3.69,7.1-6.31,8.9-1.9,6,14.83,9.68,30.48,17.24,44.43.25-.86.59-1.7.87-2.55-8.05-15.62-12.31-34.22-18.13-50.8,1.6-3.62,7.42-6,9.17-1.58,5.66,14.17,9.44,28.37,14.35,42.64.52-.86,1.12-1.72,1.66-2.57-5.17-16.32-10.31-32.68-16-48.81,1.72-3.58,7.58-5.6,9.31-1.29,5.4,13.44,8.74,27,13.21,40.57.54-.82,1.16-1.65,1.75-2.45-4.62-15.68-9.66-31.23-14.89-46.68,1.83-3.53,7.69-5.33,9.38-1,5.06,12.81,8.4,25.61,12.42,38.62.57-.78,1.22-1.56,1.81-2.34-4.31-15.06-9.24-29.93-14.15-44.78,1.87-3.37,7.75-5.21,9.42-1,4.79,12.22,8,24.51,11.72,37,.57-.76,1.21-1.52,1.81-2.28-4.14-14.42-8.6-28.78-13.44-43,2.46-3.21,6.94-5.06,9.66-1,3.87,11.72,7.23,23.62,10.65,35.49l1.8-2.22c-3.94-13.72-7.14-28.19-12.75-41.34,2.25-3.21,6.27-5.28,9.32-1.76,4.93,11,6.66,23.24,10.16,34.75l1.69-2.2c-4.17-13.65-6-27.72-13.26-40.28,1.72-3.42,5.05-6,8.42-2.87,6.39,10.46,9.13,21.59,11.69,33.46.65-1,1.28-2,1.92-3-3.14-14.1-7.52-26.5-16.62-37.9.46-4,3.51-6.41,7.3-4.13,8.1,8.42,12.7,18.63,16.09,29.67.52-1.1,1-2.21,1.55-3.31-4.55-13.19-11.61-24.47-22.37-33.51-.17-4.15,2.25-7.09,6.47-5.11,8.56,7.28,15.75,15.21,20.61,25.47.33-1.14.63-2.27.87-3.43-6.65-12.13-16.7-20.24-27.12-29-.58-4.3,1.64-7.38,6.12-5.58,8,6.49,17,12.57,22.84,21.21a45.85,45.85,0,0,0,.18-6.09c-6.87-7.13-15.16-12.74-23-18.82-.42-3.21,1.25-5.87,4.7-4.44,5.87,4.8,11.86,9.42,17.85,14.06l-.24-2.6c-4.54-5.09-8.92-10.3-13.38-15.45.19-2.37,1.83-4,4.09-2.48,3.6,4.31,7.23,8.71,10.73,13,2.57-4.13,5.64-11.2,8-14.7s3.75-.27,4.6,1.2c-3.46,6.32-6.82,12.42-10.42,18.56.12.88.14,1.95.31,2.71,4.74-4.79,10.9-13.5,15.09-17.55s5.1,1.06,5.8,3.21c-7,8-13.88,15.65-20.58,23.76,0,2.23-.16,4.7-.28,6.75,6.86-6.9,15.47-19.88,21.52-25.71s6.66,2.6,7.48,5.19c-10.13,11.94-19.74,23.61-31.05,34.22-.25,1.1-.75,2.54-.95,3.43,9.43-6.43,19.92-21.36,26.75-28.1s6.07,4.81,6.84,6.59c-11.54,13.37-23.43,26.08-38.53,35.08-.49,1-1.16,2.46-1.53,3.31,11.73-5.54,25.54-19.9,33.55-27.39s5.19,6.4,5.61,8a148.1,148.1,0,0,1-46.08,32c-.55.89-1.39,2.14-1.79,2.81,13.29-4.22,30.19-17.2,39.72-23.91s4.13,7.13,4.51,8.54a138.29,138.29,0,0,1-51.19,25.16c-.48.7-1.32,1.71-1.61,2.21,13.89-2.09,32.63-12.24,43-17.74s3.4,6.93,3.75,8.59c-17.24,9.07-34.85,14.28-53.68,17.77a24.47,24.47,0,0,0-1.63,2.11c13.41-1.32,34-8.4,44.58-12.19s3.26,6,3.33,7.93c-18.07,6.57-36.41,9.67-55,12.86-.59.74-1.19,1.53-1.81,2.25,16-2.52,31.29-5.85,47.15-9.63,5.37-1.27,5.13,4.63,2.11,7.64-18.36,5-37.47,7.4-56.2,10.79-.61.77-1.21,1.58-1.82,2.33,16.23-2.72,32.37-5.79,48.59-8.57,5.28-.91,5.37,4.22,2.46,7.24-19.24,3.87-38.67,6.74-58,10.44-.59.81-1.18,1.66-1.77,2.45,16.75-3.21,33.71-6.41,50.53-8.84,5.25-.77,5.41,4.07,2.73,7.14-20,3.64-40,6.67-59.81,11.25l-1.67,2.55c17.32-3.75,35-7.32,52.47-9.82,5.26-.75,5.54,4,2.88,7.11-20.17,3.74-40.67,6.85-60.44,12.35-.27.83-.56,1.69-.83,2.5,17.08-4.73,34.94-8,52.39-10.75,5.06-.79,5.88,3.83,3.29,7.09-19.66,3.65-39.15,7.62-58.39,13.05l-.61,2.42c16.67-4.43,33.41-8.51,50.42-11.31,4.75-.79,6.31,3.51,3.89,7-19,3.56-37.93,7.35-56.23,13.67-.2,1.18-.34,2.38-.44,3.55a251.37,251.37,0,0,1,45.89-11.94c4.37-.75,6.62,3.05,4.55,6.68-17.38,3.5-34.86,7.38-51.17,14.47,0,.65,0,1.33-.06,2,13.45-6,27.81-9.93,42.23-12.72,4.07-.78,6.63,2.9,5.12,6.51-16.07,3.66-32.73,7.58-47.26,15.6.07,1.14.16,2.32.22,3.45,12.15-6.79,25.08-10.67,38.64-13.91,3.86-.91,6.39,3.23,5.09,6.68-15.13,4.58-29.73,8.51-43.33,16.87,0,2-.2,4-.42,5.95Z" style="fill:#fff"></path></g><circle cx="295.99" cy="309.33" r="7.19" style="fill:#fff"></circle><circle cx="295.99" cy="309.33" r="7.19" style="fill:none;stroke:#263238;stroke-linecap:round;stroke-linejoin:round"></circle></g><g id="freepik--Trees--inject-278"><path d="M175.76,132.77l-38.65,152h82.44l-38.65-152A2.65,2.65,0,0,0,175.76,132.77Z" style="fill:#92E3A9;stroke:#263238;stroke-linecap:round;stroke-linejoin:round"></path><path d="M185.82,285.24h23c-40.88-15.55-58.78-47.09-59-47.54a4.93,4.93,0,1,0-8.64,4.75C141.78,243.67,155.21,267.6,185.82,285.24Z" style="fill:#fff;stroke:#263238;stroke-linecap:round;stroke-linejoin:round"></path><path d="M186.86,167.34a4.93,4.93,0,1,0,3.25-9.3,27.41,27.41,0,0,1-14-10.89,4.93,4.93,0,0,0-8.63,4.77A36.92,36.92,0,0,0,186.86,167.34Z" style="fill:#fff;stroke:#263238;stroke-linecap:round;stroke-linejoin:round"></path><path d="M194.54,203.89a5.16,5.16,0,0,0,1.63.27,4.93,4.93,0,0,0,1.62-9.58,57.08,57.08,0,0,1-29.4-22.94,4.93,4.93,0,0,0-8.63,4.75C160.18,177.17,170.44,195.46,194.54,203.89Z" style="fill:#fff;stroke:#263238;stroke-linecap:round;stroke-linejoin:round"></path><path d="M208.68,254.38a4.93,4.93,0,1,0,3.25-9.3c-36.66-12.82-52.66-41-52.87-41.38a4.93,4.93,0,0,0-8.64,4.74C151.13,209.73,168.24,240.25,208.68,254.38Z" style="fill:#fff;stroke:#263238;stroke-linecap:round;stroke-linejoin:round"></path><path d="M191.38,209.55a5,5,0,1,0-5,5A5,5,0,0,0,191.38,209.55Z" style="fill:#fff;stroke:#263238;stroke-linecap:round;stroke-linejoin:round"></path><circle cx="170.92" cy="202.6" r="5.02" style="fill:#fff;stroke:#263238;stroke-linecap:round;stroke-linejoin:round"></circle><path d="M184.82,172.86a5,5,0,1,0-5,5A5,5,0,0,0,184.82,172.86Z" style="fill:#fff;stroke:#263238;stroke-linecap:round;stroke-linejoin:round"></path><path d="M196.4,256.66a5,5,0,1,0-5,5A5,5,0,0,0,196.4,256.66Z" style="fill:#fff;stroke:#263238;stroke-linecap:round;stroke-linejoin:round"></path><circle cx="160.1" cy="235.42" r="5.02" style="fill:#fff;stroke:#263238;stroke-linecap:round;stroke-linejoin:round"></circle><path d="M179,252a5,5,0,1,0-5,5A5,5,0,0,0,179,252Z" style="fill:#fff;stroke:#263238;stroke-linecap:round;stroke-linejoin:round"></path><path d="M155.08,274a5,5,0,1,0-5,5A5,5,0,0,0,155.08,274Z" style="fill:#fff;stroke:#263238;stroke-linecap:round;stroke-linejoin:round"></path><path d="M211.46,272.11a5,5,0,1,0-5,5A5,5,0,0,0,211.46,272.11Z" style="fill:#fff;stroke:#263238;stroke-linecap:round;stroke-linejoin:round"></path><path d="M201,229.24a5,5,0,1,0-5,5A5,5,0,0,0,201,229.24Z" style="fill:#fff;stroke:#263238;stroke-linecap:round;stroke-linejoin:round"></path><path d="M320.47,132.77l-38.64,152h82.43l-38.65-152A2.65,2.65,0,0,0,320.47,132.77Z" style="fill:#92E3A9;stroke:#263238;stroke-linecap:round;stroke-linejoin:round"></path><path d="M330.53,285.24h23c-40.89-15.55-58.79-47.09-59-47.54a4.93,4.93,0,1,0-8.64,4.75C286.49,243.67,299.92,267.6,330.53,285.24Z" style="fill:#fff;stroke:#263238;stroke-linecap:round;stroke-linejoin:round"></path><path d="M331.57,167.34a4.93,4.93,0,1,0,3.26-9.3,27.47,27.47,0,0,1-14.05-10.89,4.93,4.93,0,0,0-8.63,4.77A37,37,0,0,0,331.57,167.34Z" style="fill:#fff;stroke:#263238;stroke-linecap:round;stroke-linejoin:round"></path><path d="M339.25,203.89a5.16,5.16,0,0,0,1.63.27,4.93,4.93,0,0,0,1.63-9.58,57,57,0,0,1-29.4-22.94,4.93,4.93,0,0,0-8.64,4.75C304.9,177.17,315.15,195.46,339.25,203.89Z" style="fill:#fff;stroke:#263238;stroke-linecap:round;stroke-linejoin:round"></path><path d="M353.39,254.38a4.93,4.93,0,1,0,3.26-9.3c-36.67-12.82-52.66-41-52.88-41.38a4.93,4.93,0,1,0-8.64,4.74C295.84,209.73,313,240.25,353.39,254.38Z" style="fill:#fff;stroke:#263238;stroke-linecap:round;stroke-linejoin:round"></path><path d="M336.1,209.55a5,5,0,1,0-5,5A5,5,0,0,0,336.1,209.55Z" style="fill:#fff;stroke:#263238;stroke-linecap:round;stroke-linejoin:round"></path><path d="M320.65,202.6a5,5,0,1,0-5,5A5,5,0,0,0,320.65,202.6Z" style="fill:#fff;stroke:#263238;stroke-linecap:round;stroke-linejoin:round"></path><circle cx="324.51" cy="172.86" r="5.02" style="fill:#fff;stroke:#263238;stroke-linecap:round;stroke-linejoin:round"></circle><circle cx="336.1" cy="256.66" r="5.02" style="fill:#fff;stroke:#263238;stroke-linecap:round;stroke-linejoin:round"></circle><path d="M309.84,235.42a5,5,0,1,0-5,5A5,5,0,0,0,309.84,235.42Z" style="fill:#fff;stroke:#263238;stroke-linecap:round;stroke-linejoin:round"></path><path d="M323.74,252a5,5,0,1,0-5,5A5,5,0,0,0,323.74,252Z" style="fill:#fff;stroke:#263238;stroke-linecap:round;stroke-linejoin:round"></path><path d="M299.8,274a5,5,0,1,0-5,5A5,5,0,0,0,299.8,274Z" style="fill:#fff;stroke:#263238;stroke-linecap:round;stroke-linejoin:round"></path><path d="M356.18,272.11a5,5,0,1,0-5,5A5,5,0,0,0,356.18,272.11Z" style="fill:#fff;stroke:#263238;stroke-linecap:round;stroke-linejoin:round"></path><path d="M345.75,229.24a5,5,0,1,0-5,5A5,5,0,0,0,345.75,229.24Z" style="fill:#fff;stroke:#263238;stroke-linecap:round;stroke-linejoin:round"></path></g><g id="freepik--Snowman--inject-278"><path d="M313.44,292.83A61.79,61.79,0,0,0,324.27,258c0-36.83-33-66.69-73.67-66.69S176.93,221.2,176.93,258a61.78,61.78,0,0,0,10.82,34.8Z" style="fill:#fff;stroke:#263238;stroke-linecap:round;stroke-linejoin:round"></path><path d="M226.7,199.14s-5,11.06-7.74,33.72,4.42,47.52,4.42,47.52l3.87-3.86,3.87,3.86,3.31-5,3.87,3.32,3.32-2.77,7.18,5,1.66-6.63,2.76,3.31s-18-44.62-7.73-73Z" style="fill:#92E3A9;stroke:#263238;stroke-linecap:round;stroke-linejoin:round"></path><path d="M220.26,223.83c-.46,2.77-.91,5.78-1.3,9-.13,1.06-.23,2.12-.32,3.19a169.66,169.66,0,0,1,24.13-1.47,96.73,96.73,0,0,1-.41-11.9A186.42,186.42,0,0,0,220.26,223.83Z" style="fill:#263238"></path><path d="M248.81,264.58a93.92,93.92,0,0,0-28.14,3.7c1.11,6.11,2.26,10.46,2.6,11.72l.69-.2,3.29-3.28,2,2c1.19-.26,2.41-.51,3.67-.73l1.55-2.33,2.08,1.78c1.36-.17,2.74-.32,4.16-.44l1-.79,1,.67c2.37-.13,4.81-.17,7.32-.08l.56-2.24,2,2.39.42,0C252.19,274.93,250.57,270.54,248.81,264.58Z" style="fill:#263238"></path><path d="M246,254.06c-.87-3.73-1.67-7.73-2.31-11.87a125.56,125.56,0,0,0-25.35,4.38c.11,4.26.44,8.4.9,12.24A116,116,0,0,1,246,254.06Z" style="fill:#263238"></path><path d="M218.75,190l-7.18,14.28s-2.29,10.42,15.64,19.9,32.85,7.55,44.7,2.48,17.18-15.15,17.18-21.58-5.19-13.56-9.59-15.59S224.84,185.24,218.75,190Z" style="fill:#92E3A9;stroke:#263238;stroke-linecap:round;stroke-linejoin:round"></path><path d="M247.22,188a6.16,6.16,0,0,0,1-.82c-6.61-.07-13.17.06-18.48.48a117.38,117.38,0,0,0-17,23.21c1.25,2.75,3.7,6.1,8.36,9.52C233.2,197.41,247,188.14,247.22,188Z" style="fill:#263238"></path><path d="M268.48,200.88A129.25,129.25,0,0,1,285.2,216a20.23,20.23,0,0,0,3.89-10.9,13.11,13.11,0,0,0-.23-2.41,139,139,0,0,0-17.55-14.43c-4.16-.37-9.49-.69-15.17-.88a6,6,0,0,0-.29,2.23c.79,12.43,1.79,28.23,2.57,40.87a50.54,50.54,0,0,0,11.72-3.08C269.58,218.37,269,208.57,268.48,200.88Z" style="fill:#263238"></path><path d="M255.36,203.32A5.95,5.95,0,1,0,245,197.5c-.44.79-8.34,14.92-14.47,28.3a57.52,57.52,0,0,0,11.31,3.88C247.73,217,255.26,203.5,255.36,203.32Z" style="fill:#263238"></path><circle cx="250.6" cy="184.3" r="28.28" transform="translate(13.07 385.17) rotate(-76.55)" style="fill:#fff;stroke:#263238;stroke-linecap:round;stroke-linejoin:round"></circle><path d="M235.4,189a9.32,9.32,0,0,0,7.35,6.12c7.17,1,10.62-6.94,10.62-6.94" style="fill:none;stroke:#263238;stroke-miterlimit:10"></path><path d="M242.19,174.14c-.34,1.73-1.2,3-1.9,2.89s-1-1.66-.66-3.4,1.19-3,1.9-2.89S242.53,172.4,242.19,174.14Z" style="fill:#263238"></path><path d="M253.37,176.35c-.34,1.73-1.19,3-1.9,2.89s-1-1.66-.66-3.4,1.2-3,1.9-2.89S253.72,174.61,253.37,176.35Z" style="fill:#263238"></path><path d="M247.85,183.78s.45-3.34-1.68-4.93-2.62-2.1-4.84-1-2.34-.41-4.24,1-1.93,2.45-2.59,2.09a3.23,3.23,0,0,0-3.54.39,33,33,0,0,0-2.76,2.26,3.28,3.28,0,0,0-2.36.26,12.71,12.71,0,0,0-2.76,1.92s0,.34,2.15,1.25,4.21-.36,4.7.16,1.48.89,3.16.94,2.7-.58,4-.2,2,1.08,3.5.62a20.47,20.47,0,0,0,3.07-1.24S246.85,188.62,247.85,183.78Z" style="fill:#92E3A9;stroke:#263238;stroke-linecap:round;stroke-linejoin:round"></path><path d="M288.69,127a8.64,8.64,0,0,0-3.37,3.58c-1.06,2.31,1.5,1.23,1.05,2.1s-1.69,1.48-1.05,4.22S287,139,287,139s1.69,4.85,3.37,5.69a1.59,1.59,0,0,0,2.32-.84s.63.84,3.37,1.26,2.95-1.26,2.95-1.26,4,1.89,5.26.21-1-3.79-1-3.79,3.84-1.72,3.79-4.22l-.05-2.49s1.11-3.19.26-5.09-1.89-.42-1.89-.42-.42-4-2.32-4.84-2.11,1.89-2.11,1.89-5-4.42-7.16-2.74-.63,1.9-.63,1.9-4.84-.63-5.06,1S288.69,127,288.69,127Z" style="fill:#fff;stroke:#263238;stroke-linecap:round;stroke-linejoin:round"></path><path d="M229.51,151.06s11.2-10.73,15.79-14.91c9.64-8.76,43.4-9.64,44.72-5.26s-3.07,14.47-4.39,19.73-5.26,11.84-5.26,11.84Z" style="fill:#92E3A9;stroke:#263238;stroke-linecap:round;stroke-linejoin:round"></path><path d="M225.13,168.6s11.4-2.63,54.8,13.15c0,0,3.46,1.07,3.9-7.26s.49-12-1.27-15.54-18.41-8.33-32-11-20.18-1.47-22.81,2.91S222.5,168.16,225.13,168.6Z" style="fill:#92E3A9;stroke:#263238;stroke-linecap:round;stroke-linejoin:round"></path><path d="M248.23,134.11a16.41,16.41,0,0,0-2.93,2c-1.73,1.57-4.39,4.07-7,6.57a77.27,77.27,0,0,1,45.81,12.38,31,31,0,0,0,1.55-4.48c.29-1.14.72-2.53,1.21-4A85.85,85.85,0,0,0,248.23,134.11Z" style="fill:#263238"></path><path d="M288.45,141.63a32.32,32.32,0,0,0,1.8-8.95,85.08,85.08,0,0,0-8.85-4.25,86.44,86.44,0,0,0-23.54,2.15C266.53,132.21,278.13,135.4,288.45,141.63Z" style="fill:#263238"></path><path d="M252.68,362.48c59.53,0,111-33.78,135.24-82.75l-1.7-.29s-11.66-5.05-46.65-1.89-66.09,15.16-127,6.95c-50.65-6.83-80.25-6.67-88.77-6.42-1.73.05-2.59.1-2.59.1l-4.06,1C141.31,328.43,192.92,362.48,252.68,362.48Z" style="fill:#fff"></path><path d="M252.68,362.48c59.53,0,111-33.78,135.24-82.75l-1.7-.29s-10.81-4.68-42.83-2.21c-6.81,1-14.12,2.32-21.88,4-46.9,10-80,35-127.81,13.57s-76.55-15.64-76.55-15.64C141.31,328.43,192.92,362.48,252.68,362.48Z" style="fill:#263238;opacity:0.2"></path><path d="M252.68,362.48c59.53,0,111-33.78,135.24-82.75l-1.7-.29s-11.66-5.05-46.65-1.89-66.09,15.16-127,6.95c-50.65-6.83-80.25-6.67-88.77-6.42-1.73.05-2.59.1-2.59.1l-4.06,1C141.31,328.43,192.92,362.48,252.68,362.48Z" style="fill:none;stroke:#263238;stroke-linecap:round;stroke-linejoin:round"></path></g><g id="freepik--Snow--inject-278"><circle cx="219.42" cy="97.24" r="3.46" style="fill:#fff;stroke:#263238;stroke-linecap:round;stroke-linejoin:round"></circle><path d="M194.23,88.59a3.46,3.46,0,1,1-3.46-3.47A3.46,3.46,0,0,1,194.23,88.59Z" style="fill:#fff;stroke:#263238;stroke-linecap:round;stroke-linejoin:round"></path><circle cx="248.86" cy="122.06" r="3.46" style="fill:#fff;stroke:#263238;stroke-linecap:round;stroke-linejoin:round"></circle><circle cx="215.38" cy="138.8" r="3.46" style="fill:#fff;stroke:#263238;stroke-linecap:round;stroke-linejoin:round"></circle><circle cx="205.62" cy="251.72" r="3.46" style="fill:#fff;stroke:#263238;stroke-linecap:round;stroke-linejoin:round"></circle><circle cx="205.12" cy="183.08" r="3.46" style="fill:#fff;stroke:#263238;stroke-linecap:round;stroke-linejoin:round"></circle><circle cx="274.65" cy="253.92" r="3.46" style="fill:#fff;stroke:#263238;stroke-linecap:round;stroke-linejoin:round"></circle><circle cx="301.54" cy="235.21" r="3.46" style="fill:#fff;stroke:#263238;stroke-linecap:round;stroke-linejoin:round"></circle><circle cx="299.89" cy="273.34" r="3.46" style="fill:#fff;stroke:#263238;stroke-linecap:round;stroke-linejoin:round"></circle><path d="M133.09,156.59a3.47,3.47,0,1,1-3.46-3.46A3.46,3.46,0,0,1,133.09,156.59Z" style="fill:#fff;stroke:#263238;stroke-linecap:round;stroke-linejoin:round"></path><circle cx="148.34" cy="118.53" r="3.46" style="fill:#fff;stroke:#263238;stroke-linecap:round;stroke-linejoin:round"></circle><circle cx="306.19" cy="97.95" r="3.46" style="fill:#fff;stroke:#263238;stroke-linecap:round;stroke-linejoin:round"></circle><path d="M286,92.33a3.47,3.47,0,1,1-3.47-3.46A3.46,3.46,0,0,1,286,92.33Z" style="fill:#fff;stroke:#263238;stroke-linecap:round;stroke-linejoin:round"></path><circle cx="371.08" cy="169.7" r="3.46" style="fill:#fff;stroke:#263238;stroke-linecap:round;stroke-linejoin:round"></circle><circle cx="391.04" cy="227.72" r="3.46" style="fill:#fff;stroke:#263238;stroke-linecap:round;stroke-linejoin:round"></circle><circle cx="122.14" cy="211.5" r="3.46" style="fill:#fff;stroke:#263238;stroke-linecap:round;stroke-linejoin:round"></circle><circle cx="356.73" cy="121.31" r="3.46" style="fill:#fff;stroke:#263238;stroke-linecap:round;stroke-linejoin:round"></circle><circle cx="293.71" cy="181.89" r="3.46" style="fill:#fff;stroke:#263238;stroke-linecap:round;stroke-linejoin:round"></circle><circle cx="248.79" cy="73.61" r="3.46" style="fill:#fff;stroke:#263238;stroke-linecap:round;stroke-linejoin:round"></circle></g><g id="freepik--snowball-globe--inject-278"><path d="M135.38,111q-2.67,3.12-5.18,6.37" style="fill:none;stroke:#263238;stroke-linecap:round;stroke-linejoin:round"></path><path d="M405.17,236.34a154.49,154.49,0,0,0-266.53-129" style="fill:none;stroke:#263238;stroke-linecap:round;stroke-linejoin:round"></path><path d="M402,251.19q1.22-4.56,2.14-9.24" style="fill:none;stroke:#263238;stroke-linecap:round;stroke-linejoin:round"></path><path d="M125.55,123.71A154.5,154.5,0,1,0,400.3,257.13" style="fill:none;stroke:#263238;stroke-linecap:round;stroke-linejoin:round"></path><path d="M401.62,425.11c-5.41-5.93-13.83-11.38-26-25.21-17.1-19.38-31.77-45.79-31.77-45.79H159.25s-14.66,26.41-31.76,45.79c-12.21,13.83-20.64,19.28-26,25.21a10.06,10.06,0,0,0,7.45,16.83H394.17a10.06,10.06,0,0,0,7.45-16.83Z" style="fill:#263238;stroke:#fff;stroke-linecap:round;stroke-linejoin:round"></path><rect x="150.53" y="332.73" width="204.3" height="24.92" rx="3.74" style="fill:#263238;stroke:#fff;stroke-linecap:round;stroke-linejoin:round"></rect><rect x="95.08" y="430.4" width="313.4" height="24.92" rx="3.74" style="fill:#263238;stroke:#fff;stroke-linecap:round;stroke-linejoin:round"></rect><path d="M350.88,361.33H152.18a2.31,2.31,0,1,0,0,4.62h198.7a2.31,2.31,0,0,0,0-4.62Z" style="fill:#263238;stroke:#fff;stroke-linecap:round;stroke-linejoin:round"></path><path d="M292.76,94.65a123.59,123.59,0,0,1,74.48,163l21,.9A143.63,143.63,0,0,0,305.29,78Z" style="fill:#fff;opacity:0.7000000000000001"></path><path d="M160.47,187.44a123.42,123.42,0,0,1,8.25-24.66l-20.52-2.9a142.31,142.31,0,0,0-8.4,29C145.94,188.68,152.82,188.22,160.47,187.44Z" style="fill:#fff;opacity:0.7000000000000001"></path><path d="M134.3,199.08l-3.82,0c-6.35,0-11.74-.25-16.22-.61-.38,4.28-.59,8.6-.59,13,0,4.64.23,9.22.66,13.75l20-1.3q-.61-6.13-.62-12.45A123.83,123.83,0,0,1,134.3,199.08Z" style="fill:#fff;opacity:0.7000000000000001"></path><path d="M135.72,189a122.75,122.75,0,0,1,9.42-29.56l-20.56-2.91a143,143,0,0,0-9.07,32C120.82,188.93,127.53,189.18,135.72,189Z" style="fill:#fff;opacity:0.7000000000000001"></path><path d="M157.62,210.53a126.06,126.06,0,0,1,1-12.84c-7.49.71-14.24,1.11-20.29,1.3-.38,3.61-.64,7.27-.74,11-.14,4.63,0,9.21.26,13.74l20-1.3Q157.45,216.52,157.62,210.53Z" style="fill:#fff;opacity:0.7000000000000001"></path><line x1="474.97" y1="455.32" x2="483" y2="455.32" style="fill:none;stroke:#263238;stroke-linecap:round;stroke-linejoin:round"></line><line x1="32" y1="455.32" x2="469.38" y2="455.32" style="fill:none;stroke:#263238;stroke-linecap:round;stroke-linejoin:round"></line></g><g id="freepik--Stars--inject-278"><circle cx="131.7" cy="69.54" r="14.38" style="fill:#fff"></circle><circle cx="131.7" cy="69.54" r="14.38" style="fill:none;stroke:#263238;stroke-linecap:round;stroke-linejoin:round"></circle><circle cx="412.3" cy="267.58" r="14.38" style="fill:#fff"></circle><circle cx="412.3" cy="267.58" r="14.38" style="fill:none;stroke:#263238;stroke-linecap:round;stroke-linejoin:round"></circle><circle cx="82.41" cy="233.35" r="14.38" transform="translate(-36.31 16.21) rotate(-9.22)" style="fill:#fff"></circle><circle cx="82.41" cy="233.35" r="14.38" transform="translate(-36.31 16.21) rotate(-9.22)" style="fill:none;stroke:#263238;stroke-linecap:round;stroke-linejoin:round"></circle><circle cx="390.45" cy="92.68" r="7.19" style="fill:#fff"></circle><circle cx="390.45" cy="92.68" r="7.19" style="fill:none;stroke:#263238;stroke-linecap:round;stroke-linejoin:round"></circle><circle cx="424.34" cy="406.88" r="7.19" style="fill:#fff"></circle><circle cx="424.34" cy="406.88" r="7.19" style="fill:none;stroke:#263238;stroke-linecap:round;stroke-linejoin:round"></circle><circle cx="84.46" cy="397.64" r="7.19" style="fill:#fff"></circle><circle cx="84.46" cy="397.64" r="7.19" style="fill:none;stroke:#263238;stroke-linecap:round;stroke-linejoin:round"></circle><circle cx="55.71" cy="196.39" r="7.19" style="fill:#fff"></circle><circle cx="55.71" cy="196.39" r="7.19" style="fill:none;stroke:#263238;stroke-linecap:round;stroke-linejoin:round"></circle></g></svg>